<svg xmlns="http://www.w3.org/2000/svg" width="72.453" height="70.846" viewBox="0 0 72.453 70.846" id="tick">
  <g id="Component_399_1" data-name="Component 399 – 1" transform="translate(2)">
    <g id="Group_1394" data-name="Group 1394" transform="translate(0 6.41)">
      <circle id="Ellipse_70" data-name="Ellipse 70" cx="31.218" cy="31.218" r="31.218" fill="none" stroke="#f5f5f5" stroke-width="4"/>
    </g>
    <path id="Path_1444" data-name="Path 1444" d="M1030.933,704.617a4.392,4.392,0,0,0,3.051,4.488,4.481,4.481,0,0,0,5.345-1.266l42.548-47.254a4.748,4.748,0,0,0,1.277-3.5,4.923,4.923,0,0,0-5.1-4.588,4.722,4.722,0,0,0-3.345,1.636l-34.148,37.926.02-13.706a4.824,4.824,0,0,0-4.84-4.8,4.484,4.484,0,0,0-3.391,1.4,4.75,4.75,0,0,0-1.42,3.435Z" transform="translate(-1012.708 -652.491)" fill="#f5f5f5" fill-rule="evenodd"/>
  </g>
</svg>
