<svg xmlns="http://www.w3.org/2000/svg" xmlns:xlink="http://www.w3.org/1999/xlink" width="117.411" height="117.411" viewBox="0 0 117.411 117.411">
  <defs>
    <linearGradient id="linear-gradient" x1="0.5" x2="0.5" y2="1" gradientUnits="objectBoundingBox">
      <stop offset="0" stop-color="#05185e"/>
      <stop offset="1" stop-color="#4b86ac"/>
    </linearGradient>
    <filter id="Path_1482" x="0" y="0" width="117.411" height="117.411" filterUnits="userSpaceOnUse">
      <feOffset dy="7" input="SourceAlpha"/>
      <feGaussianBlur stdDeviation="7.5" result="blur"/>
      <feFlood flood-opacity="0.2"/>
      <feComposite operator="in" in2="blur"/>
      <feComposite in="SourceGraphic"/>
    </filter>
    <filter id="Path_1482-2" x="0" y="0" width="117.411" height="117.411" filterUnits="userSpaceOnUse">
      <feOffset dx="3" dy="3" input="SourceAlpha"/>
      <feGaussianBlur stdDeviation="4.5" result="blur-2"/>
      <feFlood flood-opacity="0.161" result="color"/>
      <feComposite operator="out" in="SourceGraphic" in2="blur-2"/>
      <feComposite operator="in" in="color"/>
      <feComposite operator="in" in2="SourceGraphic"/>
    </filter>
    <clipPath id="clip-path">
      <rect id="Rectangle_742" data-name="Rectangle 742" width="33.474" height="21.457" fill="#f5f5f5"/>
    </clipPath>
  </defs>
  <g id="Group_1651" data-name="Group 1651" transform="translate(-372.5 -2268.5)">
    <g data-type="innerShadowGroup">
      <g transform="matrix(1, 0, 0, 1, 372.5, 2268.5)" filter="url(#Path_1482)">
        <path id="Path_1482-3" data-name="Path 1482" d="M0,36.206A36.206,36.206,0,1,0,36.206,0,36.206,36.206,0,0,0,0,36.206" transform="translate(22.5 15.5)" fill="url(#linear-gradient)"/>
      </g>
      <g transform="matrix(1, 0, 0, 1, 372.5, 2268.5)" filter="url(#Path_1482-2)">
        <path id="Path_1482-4" data-name="Path 1482" d="M0,36.206A36.206,36.206,0,1,0,36.206,0,36.206,36.206,0,0,0,0,36.206" transform="translate(22.5 15.5)" fill="#fff"/>
      </g>
    </g>
    <rect id="Rectangle_741" data-name="Rectangle 741" width="52.592" height="28.303" transform="translate(404.91 2306.051)" fill="none"/>
    <g id="Group_1696" data-name="Group 1696" transform="translate(417.967 2313.411)">
      <g id="Group_1695" data-name="Group 1695" transform="translate(-3 -2)" clip-path="url(#clip-path)">
        <path id="Path_1520" data-name="Path 1520" d="M14.186,5.235a34.046,34.046,0,0,1-.029,4.2,7.385,7.385,0,0,1-6.085,6.5A6.577,6.577,0,0,1,1.827,13.36,7.952,7.952,0,0,1,0,8.192C0,6.094,0,4,0,1.9a1.6,1.6,0,1,1,3.173.025c0,2-.006,4,0,6a5.354,5.354,0,0,0,1.019,3.3,3.543,3.543,0,0,0,6.025-.18,5.546,5.546,0,0,0,.89-3.142c.007-2.016,0-4.032,0-6.047a1.592,1.592,0,1,1,3.173.016q0,1.685,0,3.371h-.1" transform="translate(1.987 1.741)" fill="#f5f5f5"/>
        <path id="Path_1521" data-name="Path 1521" d="M125.268,10.983c-.883,1.41-1.715,2.756-2.567,4.09a1.6,1.6,0,1,1-2.69-1.706c1.035-1.669,2.069-3.338,3.126-4.993a.649.649,0,0,0,.012-.827c-1.068-1.667-2.106-3.354-3.157-5.032A1.558,1.558,0,0,1,119.97.741,1.5,1.5,0,0,1,121.5.025a1.614,1.614,0,0,1,1.223.828c.749,1.206,1.505,2.407,2.26,3.609.085.135.178.265.294.436.117-.172.21-.3.295-.436.763-1.216,1.516-2.439,2.288-3.649a1.6,1.6,0,1,1,2.7,1.7C129.516,4.2,128.47,5.878,127.4,7.546a.651.651,0,0,0,.012.828q1.585,2.483,3.126,4.995a1.6,1.6,0,1,1-2.7,1.7c-.761-1.2-1.509-2.4-2.264-3.606-.086-.137-.177-.272-.311-.477" transform="translate(-101.065 1.852)" fill="#f5f5f5"/>
      </g>
    </g>
    <path id="Path_1522" data-name="Path 1522" d="M22.255,44.572a22.287,22.287,0,1,1,22.2-22.294,22.241,22.241,0,0,1-22.2,22.294m.025-40.994a18.727,18.727,0,1,0,18.672,18.75A18.765,18.765,0,0,0,22.279,3.579" transform="translate(409.475 2297.921)" fill="#f5f5f5"/>
  </g>
</svg>
