<svg xmlns="http://www.w3.org/2000/svg" xmlns:xlink="http://www.w3.org/1999/xlink" width="117.411" height="117.411" viewBox="0 0 117.411 117.411">
  <defs>
    <linearGradient id="linear-gradient" x1="0.5" x2="0.5" y2="1" gradientUnits="objectBoundingBox">
      <stop offset="0" stop-color="#05185e"/>
      <stop offset="1" stop-color="#4b86ac"/>
    </linearGradient>
    <filter id="Path_1482" x="0" y="0" width="117.411" height="117.411" filterUnits="userSpaceOnUse">
      <feOffset dy="7" input="SourceAlpha"/>
      <feGaussianBlur stdDeviation="7.5" result="blur"/>
      <feFlood flood-opacity="0.2"/>
      <feComposite operator="in" in2="blur"/>
      <feComposite in="SourceGraphic"/>
    </filter>
    <filter id="Path_1482-2" x="0" y="0" width="117.411" height="117.411" filterUnits="userSpaceOnUse">
      <feOffset dx="3" dy="3" input="SourceAlpha"/>
      <feGaussianBlur stdDeviation="4.5" result="blur-2"/>
      <feFlood flood-opacity="0.161" result="color"/>
      <feComposite operator="out" in="SourceGraphic" in2="blur-2"/>
      <feComposite operator="in" in="color"/>
      <feComposite operator="in" in2="SourceGraphic"/>
    </filter>
    <clipPath id="clip-path">
      <rect id="Rectangle_743" data-name="Rectangle 743" width="46.245" height="48.703" transform="translate(-4 -4)" fill="#f5f5f5" stroke="#f5f5f5" stroke-width="1"/>
    </clipPath>
  </defs>
  <g id="Group_1651" data-name="Group 1651" transform="translate(-372.5 -2268.5)">
    <g data-type="innerShadowGroup">
      <g transform="matrix(1, 0, 0, 1, 372.5, 2268.5)" filter="url(#Path_1482)">
        <path id="Path_1482-3" data-name="Path 1482" d="M0,36.206A36.206,36.206,0,1,0,36.206,0,36.206,36.206,0,0,0,0,36.206" transform="translate(22.5 15.5)" fill="url(#linear-gradient)"/>
      </g>
      <g transform="matrix(1, 0, 0, 1, 372.5, 2268.5)" filter="url(#Path_1482-2)">
        <path id="Path_1482-4" data-name="Path 1482" d="M0,36.206A36.206,36.206,0,1,0,36.206,0,36.206,36.206,0,0,0,0,36.206" transform="translate(22.5 15.5)" fill="#fff"/>
      </g>
    </g>
    <g id="Group_1698" data-name="Group 1698" transform="translate(409.807 2304.513)">
      <g id="Group_1697" data-name="Group 1697" transform="translate(0 -3)" clip-path="url(#clip-path)">
        <path id="Path_1523" data-name="Path 1523" d="M67.005,0a4.319,4.319,0,0,1,2.162,1.128,3.867,3.867,0,0,1,1.084,2.767q.007,14.863,0,29.727A3.672,3.672,0,0,1,67.895,37.2q-4.839,2.109-9.7,4.158a3.725,3.725,0,0,1-5.215-2.528,5.349,5.349,0,0,1-.131-1.125c-.021-.39,0-.781,0-1.218h-.469c-2.457,0-4.915.019-7.372-.007a4.893,4.893,0,0,1-3.883-1.9,1.927,1.927,0,0,1-.388-1.114c-.036-3.3-.031-6.6-.034-9.9a.867.867,0,0,1,.733-.969.828.828,0,0,1,.92.5,2.28,2.28,0,0,1,.1.718c.016,3.081.033,6.163.025,9.244a.945.945,0,0,0,.393.826,3.522,3.522,0,0,0,2.2.836q3.788,0,7.575,0a1.586,1.586,0,0,0,.2-.033v-.519q0-12.909,0-25.818A3.933,3.933,0,0,1,55.459,4.38c1.839-.76,3.66-1.562,5.488-2.347.134-.057.264-.122.506-.235-.22-.023-.328-.045-.437-.045q-7.881,0-15.762,0a2.563,2.563,0,0,0-2.721,1.972,3.979,3.979,0,0,0-.086.967c-.006,2.688,0,5.375,0,8.063,0,.617-.189.95-.595,1.089a.864.864,0,0,1-1.146-.7,3.041,3.041,0,0,1-.01-.407c0-2.728.052-5.458-.017-8.185A4.452,4.452,0,0,1,44.263.067c.034,0,.063-.044.094-.068Zm1.476,18.744c0-4.941-.026-9.882.016-14.822a2.052,2.052,0,0,0-2.944-1.954Q60.741,4.036,55.925,6.1a2,2,0,0,0-1.314,2q0,14.863,0,29.726a2.344,2.344,0,0,0,.06.6,2,2,0,0,0,2.9,1.292c3.112-1.33,6.213-2.684,9.335-3.987a2.315,2.315,0,0,0,1.582-2.408c-.031-4.859-.013-9.719-.013-14.578" transform="translate(-32.011 0.001)" fill="#f5f5f5" stroke="#f5f5f5" stroke-width="1"/>
        <path id="Path_1524" data-name="Path 1524" d="M16.112,64.071H1.148c-.654,0-.985-.2-1.114-.664a.826.826,0,0,1,.544-1.03,2.309,2.309,0,0,1,.641-.076q7.167-.006,14.335,0h.516c-.134-.15-.215-.249-.3-.339C14.71,60.9,13.65,59.849,12.6,58.784a1.6,1.6,0,0,1-.4-.593.779.779,0,0,1,.332-.926.811.811,0,0,1,.984,0,2.185,2.185,0,0,1,.307.265q2.421,2.417,4.838,4.837c.6.6.6,1.028,0,1.631-1.612,1.613-3.217,3.233-4.848,4.827a1.387,1.387,0,0,1-.869.415.839.839,0,0,1-.593-1.384,3.361,3.361,0,0,1,.329-.359c1.112-1.114,2.226-2.226,3.428-3.427" transform="translate(0 -44.938)" fill="#f5f5f5" stroke="#f5f5f5" stroke-width="1"/>
      </g>
    </g>
  </g>
</svg>
