<svg xmlns="http://www.w3.org/2000/svg" xmlns:xlink="http://www.w3.org/1999/xlink" width="117.411" height="117.411" viewBox="0 0 117.411 117.411">
  <defs>
    <linearGradient id="linear-gradient" x1="0.5" x2="0.5" y2="1" gradientUnits="objectBoundingBox">
      <stop offset="0" stop-color="#05185e"/>
      <stop offset="1" stop-color="#4b86ac"/>
    </linearGradient>
    <filter id="Path_1482" x="0" y="0" width="117.411" height="117.411" filterUnits="userSpaceOnUse">
      <feOffset dy="7" input="SourceAlpha"/>
      <feGaussianBlur stdDeviation="7.5" result="blur"/>
      <feFlood flood-opacity="0.2"/>
      <feComposite operator="in" in2="blur"/>
      <feComposite in="SourceGraphic"/>
    </filter>
    <filter id="Path_1482-2" x="0" y="0" width="117.411" height="117.411" filterUnits="userSpaceOnUse">
      <feOffset dx="3" dy="3" input="SourceAlpha"/>
      <feGaussianBlur stdDeviation="4.5" result="blur-2"/>
      <feFlood flood-opacity="0.161" result="color"/>
      <feComposite operator="out" in="SourceGraphic" in2="blur-2"/>
      <feComposite operator="in" in="color"/>
      <feComposite operator="in" in2="SourceGraphic"/>
    </filter>
  </defs>
  <g id="Group_1651" data-name="Group 1651" transform="translate(-372.5 -2268.5)">
    <g data-type="innerShadowGroup">
      <g transform="matrix(1, 0, 0, 1, 372.5, 2268.5)" filter="url(#Path_1482)">
        <path id="Path_1482-3" data-name="Path 1482" d="M0,36.206A36.206,36.206,0,1,0,36.206,0,36.206,36.206,0,0,0,0,36.206" transform="translate(22.5 15.5)" fill="url(#linear-gradient)"/>
      </g>
      <g transform="matrix(1, 0, 0, 1, 372.5, 2268.5)" filter="url(#Path_1482-2)">
        <path id="Path_1482-4" data-name="Path 1482" d="M0,36.206A36.206,36.206,0,1,0,36.206,0,36.206,36.206,0,0,0,0,36.206" transform="translate(22.5 15.5)" fill="#fff"/>
      </g>
    </g>
    <g id="Group_1709" data-name="Group 1709" transform="translate(409.381 2296.714)">
      <g id="Group_1710" data-name="Group 1710" transform="translate(-0.762 2)">
        <path id="Path_1545" data-name="Path 1545" d="M0,68.853c.125-.815.23-1.633.379-2.443a20.7,20.7,0,0,1,4.787-9.929,21.186,21.186,0,0,1,12.079-7.136,32.96,32.96,0,0,1,4.3-.461,1.387,1.387,0,0,1,1.55,1.568q0,5.975,0,11.95c0,2.406-.005,4.812.007,7.218a2.611,2.611,0,0,0,.155.878q3.328,8.976,6.675,17.945c.459,1.233.119,1.889-1.137,2.328a21.511,21.511,0,0,1-5.428,1.152,1.537,1.537,0,0,0-.272.071H20.136c-.154-.032-.307-.071-.462-.094-.784-.115-1.578-.181-2.352-.344A21.4,21.4,0,0,1,6.512,85.766,21.216,21.216,0,0,1,.38,74.356C.227,73.547.125,72.728,0,71.913v-3.06M20.232,51.84A18.645,18.645,0,1,0,26.8,88.333l-.161-.433q-3.091-8.3-6.173-16.608a3.714,3.714,0,0,1-.226-1.253q-.022-8.8-.01-17.591V51.84" transform="translate(-2.589 -47.848)" fill="#f5f5f5" stroke="#f5f5f5" stroke-width="0.5"/>
        <path id="Path_1546" data-name="Path 1546" d="M219.76,0c.716.11,1.436.2,2.148.333a18.44,18.44,0,0,1,10,5.381,18.787,18.787,0,0,1,5.222,10.5,23.448,23.448,0,0,1,.194,2.807,1.209,1.209,0,0,1-1.269,1.27q-8.8.005-17.607,0a1.232,1.232,0,0,1-1.288-1.3q0-8.842,0-17.683A1.393,1.393,0,0,1,218.078,0Zm-.068,17.747h15.02c-.514-8.374-7.688-14.8-15.02-15.1Z" transform="translate(-193.289)" fill="#f5f5f5" stroke="#f5f5f5" stroke-width="0.5"/>
        <path id="Path_1548" data-name="Path 1548" d="M227.287,216.8q4.327,0,8.653,0a1.254,1.254,0,0,1,1.41,1.428,18.848,18.848,0,0,1-8.972,16,24.505,24.505,0,0,1-3.172,1.6,1.235,1.235,0,0,1-1.788-.77q-3.067-8.211-6.119-16.427a1.274,1.274,0,0,1,1.293-1.838q4.348,0,8.7,0m7.443,2.551H220.28L225.359,233a16.442,16.442,0,0,0,9.371-13.644" transform="translate(-192.317 -192.976)" fill="#f5f5f5" stroke="#f5f5f5" stroke-width="0.5"/>
      </g>
    </g>
  </g>
</svg>
