<svg xmlns="http://www.w3.org/2000/svg" xmlns:xlink="http://www.w3.org/1999/xlink" width="117.411" height="117.411" viewBox="0 0 117.411 117.411">
  <defs>
    <linearGradient id="linear-gradient" x1="0.5" x2="0.5" y2="1" gradientUnits="objectBoundingBox">
      <stop offset="0" stop-color="#05185e"/>
      <stop offset="1" stop-color="#4b86ac"/>
    </linearGradient>
    <filter id="Path_1482" x="0" y="0" width="117.411" height="117.411" filterUnits="userSpaceOnUse">
      <feOffset dy="7" input="SourceAlpha"/>
      <feGaussianBlur stdDeviation="7.5" result="blur"/>
      <feFlood flood-opacity="0.2"/>
      <feComposite operator="in" in2="blur"/>
      <feComposite in="SourceGraphic"/>
    </filter>
    <filter id="Path_1482-2" x="0" y="0" width="117.411" height="117.411" filterUnits="userSpaceOnUse">
      <feOffset dx="3" dy="3" input="SourceAlpha"/>
      <feGaussianBlur stdDeviation="4.5" result="blur-2"/>
      <feFlood flood-opacity="0.161" result="color"/>
      <feComposite operator="out" in="SourceGraphic" in2="blur-2"/>
      <feComposite operator="in" in="color"/>
      <feComposite operator="in" in2="SourceGraphic"/>
    </filter>
  </defs>
  <g id="Group_1651" data-name="Group 1651" transform="translate(-372.5 -2268.5)">
    <g data-type="innerShadowGroup">
      <g transform="matrix(1, 0, 0, 1, 372.5, 2268.5)" filter="url(#Path_1482)">
        <path id="Path_1482-3" data-name="Path 1482" d="M0,36.206A36.206,36.206,0,1,0,36.206,0,36.206,36.206,0,0,0,0,36.206" transform="translate(22.5 15.5)" fill="url(#linear-gradient)"/>
      </g>
      <g transform="matrix(1, 0, 0, 1, 372.5, 2268.5)" filter="url(#Path_1482-2)">
        <path id="Path_1482-4" data-name="Path 1482" d="M0,36.206A36.206,36.206,0,1,0,36.206,0,36.206,36.206,0,0,0,0,36.206" transform="translate(22.5 15.5)" fill="#fff"/>
      </g>
    </g>
  </g>
</svg>
