<svg xmlns="http://www.w3.org/2000/svg" xmlns:xlink="http://www.w3.org/1999/xlink" width="117.411" height="117.411" viewBox="0 0 117.411 117.411">
  <defs>
    <linearGradient id="linear-gradient" x1="0.5" x2="0.5" y2="1" gradientUnits="objectBoundingBox">
      <stop offset="0" stop-color="#05185e"/>
      <stop offset="1" stop-color="#4b86ac"/>
    </linearGradient>
    <filter id="Path_1482" x="0" y="0" width="117.411" height="117.411" filterUnits="userSpaceOnUse">
      <feOffset dy="7" input="SourceAlpha"/>
      <feGaussianBlur stdDeviation="7.5" result="blur"/>
      <feFlood flood-opacity="0.2"/>
      <feComposite operator="in" in2="blur"/>
      <feComposite in="SourceGraphic"/>
    </filter>
    <filter id="Path_1482-2" x="0" y="0" width="117.411" height="117.411" filterUnits="userSpaceOnUse">
      <feOffset dx="3" dy="3" input="SourceAlpha"/>
      <feGaussianBlur stdDeviation="4.5" result="blur-2"/>
      <feFlood flood-opacity="0.161" result="color"/>
      <feComposite operator="out" in="SourceGraphic" in2="blur-2"/>
      <feComposite operator="in" in="color"/>
      <feComposite operator="in" in2="SourceGraphic"/>
    </filter>
    <clipPath id="clip-path">
      <rect id="Rectangle_744" data-name="Rectangle 744" width="33.653" height="47.759" transform="translate(0 0)" fill="#f5f5f5"/>
    </clipPath>
  </defs>
  <g id="Group_1651" data-name="Group 1651" transform="translate(-372.5 -2268.5)">
    <g data-type="innerShadowGroup">
      <g transform="matrix(1, 0, 0, 1, 372.5, 2268.5)" filter="url(#Path_1482)">
        <path id="Path_1482-3" data-name="Path 1482" d="M0,36.206A36.206,36.206,0,1,0,36.206,0,36.206,36.206,0,0,0,0,36.206" transform="translate(22.5 15.5)" fill="url(#linear-gradient)"/>
      </g>
      <g transform="matrix(1, 0, 0, 1, 372.5, 2268.5)" filter="url(#Path_1482-2)">
        <path id="Path_1482-4" data-name="Path 1482" d="M0,36.206A36.206,36.206,0,1,0,36.206,0,36.206,36.206,0,0,0,0,36.206" transform="translate(22.5 15.5)" fill="#fff"/>
      </g>
    </g>
    <g id="Group_1707" data-name="Group 1707" transform="translate(414.379 2298.342)">
      <g id="Group_1706" data-name="Group 1706" clip-path="url(#clip-path)">
        <path id="Path_1536" data-name="Path 1536" d="M15.276,20.7a11.01,11.01,0,0,1,9.882,6.989c1.9,4.8,1,9.134-2.463,12.976-1.843,2.043-3.592,4.172-5.382,6.262-.053.061-.1.131-.148.193a1.315,1.315,0,0,1-1.805.452,1.155,1.155,0,0,1-.1-.069,1.28,1.28,0,0,1-.276-1.79,1.193,1.193,0,0,1,.118-.138c1.637-2.008,3.331-3.97,4.973-5.975a19.749,19.749,0,0,0,2.517-3.336,9.011,9.011,0,0,0-14.417-10.4c-1.831,1.83-3.5,3.823-5.238,5.745-.163.18-.3.382-.461.565A1.343,1.343,0,0,1,.5,32.511a1.253,1.253,0,0,1-.214-1.759,1.307,1.307,0,0,1,.167-.174c2.155-2.416,4.241-4.907,6.56-7.158,2.031-1.972,4.662-2.751,8.267-2.721" fill="#f5f5f5"/>
        <path id="Path_1537" data-name="Path 1537" d="M13.9,25.87c3.346.052,5.633,1.55,6.572,3.977a6.358,6.358,0,0,1-1.488,7.172,70.594,70.594,0,0,0-7.049,8.454,2.811,2.811,0,0,1-.7.768,1.166,1.166,0,0,1-1.555-.171,1.2,1.2,0,0,1-.126-1.69c1.122-1.52,2.214-3.071,3.417-4.523,1.379-1.662,2.852-3.247,4.313-4.838a3.924,3.924,0,0,0,0-5.42,3.778,3.778,0,0,0-5.341-.148c-.037.035-.074.071-.11.108-2.475,2.708-4.808,5.544-7.2,8.33-.193.225-.341.486-.527.718a1.293,1.293,0,0,1-1.776.436L2.259,39A1.276,1.276,0,0,1,1.9,37.231a1.165,1.165,0,0,1,.118-.152c1.374-1.805,2.748-3.612,4.2-5.351,1.159-1.386,2.4-2.714,3.675-3.994a5.937,5.937,0,0,1,4-1.863" fill="#f5f5f5"/>
        <path id="Path_1538" data-name="Path 1538" d="M15.562,10.358A21.513,21.513,0,0,1,33.348,20.935a1.987,1.987,0,0,1,.224,1.488c-.332.995-1.6,1.014-2.256.1-.693-.964-1.322-1.981-2.092-2.878A19.672,19.672,0,0,0,2.587,16.937c-.15.116-.295.238-.452.342A1.308,1.308,0,0,1,.317,17.09a1.2,1.2,0,0,1,.262-1.843,46.363,46.363,0,0,1,5.109-3.082c2.707-1.3,5.637-1.805,9.871-1.807" fill="#f5f5f5"/>
        <path id="Path_1539" data-name="Path 1539" d="M14.37,15.554A16.946,16.946,0,0,1,30.259,26.325,1.429,1.429,0,0,1,30,28.1a1.306,1.306,0,0,1-2.111-.723A14.347,14.347,0,0,0,4.518,22.158C3.8,22.853,3.113,23.58,2.4,24.281a1.335,1.335,0,0,1-1.869.272A1.373,1.373,0,0,1,.4,24.442a1.31,1.31,0,0,1,.015-1.851c.032-.031.066-.061.1-.089,2.25-2.479,4.672-4.722,7.908-5.884a17.326,17.326,0,0,1,5.944-1.065" fill="#f5f5f5"/>
        <path id="Path_1540" data-name="Path 1540" d="M13.786,5.05c7.714.135,13.835,2.454,19.04,7.122a2.565,2.565,0,0,1,.7.867,1.046,1.046,0,0,1-.421,1.416,1.986,1.986,0,0,1-1.479.042,9.285,9.285,0,0,1-1.5-1.222Q17.814,3.846,3.653,10.189c-.123.055-.242.121-.364.177a1.318,1.318,0,0,1-1.82-.4,1.168,1.168,0,0,1-.063-.108A1.3,1.3,0,0,1,2,8.111a1.122,1.122,0,0,1,.134-.057A25.043,25.043,0,0,1,9.614,5.531c1.622-.264,3.268-.38,4.173-.48" fill="#f5f5f5"/>
        <path id="Path_1541" data-name="Path 1541" d="M28.882,4.038A1.327,1.327,0,0,1,26.929,5.2c-1.7-.616-3.375-1.311-5.112-1.786a28.869,28.869,0,0,0-11.731-.618,1.3,1.3,0,0,1-1.6-.888,1.393,1.393,0,0,1-.033-.153C8.337.981,8.784.434,9.681.252A2.646,2.646,0,0,1,10.16.173C12.613.116,15.076-.1,17.517.05A29.462,29.462,0,0,1,27.878,2.764a1.417,1.417,0,0,1,1,1.268" fill="#f5f5f5"/>
        <path id="Path_1542" data-name="Path 1542" d="M6.263,43.79c-.443-.334-.965-.531-1.095-.876A1.792,1.792,0,0,1,5.256,41.5a38.5,38.5,0,0,1,2.769-3.791c1.772-2.107,3.627-4.143,5.459-6.2a1.238,1.238,0,0,1,1.678-.292,1.165,1.165,0,0,1,.571,1.39,1.962,1.962,0,0,1-.5.807,75.662,75.662,0,0,0-7.794,9.414,6.105,6.105,0,0,1-1.169.963" fill="#f5f5f5"/>
        <path id="Path_1543" data-name="Path 1543" d="M24.046,46.154c-.374-.326-.881-.571-1.02-.946a1.76,1.76,0,0,1,.184-1.329A6.906,6.906,0,0,1,24.455,42.5,14.008,14.008,0,0,0,27.9,37.183c.029-.076.051-.154.083-.228a1.3,1.3,0,1,1,2.414.925,17.239,17.239,0,0,1-4.29,6.686,12.944,12.944,0,0,1-.981.965,8.385,8.385,0,0,1-1.085.622" fill="#f5f5f5"/>
        <path id="Path_1544" data-name="Path 1544" d="M31.338,32.191A1.3,1.3,0,0,1,30.079,33.5a1.342,1.342,0,0,1-1.312-1.279A1.253,1.253,0,0,1,30,30.948h.047a1.222,1.222,0,0,1,1.293,1.146c0,.032,0,.065,0,.1" fill="#f5f5f5"/>
      </g>
    </g>
  </g>
</svg>
