<svg xmlns="http://www.w3.org/2000/svg" xmlns:xlink="http://www.w3.org/1999/xlink" width="36.423" height="36.159" viewBox="0 0 36.423 36.159">
  <defs>
    <linearGradient id="linear-gradient" x1="0.5" x2="0.5" y2="1" gradientUnits="objectBoundingBox">
      <stop offset="0" stop-color="#05185e"/>
      <stop offset="1" stop-color="#4b86ac"/>
    </linearGradient>
  </defs>
  <path id="Path_1505" data-name="Path 1505" d="M1054.4,794.554a4.33,4.33,0,0,1,1.255-3.024c.006-.005.014-.015.021-.022l.239-.227a4.757,4.757,0,0,1,1-.652,4.385,4.385,0,0,1,3.545-.1,4.445,4.445,0,0,1,1.325.835,4.664,4.664,0,0,1,.936,1.224,4.336,4.336,0,0,1-2.006,5.862,4.166,4.166,0,0,1-2.119.424,4.37,4.37,0,0,1-4.068-3.346,5.387,5.387,0,0,1-.125-.975Zm-17.749-.042a5.074,5.074,0,0,0,.749,3.02,5.288,5.288,0,0,0,1.564,1.7,6.242,6.242,0,0,0,2.3.957c.852.225,1.719.476,2.584.678l-1.1-.975a16.729,16.729,0,0,1-4.925-8.588,5.848,5.848,0,0,1-.158-.9c-.139.1-.049-.013-.1.192a25.435,25.435,0,0,0-.912,3.918Zm4.49-17.283c.142-.038.059-.008.147-.108l.859-.962c.172-.172.35-.376.531-.528a2.574,2.574,0,0,0,.274-.234,16.054,16.054,0,0,1,1.777-1.4,3.477,3.477,0,0,1,.327-.224c.236-.145.429-.265.657-.4a16.9,16.9,0,0,1,5.357-2.013,3.213,3.213,0,0,0,.871-.187,34.243,34.243,0,0,0-4.362-1.017,5.377,5.377,0,0,0-3.51,1.024c-.08.059-.148.094-.225.155-.094.075-.122.111-.229.195a3.45,3.45,0,0,0-.41.395c-1.126,1.278-1.252,2.4-1.708,4.01l-.357,1.3Zm15.631,26.983c.082.112.065.079.218.121.111.03.157.037.274.065a28.428,28.428,0,0,0,3.956.915,5.531,5.531,0,0,0,4.872-2.414,6.836,6.836,0,0,0,.957-2.433c.113-.452.231-.895.361-1.332.062-.21.112-.438.179-.668a5.124,5.124,0,0,1,.2-.693c-.165.044-.257.291-.5.561-.179.2-.345.381-.512.589a17.89,17.89,0,0,1-2.287,2.076,16.8,16.8,0,0,1-6.766,3.061,5.121,5.121,0,0,1-.95.152Zm14.192-18.554h.084a2.581,2.581,0,0,1,.132-.588l.456-1.7c.6-2.015.892-3.549-.283-5.51a5.42,5.42,0,0,0-2.767-2.273c-.481-.178-2.662-.738-3.333-.9a3.464,3.464,0,0,0-.687-.161l.583.477c.463.43.6.518,1.144,1.059l.531.569a15.44,15.44,0,0,1,1.886,2.519,13.022,13.022,0,0,1,.758,1.4,17.061,17.061,0,0,1,.928,2.375c.086.287.177.557.245.856a9.931,9.931,0,0,1,.322,1.881ZM1047.791,796.8a4.584,4.584,0,0,1-3.061-1.217,4.349,4.349,0,0,1-.95-4.953,5.279,5.279,0,0,1,.368-.65l.476-.583a5.142,5.142,0,0,1,1.218-.858,4.485,4.485,0,0,1,4.49.385,4.306,4.306,0,0,1,1.435,5.286,4.246,4.246,0,0,1-1.169,1.541,4.564,4.564,0,0,1-2.807,1.049Zm4.575-8.938a2.2,2.2,0,0,0,.374,1.114,1.953,1.953,0,0,0,3.523-1.157,1.991,1.991,0,0,0-.875-1.582,1.956,1.956,0,0,0-3.022,1.625Zm4.278-4.828a4.606,4.606,0,0,1,1.279-3.084,4.445,4.445,0,0,1,4.835-.913l.692.365a4.371,4.371,0,0,1,1.962,3.419,4.289,4.289,0,0,1-1.512,3.487,4.565,4.565,0,0,1-.944.623,4.474,4.474,0,0,1-4.152-.17,4.718,4.718,0,0,1-1.049-.851l-.1-.11a4.727,4.727,0,0,1-.615-1,4.544,4.544,0,0,1-.395-1.766Zm-6.609,2.244-1.085-.137a4.452,4.452,0,0,1-2.869-2.263,4.377,4.377,0,0,1-.057-3.772,4.291,4.291,0,0,1,2.061-2.089,4.38,4.38,0,0,1,6.195,4.838,4.211,4.211,0,0,1-1.178,2.126,4.394,4.394,0,0,1-1.274.887,4.872,4.872,0,0,1-1.794.409Zm-11.055,2.457a17.82,17.82,0,0,0,.391,3.379l.419,1.487c.168.443.339.948.545,1.362.1.209.188.431.3.636.06.115.111.182.17.3a15.19,15.19,0,0,0,4.949,5.471c.1.067.178.107.286.179.211.142.387.244.6.373l1.256.651c.459.19.834.372,1.321.543s.939.3,1.474.433a15.664,15.664,0,0,0,10.22-.971l1.8-.994a15.4,15.4,0,0,0,3.961-3.622,16.838,16.838,0,0,0,1.147-1.732c.068-.112.1-.183.165-.3s.1-.163.169-.3a15.921,15.921,0,0,0,1.266-3.478,17.251,17.251,0,0,0,.4-3.414,15.544,15.544,0,0,0-1.356-6.227,15.086,15.086,0,0,0-2.189-3.487,18.092,18.092,0,0,0-1.273-1.347,14.1,14.1,0,0,0-1.679-1.377l-.56-.372a15.521,15.521,0,0,0-1.856-1.025,14.546,14.546,0,0,0-2.794-.975,15.674,15.674,0,0,0-7.388-.008c-.509.128-.978.261-1.476.431a16.644,16.644,0,0,0-2.582,1.188,15.814,15.814,0,0,0-2.238,1.574l-.5.43a19.783,19.783,0,0,0-1.38,1.458,15.1,15.1,0,0,0-3.166,6.323A17.34,17.34,0,0,0,1038.98,787.734Z" transform="translate(-1036.15 -769.654)" stroke="rgba(0,0,0,0)" stroke-miterlimit="10" stroke-width="1" fill-rule="evenodd" fill="url(#linear-gradient)"/>
</svg>
