<svg xmlns="http://www.w3.org/2000/svg" xmlns:xlink="http://www.w3.org/1999/xlink" width="34.978" height="35.68" viewBox="0 0 34.978 35.68">
  <defs>
    <linearGradient id="linear-gradient" x1="0.5" x2="0.5" y2="1" gradientUnits="objectBoundingBox">
      <stop offset="0" stop-color="#05185e"/>
      <stop offset="1" stop-color="#4b86ac"/>
    </linearGradient>
  </defs>
  <path id="Path_1501" data-name="Path 1501" d="M1124.968,805.051H1137.9a10.547,10.547,0,0,0,10.521-10.521V780.893a10.548,10.548,0,0,0-10.521-10.521h-12.934a10.549,10.549,0,0,0-10.522,10.521V794.53a10.548,10.548,0,0,0,10.522,10.521Zm15.415-29.525a2.355,2.355,0,1,1-2.354,2.355,2.355,2.355,0,0,1,2.354-2.355Zm-8.949,3.266a8.542,8.542,0,0,1,6.059,2.51l0,0a8.543,8.543,0,0,1,2.513,6.055q0,.176-.007.349v0c0,.116.007.232.007.349a8.543,8.543,0,0,1-2.513,6.055l0,0a8.568,8.568,0,0,1-14.626-6.058c0-.117,0-.233.007-.349v0c0-.116-.007-.232-.007-.349a8.568,8.568,0,0,1,8.567-8.568Zm5.731,9.242v.028a5.711,5.711,0,0,1-1.673,4.052h-.005a5.731,5.731,0,0,1-9.783-4.052v-.028h.039c-.012-.107-.022-.214-.028-.323s.016-.216.028-.323h-.039v-.028a5.731,5.731,0,0,1,9.783-4.052h.005a5.708,5.708,0,0,1,1.673,4.052v.028h-.039c.013.107.022.214.029.323s-.016.216-.029.323Zm8.421-.646v7.142a7.71,7.71,0,0,1-7.684,7.684h-12.934a7.71,7.71,0,0,1-7.685-7.684V780.893a7.71,7.71,0,0,1,7.685-7.684H1137.9a7.71,7.71,0,0,1,7.684,7.684Z" transform="translate(-1113.946 -769.872)" stroke="rgba(0,0,0,0)" stroke-miterlimit="10" stroke-width="1" fill-rule="evenodd" fill="url(#linear-gradient)"/>
</svg>
