<svg xmlns="http://www.w3.org/2000/svg" xmlns:xlink="http://www.w3.org/1999/xlink" width="37.372" height="37.33" viewBox="0 0 37.372 37.33">
  <defs>
    <linearGradient id="linear-gradient" x1="0.5" x2="0.5" y2="1" gradientUnits="objectBoundingBox">
      <stop offset="0" stop-color="#05185e"/>
      <stop offset="1" stop-color="#4b86ac"/>
    </linearGradient>
  </defs>
  <path id="Path_1502" data-name="Path 1502" d="M1208.817,769.03A18.189,18.189,0,0,1,1227,787.176h0v.038h0a18.186,18.186,0,0,1-36.372,0h0v-.038h0a18.184,18.184,0,0,1,18.186-18.146Zm-5.421,28.158,3.587-3.732-3.489-2.631,12.6-9.917-1.727,1.423c-2.032,1.672-6.1,5.018-8.122,6.7a19.722,19.722,0,0,0-2.008,1.722c.007.012.007.012,1.71,1.265s5.109,3.76,6.923,4.976,2.032,1.144,2.208,1.066a1.356,1.356,0,0,0,.426-.28c.116-.116.214-.262,1.035-3.438s2.367-9.381,3.15-12.683.809-3.705.718-3.979a.728.728,0,0,0-.523-.481c-.225-.06-.469-.036-4.781,1.443s-12.7,4.41-16.9,5.949-4.228,1.685-4.209,1.831.079.292,1.241.736,3.424,1.186,4.551,1.558,1.114.371,1.107.371-.006,0,2.58-1.405,7.756-4.216,10.342-5.622l2.585-1.405-.256.211h0l-14.939,8.578,2.2,7.74Zm20.71-9.993a15.288,15.288,0,1,0-4.477,10.791A15.243,15.243,0,0,0,1224.106,787.2Z" transform="translate(-1190.131 -768.53)" stroke="rgba(0,0,0,0)" stroke-miterlimit="10" stroke-width="1" fill-rule="evenodd" fill="url(#linear-gradient)"/>
</svg>
