<svg xmlns="http://www.w3.org/2000/svg" xmlns:xlink="http://www.w3.org/1999/xlink" width="37.123" height="29.676" viewBox="0 0 37.123 29.676">
  <defs>
    <linearGradient id="linear-gradient" x1="0.5" x2="0.5" y2="1" gradientUnits="objectBoundingBox">
      <stop offset="0" stop-color="#05185e"/>
      <stop offset="1" stop-color="#4b86ac"/>
    </linearGradient>
  </defs>
  <path id="Path_1503" data-name="Path 1503" d="M1270.2,785.685l.1.113.135.108a7.178,7.178,0,0,0,1.5.913c.116.053.609.226.668.275l.052.07a.242.242,0,0,1,.011.026.339.339,0,0,1,0,.161H1270.8a4.609,4.609,0,0,0-.695.009s.01-.02,0,.006l-.016.03a.6.6,0,0,0-.007.267c.01.178.011.082-.007.1.119,0,.114-.1.192.027l.029.145a.3.3,0,0,0,.025.212c.045.063.01.02.084.057l.125.068c.039.033.395.718.465.831a7.346,7.346,0,0,0,1.945,2.039,7.175,7.175,0,0,0,3.99,1.322,11.915,11.915,0,0,1-2.052,1.361,13.909,13.909,0,0,1-2.41,1.027,14.538,14.538,0,0,1-5.3.676c-.27-.014-.578-.064-.838-.06l.033.039a19.243,19.243,0,0,0,1.791,1.024,20.4,20.4,0,0,0,6.642,2.019,21.6,21.6,0,0,0,10.072-1.162,19.287,19.287,0,0,0,5.483-3.176c.264-.212.551-.458.775-.674.263-.253.5-.452.74-.709a21.394,21.394,0,0,0,2.568-3.2c.393-.607.718-1.162,1.066-1.828a12.608,12.608,0,0,0,.884-1.993l.089-.144c.025-.06.036-.1.057-.154l.346-.979c.145-.428.278-.894.4-1.356a18.224,18.224,0,0,0,.542-3.023,27.385,27.385,0,0,0,.1-2.957l.995-.776c.045-.085.618-.592.718-.691a14.2,14.2,0,0,0,1.858-2.276l-.957.374a13.09,13.09,0,0,1-3.1.715,7.13,7.13,0,0,0,1.014-.755,8.227,8.227,0,0,0,.856-.894,7.026,7.026,0,0,0,1.229-2.3,4.989,4.989,0,0,0-.53.283,13.782,13.782,0,0,1-1.613.746,12.013,12.013,0,0,1-2.446.691,7.246,7.246,0,0,0-6.138-2.22c-.076.028-.6.1-.766.139a7.571,7.571,0,0,0-.751.218,7.241,7.241,0,0,0-4.8,7.622c.03.293.107.577.128.854a20.441,20.441,0,0,1-8.746-2.462,21.073,21.073,0,0,1-4.805-3.615l-1-1.085a2.8,2.8,0,0,0-.337-.378,7.2,7.2,0,0,0-.921,2.72,8.194,8.194,0,0,0,.306,3.248.76.76,0,0,0,.01.381.265.265,0,0,1,.014.075c0,.087-.007.078-.043.114.006,0,.017,0,.02.006l.161.009a.969.969,0,0,1,.051.417c.106.051.065,0,.191.05.055.18-.011.194.02.412l.212,0,0,.2.144.042c-.031.06-.06.067-.031.079v-.03c.157.027.084.027.106.357.2,0,.132-.026.151-.058a.259.259,0,0,0,.126.138c-.115-.01-.066.03-.051.121l.2.03.044.161c.025,0,.044-.044.1.029.074.1.037-.089.052.141l-1.729-.006c-.069,0-.122.026-.2.036l-.012.635c.036.117-.02.042.066.106a7.619,7.619,0,0,0,.833,2.823A6.732,6.732,0,0,0,1270.2,785.685Z" transform="translate(-1265.252 -769.558)" stroke="rgba(0,0,0,0)" stroke-miterlimit="10" stroke-width="1" fill-rule="evenodd" fill="url(#linear-gradient)"/>
</svg>
