<svg xmlns="http://www.w3.org/2000/svg" xmlns:xlink="http://www.w3.org/1999/xlink" width="35.081" height="35.08" viewBox="0 0 35.081 35.08">
  <defs>
    <linearGradient id="linear-gradient" x1="0.5" x2="0.5" y2="1" gradientUnits="objectBoundingBox">
      <stop offset="0" stop-color="#05185e"/>
      <stop offset="1" stop-color="#4b86ac"/>
    </linearGradient>
  </defs>
  <path id="Path_1504" data-name="Path 1504" d="M965.368,770.224h23.726a5.193,5.193,0,0,1,5.177,5.177v23.727a5.192,5.192,0,0,1-5.177,5.176H965.368a5.192,5.192,0,0,1-5.177-5.176V775.4a5.193,5.193,0,0,1,5.177-5.177Zm5.935,25.83-.546-1.009a11.109,11.109,0,0,0-2.253,1.305,1.681,1.681,0,0,0,.848.739,1.451,1.451,0,0,0,.521.477,12.181,12.181,0,0,0,4.071,1.921,6.391,6.391,0,0,0-.678-.785,8.829,8.829,0,0,1-.707-.834c-.243-.3-.423-.558-.653-.89-.193-.278-.391-.678-.6-.926Zm14.5.446.369-.286a10.071,10.071,0,0,0-2.58-1.365,11.151,11.151,0,0,1-1.454,2.526c-.813,1.164-1.151,1.333-1.782,2.147a11.64,11.64,0,0,0,2.3-.8A10.137,10.137,0,0,0,985.8,796.5Zm-9.365-1.868v-1.026a25.852,25.852,0,0,0-4.137.781,2.5,2.5,0,0,0,.531.978,10.16,10.16,0,0,0,1.613,2.258,7.626,7.626,0,0,0,1.994,1.842v-4.832Zm5.372.313.282-.618a6.511,6.511,0,0,0-1.9-.52,12.728,12.728,0,0,0-2.155-.217l.014,5.792.565-.5L981.139,796c.218-.345.427-.709.667-1.051Zm-5.373-5.439v-.976l-5.8,0a15.17,15.17,0,0,0,.37,2.415c.086.373.167.689.282,1.06.248.8.174.917.521.9a15.808,15.808,0,0,1,4.622-.907l0-2.495Zm13.253-.031.13-.955-4.521.058c-.2,2.691-.558,2.8-1.006,4.792.333.11.4.237.758.25l2.208,1.342a12.184,12.184,0,0,0,2.432-5.486Zm-20.568.033-.092-.971-4.372.02a12.462,12.462,0,0,0,1.235,4.312,9.8,9.8,0,0,0,1.479,2.278,18.13,18.13,0,0,1,2.744-1.58,30.139,30.139,0,0,1-.994-4.059Zm14.468-.093.1-.887-5.653.016.015,3.279c.111.162.052.164.646.2a19.58,19.58,0,0,1,4.071.746,13.408,13.408,0,0,0,.82-3.354Zm-5.548-3.855,0,1.349.567.015,5.137,0-.247-2.447a2.68,2.68,0,0,0-.293-1.1l-.149-.836c-.771.16-1.5.43-2.335.593a25.21,25.21,0,0,1-2.676.318v2.107Zm-1.607-1.215,0-.929c-2.9-.149-3.428-.735-5.052-1.022-.526.851-.663,3.207-.8,4.324.19.4.082.117.234.177.269.106,5.3.031,5.622.03v-2.579Zm11.836-3.237-.571-.975c-1.03.5-1.933,1.429-3.149,1.753l.471,1.891.372,3.132.472.013,4.016-.005a12.42,12.42,0,0,0-.853-4.245l-.758-1.564Zm-18.6,1.144.2-.575a8.755,8.755,0,0,1-1.512-.8,16.737,16.737,0,0,0-1.407-.917,12.171,12.171,0,0,0-2.351,6.967l.64,0h3.737a24.938,24.938,0,0,1,.7-4.672Zm8.886-.457a17.583,17.583,0,0,0,3.895-.769,10.485,10.485,0,0,0-1.629-2.869,12.918,12.918,0,0,0-2.771-2.98l-.01,6.628.516-.01Zm-2.125-5.254-.008-1.463a14.179,14.179,0,0,0-4.474,5.788l.89.281a14.157,14.157,0,0,0,3.578.652l.013-5.258Zm10.062,2.377c.151-.105.136.169.114-.21-.236-.187-.394-.4-.631-.614A12.9,12.9,0,0,0,980.352,775a12.748,12.748,0,0,0,1.011,1.128,20.609,20.609,0,0,1,2.044,3.087,7.29,7.29,0,0,0,.592,1.16,9.865,9.865,0,0,0,2.494-1.456Zm-14.136-2.056a6.861,6.861,0,0,0,.747-.846c.166-.2.725-.791.807-.948a11.593,11.593,0,0,0-3.317,1.424,9.831,9.831,0,0,0-2.59,2.228,7.451,7.451,0,0,0,.8.474,6.524,6.524,0,0,0,1.611.961c.214-.242.715-1.324.917-1.673.3-.518.84-1.187,1.025-1.619Zm2.5-3.756-.141.07c-.3.121-1.54.353-2.486.711a14.273,14.273,0,0,0-9.245,13.745,19.836,19.836,0,0,0,.516,3.52,25.172,25.172,0,0,0,1.062,2.67c.514.976,1.07,1.613,1.515,2.4l1.545,1.571a14.256,14.256,0,0,0,22.908-15.713,19.693,19.693,0,0,0-1.212-2.421c-2.34-3.748-5.208-4.741-5.616-5.216-.3-.017-1.728-.684-2.294-.843a17.98,17.98,0,0,1-2.515-.6,12.513,12.513,0,0,1-2.12-.012A12.67,12.67,0,0,1,974.855,773.106Z" transform="translate(-959.691 -769.724)" stroke="rgba(0,0,0,0)" stroke-miterlimit="10" stroke-width="1" fill-rule="evenodd" fill="url(#linear-gradient)"/>
</svg>
