<svg xmlns="http://www.w3.org/2000/svg" width="29.142" height="29.139" viewBox="0 0 29.142 29.139">
  <path id="_11_Comment_2" data-name="11 Comment_2" d="M8.039,28.139A1.337,1.337,0,0,1,6.7,26.8V22.784H3.35A3.354,3.354,0,0,1,0,19.432V3.35A3.353,3.353,0,0,1,3.35,0H24.793a3.353,3.353,0,0,1,3.35,3.35V19.432a3.354,3.354,0,0,1-3.35,3.351H13.951L8.985,27.75A1.334,1.334,0,0,1,8.039,28.139Zm0-15.072a1.34,1.34,0,0,0,0,2.68h8.71a1.34,1.34,0,0,0,0-2.68Zm0-6.032a1.34,1.34,0,0,0,0,2.68H20.1a1.34,1.34,0,0,0,0-2.68Z" transform="translate(0.5 0.5)" fill="#bababa" stroke="rgba(0,0,0,0)" stroke-miterlimit="10" stroke-width="1"/>
</svg>
