<svg xmlns="http://www.w3.org/2000/svg" width="64.074" height="68.089" viewBox="0 0 64.074 68.089">
  <g id="Path_1575" data-name="Path 1575" transform="translate(-1030.92 -648.068)" fill="#e67205" fill-rule="evenodd" style="mix-blend-mode: darken;isolation: isolate">
    <path d="M 1036.567749023438 715.1573486328125 C 1036.567626953125 715.1573486328125 1036.567626953125 715.1573486328125 1036.567504882812 715.1573486328125 C 1035.998168945312 715.1573486328125 1035.382690429688 715.0310668945312 1034.738037109375 714.781982421875 C 1032.816040039062 714.0403442382812 1031.925903320312 712.7205200195312 1031.936401367188 710.6282958984375 L 1031.936401367188 710.6255493164062 L 1031.936401367188 710.622802734375 L 1031.919921875 677.9553833007812 C 1031.932250976562 676.6838989257812 1032.361694335938 675.63720703125 1033.232666015625 674.7559204101562 C 1034.087036132812 673.8895263671875 1035.071899414062 673.46875 1036.244506835938 673.46875 C 1036.272705078125 673.46875 1036.300903320312 673.468994140625 1036.329223632812 673.469482421875 L 1036.342041015625 673.4696655273438 L 1036.354736328125 673.4695434570312 L 1036.398315429688 673.4693603515625 C 1037.6064453125 673.4693603515625 1038.625 673.900634765625 1039.512084960938 674.7879028320312 C 1040.369506835938 675.6453857421875 1040.792358398438 676.6703491210938 1040.804565429688 677.9210205078125 L 1040.799072265625 696.3766479492188 L 1040.79833984375 698.9010620117188 L 1042.527587890625 697.0619506835938 L 1086.19677734375 650.618896484375 L 1086.205200195312 650.6100463867188 L 1086.213256835938 650.6009521484375 C 1087.069946289062 649.6441650390625 1088.078735351562 649.1453247070312 1089.29736328125 649.075927734375 C 1089.388549804688 649.0706787109375 1089.480102539062 649.0679931640625 1089.570068359375 649.0679931640625 C 1090.445434570312 649.0679931640625 1091.287475585938 649.3228149414062 1091.880249023438 649.76708984375 L 1091.886840820312 649.77197265625 L 1091.893432617188 649.7767333984375 C 1092.214599609375 650.0093994140625 1092.343872070312 650.1155395507812 1092.470092773438 650.2299194335938 C 1093.435180664062 651.103759765625 1093.931518554688 652.1176147460938 1093.988159179688 653.330078125 C 1094.047241210938 654.5408935546875 1093.650024414062 655.6328125 1092.807739257812 656.5777587890625 L 1039.673583984375 713.5970458984375 L 1039.666625976562 713.6044921875 L 1039.659790039062 713.6121215820312 C 1038.729736328125 714.65185546875 1037.71826171875 715.1573486328125 1036.567749023438 715.1573486328125 Z" stroke="none"/>
    <path d="M 1036.567749023438 714.1573486328125 C 1037.109741210938 714.1573486328125 1037.942749023438 714.03173828125 1038.91455078125 712.9454345703125 L 1038.942016601562 712.9153442382812 L 1092.068115234375 655.9046630859375 C 1092.734252929688 655.1541137695312 1093.03564453125 654.3283081054688 1092.9892578125 653.376708984375 C 1092.945068359375 652.430908203125 1092.567016601562 651.666748046875 1091.79833984375 650.970703125 C 1091.714111328125 650.8943481445312 1091.619018554688 650.812744140625 1091.306762695312 650.586669921875 L 1091.280517578125 650.5672607421875 C 1090.857177734375 650.25 1090.233764648438 650.0679931640625 1089.570068359375 650.0679931640625 C 1089.499145507812 650.0679931640625 1089.427001953125 650.070068359375 1089.354248046875 650.0742797851562 C 1088.400146484375 650.128662109375 1087.638793945312 650.5079345703125 1086.958374023438 651.2679443359375 L 1086.92529296875 651.303955078125 L 1039.797607421875 701.4252319335938 L 1039.804565429688 677.92626953125 C 1039.7939453125 676.9390258789062 1039.476196289062 676.166259765625 1038.804931640625 675.4949340820312 C 1038.105346679688 674.7952880859375 1037.340576171875 674.4693603515625 1036.398315429688 674.4693603515625 L 1036.337890625 674.4697875976562 L 1036.31201171875 674.4692993164062 C 1035.378784179688 674.45263671875 1034.626953125 674.7659912109375 1033.94384765625 675.4588012695312 C 1033.256103515625 676.1547241210938 1032.9306640625 676.9497680664062 1032.919921875 677.9603881835938 L 1032.936401367188 710.63330078125 C 1032.928100585938 712.2994384765625 1033.574462890625 713.2611083984375 1035.098388671875 713.8491821289062 C 1035.627685546875 714.0536499023438 1036.121948242188 714.1572875976562 1036.567504882812 714.1573486328125 L 1036.567749023438 714.1573486328125 M 1036.5673828125 716.1573486328125 C 1035.872314453125 716.1572875976562 1035.141723632812 716.0099487304688 1034.377685546875 715.71484375 C 1032.074829101562 714.826171875 1030.923828125 713.1353759765625 1030.936401367188 710.623291015625 L 1030.919921875 677.9510498046875 C 1030.933349609375 676.4378662109375 1031.452880859375 675.1341552734375 1032.521362304688 674.052978515625 C 1033.588256835938 672.9711303710938 1034.855834960938 672.4461059570312 1036.346069335938 672.4696044921875 C 1036.363525390625 672.469482421875 1036.380859375 672.4693603515625 1036.398315429688 672.4693603515625 C 1037.878051757812 672.4693603515625 1039.157470703125 673.0188598632812 1040.21923828125 674.080810546875 C 1041.26806640625 675.1297607421875 1041.790893554688 676.4041748046875 1041.804565429688 677.916259765625 L 1041.799072265625 696.376953125 L 1085.46826171875 649.9338989257812 C 1086.4814453125 648.80224609375 1087.734252929688 648.163330078125 1089.240478515625 648.0775146484375 C 1090.525268554688 648.0031127929688 1091.6796875 648.3670043945312 1092.47998046875 648.9668579101562 C 1092.835083007812 649.2240600585938 1092.990478515625 649.3519287109375 1093.141845703125 649.4891967773438 C 1094.266723632812 650.5076293945312 1094.916259765625 651.7666015625 1094.987060546875 653.283447265625 C 1095.060424804688 654.787353515625 1094.553344726562 656.126220703125 1093.546630859375 657.251708984375 L 1040.405151367188 714.27880859375 C 1039.286010742188 715.5299072265625 1038.002075195312 716.1574096679688 1036.5673828125 716.1573486328125 Z" stroke="none" fill="#fff"/>
  </g>
</svg>
