<svg xmlns="http://www.w3.org/2000/svg" xmlns:xlink="http://www.w3.org/1999/xlink" width="174.69" height="176.948" viewBox="0 0 174.69 176.948">
  <defs>
    <filter id="Rectangle_648" x="0" y="0" width="174.69" height="176.948" filterUnits="userSpaceOnUse">
      <feOffset dx="7" dy="7" input="SourceAlpha"/>
      <feGaussianBlur stdDeviation="10" result="blur"/>
      <feFlood flood-opacity="0.22"/>
      <feComposite operator="in" in2="blur"/>
      <feComposite in="SourceGraphic"/>
    </filter>
    <clipPath id="clip-path">
      <rect id="Rectangle_719" data-name="Rectangle 719" width="75.394" height="77.964" fill="#183573" stroke="#183573" stroke-width="2"/>
    </clipPath>
  </defs>
  <g id="Group_1632" data-name="Group 1632" transform="translate(23 23)">
    <g id="Group_1357" data-name="Group 1357" transform="translate(0 0)">
      <g transform="matrix(1, 0, 0, 1, -23, -23)" filter="url(#Rectangle_648)">
        <g id="Rectangle_648-2" data-name="Rectangle 648" transform="translate(23 23)" fill="#fff" stroke="#fff" stroke-width="3">
          <rect width="114.69" height="116.948" rx="57.345" stroke="none"/>
          <rect x="1.5" y="1.5" width="111.69" height="113.948" rx="55.845" fill="none"/>
        </g>
      </g>
    </g>
    <g id="Group_1628" data-name="Group 1628" transform="translate(16.154 21.094)">
      <g id="Group_1627" data-name="Group 1627" transform="translate(0 0)" clip-path="url(#clip-path)">
        <path id="Path_1462" data-name="Path 1462" d="M52.59,69c-.985-.163-1.976-.3-2.954-.494a42.338,42.338,0,0,1-14.549-6.321,94.882,94.882,0,0,1-15.722-13.1A99.2,99.2,0,0,1,8.427,36.248,47.7,47.7,0,0,1,1.191,22.005C.7,20.272.478,18.46.13,16.684.1,16.511.044,16.342,0,16.172V12.533c.092-.549.2-1.1.275-1.649C.651,8.278,1.6,5.936,3.886,4.478,6.384,2.886,9,1.484,11.567,0h1.614a6.158,6.158,0,0,1,3.338,2.926C19.232,7.071,22,11.183,24.742,15.307q2.392,3.594-1.025,6.281c-1.464,1.148-2.935,2.288-4.4,3.437-1.187.931-1.3,1.6-.6,2.956A44.424,44.424,0,0,0,26.1,38.039a70.86,70.86,0,0,0,9.737,8.968c1.737,1.255,3.615,2.319,5.465,3.407a1.69,1.69,0,0,0,2.421-.551c1.261-1.6,2.505-3.223,3.759-4.833a4.086,4.086,0,0,1,5.874-.969q6.746,4.48,13.469,8.994a4.1,4.1,0,0,1,1.322,5.91c-1.005,1.7-2.078,3.355-3.033,5.079A9,9,0,0,1,58,68.724c-.549.075-1.093.183-1.64.275Zm1.126-2.235c1.291-.109,2.587-.177,3.872-.336A6.83,6.83,0,0,0,63.1,62.864c.9-1.628,1.9-3.2,2.855-4.793.909-1.519.744-2.284-.707-3.253L52.347,46.191c-1.446-.966-2.183-.846-3.245.527-1.167,1.507-2.326,3.021-3.5,4.52A4.066,4.066,0,0,1,40,52.386c-1.039-.571-2.078-1.147-3.084-1.774A56.945,56.945,0,0,1,27.074,42.4c-4.034-4.012-7.8-8.234-10.436-13.353-1.2-2.335-.845-4.243,1.237-5.856,1.542-1.194,3.086-2.385,4.613-3.6a1.784,1.784,0,0,0,.494-2.7Q18.456,10.049,13.9,3.227a1.776,1.776,0,0,0-2.576-.556q-2.8,1.664-5.584,3.356a6.206,6.206,0,0,0-2.929,4.08,22.365,22.365,0,0,0,.886,12.242,47.553,47.553,0,0,0,6.732,12.719,105.168,105.168,0,0,0,14.3,15.957A71.7,71.7,0,0,0,41.9,63.39a31.532,31.532,0,0,0,11.812,3.374" transform="translate(4.075 4.89)" fill="#183573" stroke="#183573" stroke-width="2"/>
        <path id="Path_1464" data-name="Path 1464" d="M247.843,75.608c0,.158,0,.427,0,.7a1.142,1.142,0,0,1-1.1,1.265,1.189,1.189,0,0,1-1.2-1.191c-.124-1.248-.167-2.512-.405-3.738a19.088,19.088,0,0,0-6.95-11.473,18.691,18.691,0,0,0-8.175-3.845c-1-.2-2.036-.258-3.056-.374-.311-.035-.628-.024-.936-.076a1.129,1.129,0,0,1-1.1-1.261,1.152,1.152,0,0,1,1.319-1.05,30.473,30.473,0,0,1,3.337.317,21.868,21.868,0,0,1,18.265,20.73" transform="translate(-179.604 -45.165)" fill="#183573" stroke="#183573" stroke-width="2"/>
        <path id="Path_1465" data-name="Path 1465" d="M226.893,95.7a14.88,14.88,0,0,1,13.7,11.739,19.79,19.79,0,0,1,.321,3.066,1.113,1.113,0,0,1-1.108,1.249,1.133,1.133,0,0,1-1.166-1.207,12.794,12.794,0,0,0-2.716-7.718,12.316,12.316,0,0,0-9.357-4.819c-1.153-.057-1.732-.462-1.692-1.266s.661-1.164,1.814-1.06l.2.017" transform="translate(-179.571 -79.351)" fill="#183573" stroke="#183573" stroke-width="2"/>
        <path id="Path_1466" data-name="Path 1466" d="M226.523,136.317a8.171,8.171,0,0,1,7.548,7.426,4.544,4.544,0,0,1,.013.606,1.178,1.178,0,0,1-1.113,1.207,1.094,1.094,0,0,1-1.167-1.051,6.833,6.833,0,0,0-1.11-3.4,5.759,5.759,0,0,0-4.514-2.419,1.165,1.165,0,0,1-1.238-.917,1.023,1.023,0,0,1,.55-1.245,4.124,4.124,0,0,1,1.03-.2" transform="translate(-179.597 -113.152)" fill="#183573" stroke="#183573" stroke-width="2"/>
      </g>
    </g>
  </g>
</svg>
