<svg id="Group_1634" data-name="Group 1634" xmlns="http://www.w3.org/2000/svg" width="112.68" height="112.785" viewBox="0 0 112.68 112.785">
  <g id="Group_1626" data-name="Group 1626">
    <g id="Rectangle_646" data-name="Rectangle 646" fill="none" stroke="#fff" stroke-width="3">
      <rect width="112.68" height="112.785" rx="56.34" stroke="none"/>
      <rect x="1.5" y="1.5" width="109.68" height="109.785" rx="54.84" fill="none"/>
    </g>
  </g>
  <g id="Group_1636" data-name="Group 1636" transform="translate(12.035 12.039)" style="isolation: isolate">
    <g id="Group_1637" data-name="Group 1637" transform="translate(0 0)">
      <path id="Path_1470" data-name="Path 1470" d="M140.331,93.983c0-3.846-.029-7.693.012-11.539a2.441,2.441,0,0,1,3.5-2.368,2.549,2.549,0,0,1,1.427,2.545c-.016,3.181,0,6.362,0,9.543,0,3.846.02,7.693-.017,11.539a2.336,2.336,0,0,0,.768,1.835q12.579,12.53,25.122,25.1c1.329,1.329,1.539,2.348.761,3.518a2.336,2.336,0,0,1-3.466.647,8.468,8.468,0,0,1-.983-.893q-12.872-12.864-25.753-25.72a4.262,4.262,0,0,1-1.394-3.329c.07-3.624.024-7.249.024-10.873Z" transform="translate(-98.309 -61.302)" fill="#fff" stroke="rgba(0,0,0,0)" stroke-width="1"/>
      <path id="Path_1471" data-name="Path 1471" d="M145.417,34.968c-.1,2.292-1.373,3.517-3.242,3.049-1.172-.293-1.789-1.252-1.809-2.813-.022-1.738.553-2.793,1.708-3.131a2.4,2.4,0,0,1,2.859,1.114,8.667,8.667,0,0,1,.484,1.781" transform="translate(-98.347 -31.963)" fill="#fff" stroke="rgba(0,0,0,0)" stroke-width="1"/>
      <path id="Path_1472" data-name="Path 1472" d="M34.652,145.366a2.466,2.466,0,0,1-2.629-1.4,2.321,2.321,0,0,1,.229-2.507,3.915,3.915,0,0,1,4.176-.826,2.457,2.457,0,0,1,1.393,2.919c-.3,1.228-1.3,1.824-3.17,1.816" transform="translate(-31.759 -98.423)" fill="#fff" stroke="rgba(0,0,0,0)" stroke-width="1"/>
      <path id="Path_1473" data-name="Path 1473" d="M248.864,145.368c-2.193-.007-3.382-1.261-2.94-3.1.362-1.508,2-2.213,4.116-1.776a2.427,2.427,0,0,1,1.878,2.828c-.193,1.356-1.236,2.055-3.054,2.05" transform="translate(-163.01 -98.424)" fill="#fff" stroke="rgba(0,0,0,0)" stroke-width="1"/>
      <path id="Path_1474" data-name="Path 1474" d="M145.212,249.084c0,2.168-1.136,3.316-2.97,3-1.569-.267-2.341-1.93-1.913-4.121a2.442,2.442,0,0,1,3.016-1.866c1.258.288,1.866,1.261,1.866,2.983" transform="translate(-98.254 -163.211)" fill="#fff" stroke="rgba(0,0,0,0)" stroke-width="1"/>
      <path id="Path_1475" data-name="Path 1475" d="M66.177,63.812c1.383.04,3.327,2.045,3.3,3.4a2.617,2.617,0,0,1-2.528,2.43c-1.4-.037-3.353-2.028-3.316-3.379a2.7,2.7,0,0,1,2.543-2.456" transform="translate(-51.301 -51.489)" fill="#fff" stroke="rgba(0,0,0,0)" stroke-width="1"/>
      <path id="Path_1476" data-name="Path 1476" d="M220.612,66.3c.007,1.362-1.974,3.339-3.354,3.349a2.629,2.629,0,0,1-2.492-2.47A4.246,4.246,0,0,1,218.1,63.8a2.714,2.714,0,0,1,2.512,2.495" transform="translate(-143.963 -51.484)" fill="#fff" stroke="rgba(0,0,0,0)" stroke-width="1"/>
      <path id="Path_1477" data-name="Path 1477" d="M69.466,217.426c-.022,1.388-2.006,3.357-3.363,3.337a2.7,2.7,0,0,1-2.478-2.525,4.251,4.251,0,0,1,3.388-3.32,2.63,2.63,0,0,1,2.453,2.509" transform="translate(-51.296 -144.135)" fill="#fff" stroke="rgba(0,0,0,0)" stroke-width="1"/>
    </g>
  </g>
</svg>
