<svg xmlns="http://www.w3.org/2000/svg" width="179.978" height="40.399" viewBox="0 0 179.978 40.399">
  <g id="Group_1290" data-name="Group 1290" transform="translate(-958.107 -652.491)">
    <path id="Path_1082" data-name="Path 1082" d="M1049.583,706.822a2.161,2.161,0,0,1-.824-.156,2.229,2.229,0,0,1-.707-.469l-.006-.006a2.273,2.273,0,0,1-.467-.712,2.219,2.219,0,0,1-.159-.839V686.659l-8.719,8.093h0a2.237,2.237,0,0,1-.681.433,2.114,2.114,0,0,1-2.262-.435h0l-8.726-8.094V704.64a2.16,2.16,0,0,1-.625,1.552l0,0a2.166,2.166,0,0,1-.7.469h0a2.184,2.184,0,0,1-.83.158,2.157,2.157,0,0,1-1.552-.625l-.006-.006a2.267,2.267,0,0,1-.466-.712,2.208,2.208,0,0,1-.159-.839V681.687a2.026,2.026,0,0,1,1.3-1.992h0a2.2,2.2,0,0,1,1.243-.18,2.138,2.138,0,0,1,1.107.573h0l10.888,10.121,10.889-10.121h0a2.166,2.166,0,0,1,1.108-.572,2.221,2.221,0,0,1,1.248.18h0a2.124,2.124,0,0,1,.968.783,2.176,2.176,0,0,1,.325,1.209V704.64a2.178,2.178,0,0,1-.178.841,2.156,2.156,0,0,1-.469.712h-.016a2,2,0,0,1-.679.471h0a2.2,2.2,0,0,1-.84.157Zm56.564-27.156a2.133,2.133,0,0,1,.837-.163,2.1,2.1,0,0,1,.827.163,2.217,2.217,0,0,1,.706.485h0a2.061,2.061,0,0,1,.471.7,2.2,2.2,0,0,1,.159.84V704.64a2.183,2.183,0,0,1-.351,1.262,2.086,2.086,0,0,1-1.04.768h0a2.091,2.091,0,0,1-.772.153,2.18,2.18,0,0,1-.89-.179,2.143,2.143,0,0,1-.731-.537h0l-7.95-8.834v0a2.226,2.226,0,0,1-.438-.729h0a2.182,2.182,0,0,1-.12-.846,2.071,2.071,0,0,1,.716-1.492h0a2.164,2.164,0,0,1,.731-.442,2.192,2.192,0,0,1,.845-.117h0a2.12,2.12,0,0,1,.809.211,2.273,2.273,0,0,1,.678.517h0L1104.8,699V681.687a2.147,2.147,0,0,1,.164-.843,2.063,2.063,0,0,1,.485-.692,2.106,2.106,0,0,1,.7-.485Zm-49.887,22.967a2.22,2.22,0,0,1,.839-.157h21.2a2.151,2.151,0,0,1,.824.157,2.215,2.215,0,0,1,.707.469l.005.005a2.235,2.235,0,0,1,.469.707,2.156,2.156,0,0,1,.157.825,2.163,2.163,0,0,1-.626,1.552l-.005,0a2.228,2.228,0,0,1-.707.469,2.162,2.162,0,0,1-.824.156h-21.2a2.155,2.155,0,0,1-1.552-.625l-.006-.006a2.28,2.28,0,0,1-.466-.712,2.217,2.217,0,0,1-.158-.839,2.141,2.141,0,0,1,.159-.825,2.285,2.285,0,0,1,.465-.706l.006-.006a2.2,2.2,0,0,1,.713-.469Zm22.862-18.944a2.153,2.153,0,0,1-.825.159h-21.2a2.208,2.208,0,0,1-.839-.159,2.281,2.281,0,0,1-.712-.466l0,0a2.119,2.119,0,0,1-.627-1.533,2.2,2.2,0,0,1,.158-.835h0a2.112,2.112,0,0,1,.469-.7,2.205,2.205,0,0,1,.714-.486,2.169,2.169,0,0,1,.841-.162h21.2a2.1,2.1,0,0,1,.827.163,2.214,2.214,0,0,1,.707.485h0a2.072,2.072,0,0,1,.471.7,2.307,2.307,0,0,1,0,1.675,2.112,2.112,0,0,1-.473.7l0,0a2.3,2.3,0,0,1-.706.466Zm-22.864,7.463a2.161,2.161,0,0,1,.841-.162h21.2a2.093,2.093,0,0,1,.827.163,2.209,2.209,0,0,1,.707.485h0a2.07,2.07,0,0,1,.471.7,2.209,2.209,0,0,1,.158.84,2.159,2.159,0,0,1-.156.824,2.223,2.223,0,0,1-.47.708l0,0a2.218,2.218,0,0,1-.708.471,2.162,2.162,0,0,1-.824.156h-21.2a2.232,2.232,0,0,1-.839-.156,2.209,2.209,0,0,1-.713-.47l-.006-.006a2.291,2.291,0,0,1-.465-.706,2.155,2.155,0,0,1-.159-.825,2.2,2.2,0,0,1,.158-.835h0a2.113,2.113,0,0,1,.469-.7h0a2.212,2.212,0,0,1,.713-.486Zm30.038-11.618a2.147,2.147,0,0,1,1.093.7l7.949,8.82h0a2.22,2.22,0,0,1,.439.729h0a2.169,2.169,0,0,1,.12.846,2.133,2.133,0,0,1-.2.826,2.067,2.067,0,0,1-.517.668h0a2.112,2.112,0,0,1-.723.439,2.2,2.2,0,0,1-.851.118,2.112,2.112,0,0,1-.815-.2,2.206,2.206,0,0,1-.675-.508h0l-4.166-4.629V704.64a2.162,2.162,0,0,1-.625,1.552l0,0a2.171,2.171,0,0,1-.7.469h0a2.177,2.177,0,0,1-.83.157,2.157,2.157,0,0,1-1.552-.625l-.006-.006a2.265,2.265,0,0,1-.465-.712,2.21,2.21,0,0,1-.159-.839V681.687a2.147,2.147,0,0,1,.356-1.253,2.189,2.189,0,0,1,1.052-.782h0a2.123,2.123,0,0,1,1.284-.118Zm27.336.131a2.168,2.168,0,0,1,.841-.162h21.2a2.1,2.1,0,0,1,.827.163,2.227,2.227,0,0,1,.707.485h0a2.074,2.074,0,0,1,.471.7,2.3,2.3,0,0,1,0,1.675,2.118,2.118,0,0,1-.473.7l0,0a2.3,2.3,0,0,1-.706.466,2.155,2.155,0,0,1-.825.159h-8V704.64a2.159,2.159,0,0,1-.625,1.552l0,0a2.115,2.115,0,0,1-.7.472,2.31,2.31,0,0,1-1.669,0,2.11,2.11,0,0,1-.7-.472h0a2.205,2.205,0,0,1-.487-.713,2.177,2.177,0,0,1-.162-.841V683.849h-8.852a2.2,2.2,0,0,1-.84-.159,2.283,2.283,0,0,1-.712-.466l0,0a2.217,2.217,0,0,1-.468-2.368h0a2.121,2.121,0,0,1,.47-.7h0a2.211,2.211,0,0,1,.714-.486Zm-153.279.023a2,2,0,0,0-1.424,3.4,2,2,0,0,0,1.424.574h9.037V704.64a1.94,1.94,0,0,0,.594,1.424,2,2,0,0,0,2.807,0,1.974,1.974,0,0,0,.573-1.424V683.664h8.186a1.975,1.975,0,0,0,1.4-.574,2,2,0,0,0-1.4-3.4Zm27.725,26.948a1.925,1.925,0,0,1-1.424-.573,1.952,1.952,0,0,1-.573-1.424V681.687a1.987,1.987,0,1,1,3.975,0V704.64a1.946,1.946,0,0,1-.574,1.424,1.908,1.908,0,0,1-1.4.573Zm30.226-.548a1.927,1.927,0,0,1-1.436.543,1.95,1.95,0,0,1-1.386-.659l-9.659-10.478v-5.865l12.581,13.649a1.949,1.949,0,0,1,.544,1.436A1.912,1.912,0,0,1,1018.305,706.09Z" transform="translate(0 -14.183)" fill="#04165d" stroke="#04165d" stroke-miterlimit="22.926" stroke-width="0.5" fill-rule="evenodd"/>
    <path id="Path_1083" data-name="Path 1083" d="M1030.93,689.091a3.084,3.084,0,0,0,2.143,3.151,3.146,3.146,0,0,0,3.753-.889l29.875-33.18a3.333,3.333,0,0,0,.9-2.456,3.456,3.456,0,0,0-3.578-3.222,3.316,3.316,0,0,0-2.349,1.149l-23.978,26.63,0-11.424a3.387,3.387,0,0,0-3.4-3.371,3.148,3.148,0,0,0-2.381.98,3.335,3.335,0,0,0-1,2.412Z" transform="translate(-38.128 0)" fill="#4af3f8" fill-rule="evenodd"/>
  </g>
</svg>
