<svg xmlns="http://www.w3.org/2000/svg" width="27.045" height="29.51" viewBox="0 0 27.045 29.51">
  <g id="Group_1290" data-name="Group 1290" transform="translate(-25.388 0)">
    <path id="Path_1083" data-name="Path 1083" d="M1030.927,679.476a2.274,2.274,0,0,0,1.58,2.323,2.32,2.32,0,0,0,2.767-.655l22.026-24.463a2.457,2.457,0,0,0,.661-1.811,2.548,2.548,0,0,0-2.638-2.375,2.445,2.445,0,0,0-1.732.847l-17.678,19.634,0-8.423a2.5,2.5,0,0,0-2.506-2.485,2.321,2.321,0,0,0-1.756.722,2.459,2.459,0,0,0-.735,1.779Z" transform="translate(-1005.532 -652.491)" fill="#4af3f8" fill-rule="evenodd"/>
  </g>
</svg>
