<svg xmlns="http://www.w3.org/2000/svg" width="41.596" height="41.594" viewBox="0 0 41.596 41.594">
  <g id="Group_1319" data-name="Group 1319" transform="translate(0.5 0.5)">
    <path id="Path_1114" data-name="Path 1114" d="M2549.4,1391.919a20.3,20.3,0,1,1,14.351-5.946A20.161,20.161,0,0,1,2549.4,1391.919Z" transform="translate(-2529.098 -1351.325)" fill="#fff" stroke="rgba(0,0,0,0)" stroke-miterlimit="10" stroke-width="1"/>
    <path id="Path_1115" data-name="Path 1115" d="M2554.416,1371.2a5.441,5.441,0,1,1-5.442-5.441A5.432,5.432,0,0,1,2554.416,1371.2Zm-5.442,3.429a3.429,3.429,0,1,0-3.427-3.429,3.435,3.435,0,0,0,3.427,3.429Zm5.664-10.463a1.371,1.371,0,1,0,1.372,1.372A1.371,1.371,0,0,0,2554.637,1364.164Zm4.873,2.659c.1,1.751.1,7,0,8.75a5.877,5.877,0,0,1-6.16,6.16c-1.753.1-7,.1-8.756,0a5.876,5.876,0,0,1-6.16-6.16c-.1-1.751-.1-7,0-8.755a5.87,5.87,0,0,1,6.16-6.156c1.753-.1,7-.1,8.756,0a5.877,5.877,0,0,1,6.16,6.16Zm-1.957,4.375c0-1.521.125-4.792-.421-6.17a3.532,3.532,0,0,0-1.99-1.988c-1.373-.543-4.646-.422-6.17-.422s-4.791-.125-6.168.422a3.526,3.526,0,0,0-1.989,1.988c-.541,1.374-.42,4.648-.42,6.17s-.127,4.791.42,6.169a3.535,3.535,0,0,0,1.989,1.99c1.373.541,4.647.419,6.168.419s4.792.127,6.17-.419a3.535,3.535,0,0,0,1.99-1.99C2557.679,1376,2557.554,1372.721,2557.554,1371.2Z" transform="translate(-2528.675 -1350.902)" fill="#025787" stroke="rgba(0,0,0,0)" stroke-miterlimit="10" stroke-width="1"/>
  </g>
</svg>
