<svg xmlns="http://www.w3.org/2000/svg" width="41.595" height="41.594" viewBox="0 0 41.595 41.594">
  <g id="Group_1703" data-name="Group 1703" transform="translate(0.5 0.5)">
    <path id="Path_1116" data-name="Path 1116" d="M2473.828,1391.919a20.3,20.3,0,1,1,14.351-5.946A20.157,20.157,0,0,1,2473.828,1391.919Z" transform="translate(-2453.529 -1351.325)" fill="#fff" stroke="rgba(0,0,0,0)" stroke-miterlimit="10" stroke-width="1"/>
    <g id="Group_1705" data-name="Group 1705" transform="translate(14.164 14.361)">
      <path id="Path_1533" data-name="Path 1533" d="M135.75,133.144V121.189h3.565v1.653a1.255,1.255,0,0,0,.1-.113,3.716,3.716,0,0,1,2.709-1.785,5.273,5.273,0,0,1,2.9.309,3.381,3.381,0,0,1,1.957,2.278,7.89,7.89,0,0,1,.322,1.887c0,.08.023.158.034.238v7.488h-3.709c0-1.906.007-3.812-.006-5.717a12,12,0,0,0-.107-1.653,1.649,1.649,0,0,0-1.63-1.608,1.915,1.915,0,0,0-2.091,1.087,3.522,3.522,0,0,0-.253.955,12.021,12.021,0,0,0-.07,1.394c-.008,1.847-.006,3.695-.007,5.542Z" transform="translate(-131.558 -119.228)" fill="#015988"/>
      <path id="Path_1534" data-name="Path 1534" d="M6,139.719c0-.076.006-.151.006-.227q0-5.747,0-11.494v-.234H9.739v.216q0,5.756,0,11.511c0,.076,0,.151,0,.227Z" transform="translate(-7.862 -125.803)" fill="#015988"/>
      <path id="Path_1535" data-name="Path 1535" d="M2.484,0A6.2,6.2,0,0,1,3.1.22,2.159,2.159,0,1,1,.036,2.576.544.544,0,0,0,0,2.484V1.82a.36.36,0,0,0,.035-.075A2.075,2.075,0,0,1,1.067.3,5.623,5.623,0,0,1,1.82,0Z" transform="translate(-2.142 -4)" fill="#015988"/>
    </g>
  </g>
</svg>
