<svg xmlns="http://www.w3.org/2000/svg" width="41.595" height="41.594" viewBox="0 0 41.595 41.594">
  <g id="Group_1320" data-name="Group 1320" transform="translate(0.5 0.5)">
    <path id="Path_1116" data-name="Path 1116" d="M2473.828,1391.919a20.3,20.3,0,1,1,14.351-5.946A20.157,20.157,0,0,1,2473.828,1391.919Z" transform="translate(-2453.529 -1351.325)" fill="#fff" stroke="rgba(0,0,0,0)" stroke-miterlimit="10" stroke-width="1"/>
    <path id="Path_1117" data-name="Path 1117" d="M2481.832,1366.79c.012.188.012.376.012.566.427,6.707-4.375,12.374-12.373,12.374a12.3,12.3,0,0,1-6.679-1.952,9.182,9.182,0,0,0,1.051.053,8.878,8.878,0,0,0,5.394-2.057,4.178,4.178,0,0,1-4.062-2.817,5.49,5.49,0,0,0,.823.067,6.112,6.112,0,0,0,1.309-.269,4.371,4.371,0,0,1-3.652-4.147v-.053a5.021,5.021,0,0,0,2.128.435,4.1,4.1,0,0,1-1.509-5.7,12.361,12.361,0,0,0,8.967,4.551,4.958,4.958,0,0,1-.108-1,4.353,4.353,0,0,1,7.527-2.975,8.534,8.534,0,0,0,2.759-1.051,3.764,3.764,0,0,1-1.719,2.274,7.361,7.361,0,0,0,2.313-.551,9.378,9.378,0,0,1-2.181,2.249Z" transform="translate(-2453.105 -1350.814)" fill="#015988" stroke="rgba(0,0,0,0)" stroke-miterlimit="10" stroke-width="1"/>
  </g>
</svg>
