<svg id="Group_1560" data-name="Group 1560" xmlns="http://www.w3.org/2000/svg" xmlns:xlink="http://www.w3.org/1999/xlink" width="68.301" height="105.934" viewBox="0 0 68.301 105.934">
  <defs>
    <clipPath id="clip-path">
      <rect id="Rectangle_700" data-name="Rectangle 700" width="68.301" height="105.934" fill="#75c9db" stroke="#75c9db" stroke-width="1"/>
    </clipPath>
  </defs>
  <g id="Group_1559" data-name="Group 1559" clip-path="url(#clip-path)">
    <path id="Path_1374" data-name="Path 1374" d="M68.3,39.947a4.913,4.913,0,0,0-.283.753,12.9,12.9,0,0,1-4.812,7.716c-2.921,2.327-5.806,4.7-8.738,7.012a2.306,2.306,0,0,0-.973,2.062q.088,23.864.083,47.728a2.841,2.841,0,0,1-.076.444c-.584-2.5-1.048-4.98-1.746-7.391a52.718,52.718,0,0,0-16.41-25.494,1.483,1.483,0,0,0-2.369-.013,53.376,53.376,0,0,0-18.1,33.169c-.088-.547-.136-.756-.152-.967-.017-.227,0-.456,0-.684q.04-23.59.045-47.181a2.343,2.343,0,0,0-.834-1.54q-4.307-3.581-8.71-7.046A12.935,12.935,0,0,1,.033,37.732c.017-1.938,0-3.876,0-6.126.643.484,1.035.763,1.409,1.063Q5.6,36,9.753,39.343a3.286,3.286,0,0,0,.866.653,4.259,4.259,0,0,0,1.18.064c-.126-.347-.15-.817-.394-1.021-1.923-1.6-3.853-3.205-5.848-4.718A13.171,13.171,0,0,1,.019,22.745c.058-1.667.009-3.338.009-5.3.623.455,1.021.722,1.394,1.02Q8.937,24.5,16.445,30.53a3.5,3.5,0,0,0,.87.649,2.625,2.625,0,0,0,.96-.028,2.672,2.672,0,0,0-.234-.952,4.686,4.686,0,0,0-.929-.8c-3.87-3.109-7.7-6.265-11.623-9.31A13.3,13.3,0,0,1,.025,8.749C.077,5.833.013,2.916,0,0H.274A15.337,15.337,0,0,0,1.5,1.223Q16.926,13.629,32.384,26a2.737,2.737,0,0,1,1.169,2.4c-.047,7.335-.01,14.67-.053,22,0,.716-.475,1.421-.53,2.147a2.932,2.932,0,0,0,.356,1.909,1.66,1.66,0,0,0,1.646,0,2.924,2.924,0,0,0,.362-1.907c-.054-.726-.526-1.431-.53-2.147-.042-7.335,0-14.67-.05-22A2.738,2.738,0,0,1,35.919,26Q51.389,13.645,66.806,1.223A15.436,15.436,0,0,0,68.028,0a2.135,2.135,0,0,1,.261.684c.017,3.511.012,7.023.012,10.534A15.64,15.64,0,0,1,61.9,20.861c-3.866,2.884-7.56,6-11.3,9.054-.315.257-.4.8-.592,1.206a13.564,13.564,0,0,0,1.394-.239c.2-.054.358-.272.535-.414q7.509-6.03,15.022-12.055c.42-.336.9-.6,1.345-.9v7.935c-.831,4.68-3.8,7.807-7.494,10.435-1.33.946-2.581,2.009-3.816,3.079-.275.238-.327.733-.482,1.11a4.617,4.617,0,0,0,1.288-.164,5.157,5.157,0,0,0,1.075-.826q4.091-3.285,8.186-6.564a12.5,12.5,0,0,1,1.244-.778ZM1.416,2.836c0,2.558-.011,4.742,0,6.927a10.957,10.957,0,0,0,4.17,8.7c1.539,1.283,3.117,2.519,4.68,3.774,2.806,2.252,5.625,4.489,8.417,6.758,1.428,1.161,1.419,3.033-.095,3.494a3.139,3.139,0,0,1-2.436-.573c-4.494-3.494-8.906-7.093-13.348-10.652-.363-.29-.763-.534-1.23-.858-.652,5.337.266,9.343,4.473,12.628q3.123,2.438,6.164,4.981c1.122.936,1.292,2.1.56,2.976s-1.845.885-3.04.009c-.257-.188-.5-.4-.746-.6L1.657,34.53c-.12.174-.2.24-.212.314C.879,40.406,2.2,45.169,7.167,48.39c.227.148.418.352.631.523,2.3,1.845,4.6,3.688,7.019,5.632.16-.612.294-1.032.38-1.463a35.441,35.441,0,0,1,5.768-13.473c2.772-3.987,6.452-7.03,10.215-10,1.418-1.118,1.406-1.733-.01-2.873Q21.007,18.554,10.83,10.387C7.786,7.942,4.739,5.5,1.416,2.836M53.572,54.362a2.206,2.206,0,0,0,.4-.217c3.122-2.512,6.309-4.951,9.342-7.567,3.107-2.68,4.606-8.466,3.281-12.018q-3.694,2.963-7.36,5.9c-.32.256-.637.517-.975.748a1.916,1.916,0,1,1-2.4-2.987c2.229-1.878,4.532-3.665,6.784-5.517,3.643-3,4.9-7.038,3.994-12.215a8.069,8.069,0,0,0-.8.5q-3.47,2.771-6.928,5.556c-2.344,1.881-4.683,3.769-7.036,5.64-.783.623-1.754.908-2.466.128a3.279,3.279,0,0,1-.68-2.144c.014-.455.631-.962,1.077-1.323q6.368-5.162,12.775-10.277a9.211,9.211,0,0,0,3.752-5.553c.5-3.239.524-6.554.752-9.836l-.441-.106c-.426.318-.861.624-1.275.957-8.912,7.16-17.8,14.345-26.74,21.473-3.391,2.7-3.436,2.731.055,5.378,5.633,4.27,10.1,9.47,12.62,16.151.894,2.369,1.505,4.845,2.263,7.329M16.115,95.121A58.282,58.282,0,0,1,22.9,81.946a59.655,59.655,0,0,1,10.031-10.9L16.115,57.51ZM35.335,71.077a55.125,55.125,0,0,1,16.8,23.911V57.547l-16.8,13.53" transform="translate(-0.001)" fill="#75c9db" stroke="#75c9db" stroke-width="1"/>
  </g>
</svg>
