<svg xmlns="http://www.w3.org/2000/svg" width="93.205" height="106.284" viewBox="0 0 93.205 106.284">
  <g id="Group_1375" data-name="Group 1375" transform="translate(0.498 0.5)">
    <path id="Path_1192" data-name="Path 1192" d="M551.761,2201.878v-.446q0-17.8-.006-35.606a.878.878,0,0,1,.293-.7q9.246-8.865,18.482-17.741a.836.836,0,0,0,.287-.669q-.014-6.9-.006-13.8v-.456h.442q6.97,0,13.94,0a.767.767,0,0,0,.583-.241c1.133-1.079,2.28-2.145,3.459-3.249l5.85,5.607c-.058.07-.1.133-.158.188q-2.828,2.91-5.665,5.812a.753.753,0,0,1-.489.185c-3.07.011-6.14.008-9.211.008h-.51v.432c0,2.988-.005,5.975.007,8.963a.987.987,0,0,1-.33.793q-9.138,8.8-18.268,17.607a1.146,1.146,0,0,0-.39.913q.016,11.84.008,23.679c0,.486,0,.486.469.486q11.8,0,23.609.005a.825.825,0,0,0,.646-.268c1.356-1.372,2.725-2.731,4.085-4.1a2.2,2.2,0,0,0,.226-.329l5.9,5.487-4.2,4.555c-.813.882-1.619,1.771-2.447,2.639a.829.829,0,0,1-.538.233q-17.8.016-35.608.009Z" transform="translate(-548.892 -2113.605)" fill="#75c9db" stroke="rgba(0,0,0,0)" stroke-width="1"/>
    <path id="Path_1193" data-name="Path 1193" d="M564.56,2113.945l-5.474,5.888q-3.189-2.94-6.345-5.852c-.37-.342-.863-.638-1.05-1.065a3.918,3.918,0,0,1-.045-1.465q0-17.2,0-34.409v-.461h.4q17.858,0,35.716-.006a.762.762,0,0,1,.611.259q8.9,9.283,17.815,18.56a.765.765,0,0,0,.617.247q6.9-.009,13.8,0h.473v.424q0,6.97-.006,13.94a.767.767,0,0,0,.255.613c1.043,1,2.073,2.019,3.109,3.029.083.081.177.149.285.239l-5.786,6.034-3.91-3.8c-.675-.656-1.342-1.321-2.026-1.967a.72.72,0,0,1-.247-.581q.012-4.605.005-9.211v-.479h-.428c-2.976,0-5.953-.006-8.929.008a1.059,1.059,0,0,1-.852-.358q-8.787-9.127-17.584-18.243a1.18,1.18,0,0,0-.945-.4q-11.841.018-23.681.009c-.455,0-.455,0-.455.459q0,11.8-.006,23.61a.861.861,0,0,0,.286.673c1.356,1.339,2.7,2.691,4.049,4.037A3.807,3.807,0,0,0,564.56,2113.945Z" transform="translate(-548.78 -2076.576)" fill="#75c9db" stroke="rgba(0,0,0,0)" stroke-width="1"/>
    <path id="Path_1194" data-name="Path 1194" d="M669.333,2229.847l3.8,3.5c1.133,1.044,2.262,2.093,3.4,3.129a.662.662,0,0,1,.235.545q-.007,17.84-.005,35.677c0,.115-.01.229-.016.383h-.4q-17.84,0-35.679.006a.839.839,0,0,1-.672-.282q-8.89-9.271-17.8-18.523a.836.836,0,0,0-.55-.209q-6.917-.017-13.834-.009h-.445c-.008-.159-.019-.285-.019-.411q0-6.988.005-13.975a.771.771,0,0,0-.265-.611c-1.126-1.085-2.241-2.181-3.373-3.285l5.764-6.009c.511.495,1,.966,1.489,1.44,1.475,1.436,2.945,2.877,4.427,4.3a.849.849,0,0,1,.275.679q-.013,4.552-.006,9.1v.528h.46c3.023,0,6.046,0,9.07-.006a.762.762,0,0,1,.609.263q8.84,9.173,17.683,18.342a1.034,1.034,0,0,0,.825.343q11.858-.014,23.715-.007h.492v-.412q0-11.84.006-23.68a.785.785,0,0,0-.261-.613c-1.362-1.35-2.714-2.709-4.073-4.062a3.061,3.061,0,0,0-.339-.25Z" transform="translate(-585.615 -2184.841)" fill="#75c9db" stroke="rgba(0,0,0,0)" stroke-width="1"/>
    <path id="Path_1195" data-name="Path 1195" d="M739.856,2084.824h-.437q-11.823,0-23.645-.006a.823.823,0,0,0-.645.268c-1.356,1.372-2.724,2.733-4.088,4.1-.082.082-.168.158-.272.256l-5.836-5.424c.73-.793,1.445-1.572,2.161-2.349q2.237-2.426,4.47-4.854a.665.665,0,0,1,.546-.234q17.84.007,35.68,0h.381v.411q0,17.857,0,35.714a.763.763,0,0,1-.259.61q-9.246,8.866-18.485,17.74a.955.955,0,0,0-.316.766q.016,6.847.007,13.693V2146h-.462q-6.935,0-13.87,0a.811.811,0,0,0-.646.265c-1.076,1.119-2.166,2.225-3.283,3.367l-6.106-5.852c.454-.406.915-.777,1.327-1.195q2.256-2.285,4.481-4.6a.88.88,0,0,1,.7-.3c3.07.011,6.141,0,9.211.014.343,0,.431-.1.43-.433-.013-3.023,0-6.046-.014-9.07a.808.808,0,0,1,.277-.642q9.173-8.841,18.341-17.687a1.032,1.032,0,0,0,.353-.819q-.015-11.875-.008-23.75Z" transform="translate(-657.023 -2076.577)" fill="#75c9db" stroke="rgba(0,0,0,0)" stroke-width="1"/>
    <path id="Path_1196" data-name="Path 1196" d="M673.754,2205.363a6.262,6.262,0,0,1,1.736-4.818,4.283,4.283,0,0,1,3.718-1.481,6.186,6.186,0,0,1,1.7.52,3.645,3.645,0,0,0,3.229-.012c2.846-1.421,5.209.182,6.351,2.209a6.84,6.84,0,0,1,.831,3.126,13,13,0,0,1-1.607,6.622,7.12,7.12,0,0,1-2.791,2.871,3.3,3.3,0,0,1-2.366.269,10.108,10.108,0,0,0-4.049.007,4.011,4.011,0,0,1-3.751-1.3,9.7,9.7,0,0,1-2.281-3.836A10.635,10.635,0,0,1,673.754,2205.363Z" transform="translate(-635.105 -2163.119)" fill="#75c9db" stroke="rgba(0,0,0,0)" stroke-width="1"/>
    <path id="Path_1197" data-name="Path 1197" d="M681.219,2236.031a29.17,29.17,0,0,0,4.058-4.65,4.006,4.006,0,0,0,.417-.888.656.656,0,0,0-.553-.96,6.193,6.193,0,0,0-.994-.009c.146-1.055.291-2.095.433-3.135a4.574,4.574,0,0,1,.12-.869,1.77,1.77,0,0,1,.448-.712c.2-.185.385-.076.445.2.038.168.073.338.115.529.085-.027.148-.05.213-.068.367-.1.443-.052.461.326.067,1.48.141,2.959.187,4.439a2.023,2.023,0,0,1-.167.844c-.371.849-.754,1.694-1.185,2.513a4.781,4.781,0,0,1-.814,1.094,14.315,14.315,0,0,1-3.521,2.8,12.6,12.6,0,0,1-7.255,1.575,12.855,12.855,0,0,1-7.389-3.224c-.527-.469-1.037-.958-1.522-1.469a3.32,3.32,0,0,1-.537-.819c-.4-.8-.749-1.617-1.149-2.413a3.477,3.477,0,0,1-.132-1.733c.019-1.116.088-2.232.12-3.348.019-.674.044-.7.7-.522.035-.172.063-.343.1-.512.07-.289.259-.388.475-.189a1.326,1.326,0,0,1,.425.685c.207,1.284.366,2.575.54,3.865a.316.316,0,0,1-.01.1,8.836,8.836,0,0,0-1.024.068.588.588,0,0,0-.522.8,3.108,3.108,0,0,0,.473,1.083c.862,1.114,1.761,2.2,2.667,3.28.4.471.842.9,1.265,1.346l.1-.073a12.6,12.6,0,0,0-.729-1.215c-.687-.909-1.422-1.78-2.113-2.686a16.154,16.154,0,0,1-.93-1.412c-.246-.405-.109-.644.363-.681a1.755,1.755,0,0,1,1.489.581c.347.381.626.825.98,1.2a14.544,14.544,0,0,0,1.58,1.489c.226.175.623.129.942.187.61.109,1.223.207,1.829.334a3.216,3.216,0,0,1,1.8,1.168c.446.529.859,1.086,1.3,1.651l.171-.23c.28-.377.562-.754.84-1.133a4.416,4.416,0,0,1,3.3-1.72c.443-.048.887-.092,1.33-.144a.354.354,0,0,0,.191-.073c.523-.485,1.062-.955,1.553-1.47.379-.4.679-.87,1.049-1.278a1.713,1.713,0,0,1,1.426-.561c.514.029.651.273.385.713a22.4,22.4,0,0,1-2.279,3.085,18.465,18.465,0,0,0-1.294,1.883A2.571,2.571,0,0,0,681.219,2236.031Z" transform="translate(-627.406 -2181.271)" fill="#75c9db" stroke="rgba(0,0,0,0)" stroke-width="1"/>
    <path id="Path_1198" data-name="Path 1198" d="M586.974,2413.075a1.255,1.255,0,0,1,.132.291,1.8,1.8,0,0,0,1.6,1.467,12.582,12.582,0,0,0,3.455.221c.856-.039,1.713-.062,2.567-.126a21.083,21.083,0,0,0,5.874-1.128,3.4,3.4,0,0,0,1.282-.787.966.966,0,0,1,.129-.089l.03.423a2.5,2.5,0,0,0,1.153-.2,9.153,9.153,0,0,0,1.19-.616,1.817,1.817,0,0,0,.535-.553c.52-.816,1.017-1.646,1.514-2.476.082-.136.174-.159.267-.052a2.292,2.292,0,0,1,.673,1.556,1.111,1.111,0,0,1-1.431.964.492.492,0,0,0-.538.222c-.489.612-.988,1.215-1.49,1.816a.927.927,0,0,1-1.1.355c-.325-.116-.659-.213-.992-.3a.294.294,0,0,0-.253.047,7.446,7.446,0,0,1-4.524,2.544,25.1,25.1,0,0,1-3.973.628,21.975,21.975,0,0,1-3.618.04,6.464,6.464,0,0,1-1.81-.373,1.409,1.409,0,0,1-.957-1.214,8.514,8.514,0,0,1,.055-2.267,1.725,1.725,0,0,1,.151-.39Z" transform="translate(-562.249 -2314.631)" fill="#75c9db" stroke="rgba(0,0,0,0)" stroke-width="1"/>
    <path id="Path_1199" data-name="Path 1199" d="M693.193,2396.049a1.711,1.711,0,0,1,.044.319c-.05,1.068-.1,2.135-.163,3.2-.032.57-.07,1.14-.126,1.707a6.746,6.746,0,0,1-.886,2.916.587.587,0,0,0-.046.085c-.005.013,0,.031.006.071a1.649,1.649,0,0,0,1.249-.224,2.656,2.656,0,0,0,1.245-2.188c.024-1.181-.05-2.364-.032-3.546a7.514,7.514,0,0,1,1.083-3.66.19.19,0,0,1,.134-.083c-.022.275-.05.55-.065.825-.065,1.213-.144,2.425-.183,3.639a8.486,8.486,0,0,0,.082,1.632,1.242,1.242,0,0,0,1.565,1.016,1.971,1.971,0,0,0,1.022-.587,1.05,1.05,0,0,1,.852-.334c.54.029.7-.1.922-.614.035-.081.064-.165.095-.244.489.01.567-.045.755-.519a3.226,3.226,0,0,1,.227-.478.9.9,0,0,1,.016.75,7.3,7.3,0,0,1-.575,1.145c-.111.17-.365.245-.552.366a1.014,1.014,0,0,0-.222.167c-.117.135-.216.286-.328.426a.562.562,0,0,1-.61.214.677.677,0,0,0-.689.208c-.278.286-.541.588-.8.888a1.483,1.483,0,0,1-1.646.571,3.048,3.048,0,0,1-.643-.392c-.189.347-.374.749-.615,1.111a4.34,4.34,0,0,1-.714.829,1.27,1.27,0,0,1-1.845-.015c-.025-.021-.051-.042-.074-.064-.412-.388-.433-.468-.1-.915a2.873,2.873,0,0,0,.543-1.717c.018-.685.009-1.372-.006-2.057a9.816,9.816,0,0,1,.43-2.616c.135-.535.309-1.061.471-1.589a2.145,2.145,0,0,1,.113-.253Z" transform="translate(-645.64 -2302.896)" fill="#75c9db" stroke="rgba(0,0,0,0)" stroke-width="1"/>
    <path id="Path_1200" data-name="Path 1200" d="M802.95,2406.355c-.02.189-.041.378-.06.567-.081.811-.137,1.625-.248,2.431a11.344,11.344,0,0,1-1.929,5.463,5.747,5.747,0,0,1-3.27,2.346,3.964,3.964,0,0,1-2.336-.052,2.468,2.468,0,0,1-1.667-2.183,6.742,6.742,0,0,1,.585-3.5c.378-.9.854-1.755,1.294-2.627a1.794,1.794,0,0,1,.241-.3l.109.053a3.511,3.511,0,0,1-.158.553,16.424,16.424,0,0,0-1.168,2.97,2.843,2.843,0,0,0,0,1.427,1.925,1.925,0,0,0,1.784,1.438,4.986,4.986,0,0,0,5.247-2.712,3,3,0,0,0,.351-1.36c.028-.6.023-1.208.059-1.812a4.829,4.829,0,0,1,.719-2.132c.117-.2.238-.4.357-.6Z" transform="translate(-726.917 -2312.196)" fill="#75c9db" stroke="rgba(0,0,0,0)" stroke-width="1"/>
    <path id="Path_1201" data-name="Path 1201" d="M469.15,2405.22a5.658,5.658,0,0,1-.16.56c-.371.936-.767,1.863-1.12,2.805a2.569,2.569,0,0,0-.068,1.519,1.871,1.871,0,0,0,1.642,1.468,4.825,4.825,0,0,0,4.852-1.848,3.511,3.511,0,0,0,.883-1.925,16.067,16.067,0,0,0,.06-1.614,5.565,5.565,0,0,1,1.038-3.1c.02-.032.055-.054.147-.066-.024.242-.048.484-.072.726-.063.648-.112,1.3-.191,1.946a11.667,11.667,0,0,1-1.974,5.8,5.714,5.714,0,0,1-3.319,2.352,3.9,3.9,0,0,1-2.238-.051,2.521,2.521,0,0,1-1.726-2.322,8.063,8.063,0,0,1,.872-4.034c.308-.673.676-1.318,1.024-1.971a2.239,2.239,0,0,1,.224-.3Z" transform="translate(-466.886 -2309.563)" fill="#75c9db" stroke="rgba(0,0,0,0)" stroke-width="1"/>
    <path id="Path_1202" data-name="Path 1202" d="M743.173,2415.7c0,.09.031.2-.005.268a14.384,14.384,0,0,1-.776,1.429.773.773,0,0,1-1.1.226.8.8,0,0,0-1.094.448.512.512,0,0,0,.1.392,3.776,3.776,0,0,0,.487.479.464.464,0,0,1,.134.631,2.972,2.972,0,0,1-.529.655.693.693,0,0,1-.458.067c-.225-.017-.446-.095-.671-.113a.666.666,0,0,0-.58.256c-.316.374-.64.741-.966,1.106a2.068,2.068,0,0,1-1.666.831,1.829,1.829,0,0,1-.608-.158,1.352,1.352,0,0,0-1.244.053c-.264.145-.513.315-.779.456a1.133,1.133,0,0,1-.332.061c.021-.121,0-.27.069-.358a7.644,7.644,0,0,1,2.141-2.017,2.229,2.229,0,0,1,.286-.137,1.173,1.173,0,0,1,.948-.038,1.636,1.636,0,0,0,2.016-.588,5.253,5.253,0,0,0,.932-1.419,3.615,3.615,0,0,1,1.247-1.6,1.217,1.217,0,0,1,1.221-.174c.333.132.513.054.769-.281.126-.165.246-.334.368-.5Z" transform="translate(-678.884 -2319.639)" fill="#75c9db" stroke="rgba(0,0,0,0)" stroke-width="1"/>
    <path id="Path_1203" data-name="Path 1203" d="M889.493,2406.161c-.058.382-.124.764-.173,1.147-.147,1.138-.31,2.275-.422,3.417a15.316,15.316,0,0,0-.048,1.975,1.247,1.247,0,0,0,.94,1.2,1.673,1.673,0,0,0,1.368-.3,1.294,1.294,0,0,0,.187-.158,1.24,1.24,0,0,1,1.174-.451.555.555,0,0,0,.567-.312c.1-.175.181-.362.271-.545.435.024.549-.048.723-.472.062-.15.119-.3.182-.453.012-.028.04-.049.116-.071a3.126,3.126,0,0,1-.008.645,2.617,2.617,0,0,1-.606,1.262,2.777,2.777,0,0,1-.494.338,2.077,2.077,0,0,0-.315.231,3.324,3.324,0,0,0-.269.348.6.6,0,0,1-.648.238.679.679,0,0,0-.668.2c-.266.276-.519.564-.773.851a1.689,1.689,0,0,1-1.049.665,1.307,1.307,0,0,1-1.53-1.167,7.3,7.3,0,0,1-.026-2.386c.124-1.092.3-2.178.412-3.271a9.7,9.7,0,0,1,1.012-2.952Z" transform="translate(-802.183 -2312.053)" fill="#75c9db" stroke="rgba(0,0,0,0)" stroke-width="1"/>
    <path id="Path_1204" data-name="Path 1204" d="M846.925,2412.744a.754.754,0,0,1,.6.816,3.55,3.55,0,0,1-.647,2.017,1.106,1.106,0,0,1-1.93-.02,1.9,1.9,0,0,1-.345-1.027,15.509,15.509,0,0,1,.176-2.948c.133-.983.256-1.969.419-2.947a5.188,5.188,0,0,1,.341-1.038c.169-.425.367-.838.553-1.257l.076.021c-.028.186-.058.371-.083.557-.139,1.007-.3,2.012-.41,3.022-.093.817-.153,1.638-.188,2.459a2.951,2.951,0,0,0,.141.909.928.928,0,0,0,.3.428c.31.253.494.19.638-.174.1-.25.2-.5.307-.744A.506.506,0,0,1,846.925,2412.744Z" transform="translate(-767.684 -2312.208)" fill="#75c9db" stroke="rgba(0,0,0,0)" stroke-width="1"/>
    <path id="Path_1205" data-name="Path 1205" d="M707.142,2180.171c.494,2.73-.672,5.209-3.96,6.154a4.977,4.977,0,0,1,.48-3.918A4.282,4.282,0,0,1,707.142,2180.171Z" transform="translate(-655.767 -2149.789)" fill="#75c9db" stroke="rgba(0,0,0,0)" stroke-width="1"/>
    <path id="Path_1206" data-name="Path 1206" d="M533.564,2412.718a.948.948,0,0,1,0,.234,5.718,5.718,0,0,1-.793,1.929,2.414,2.414,0,0,1-.605.508c-.33.221-.692.4-1.018.624a1.9,1.9,0,0,0-.676.936c-.172.465-.367.922-.566,1.376a2.093,2.093,0,0,1-1.6,1.261c-.438.086-.882.141-1.326.193-.08.009-.169-.06-.254-.094a.822.822,0,0,1,.13-.242,4.121,4.121,0,0,1,.45-.336c.487-.328.976-.653,1.465-.978a3.687,3.687,0,0,0,1.483-1.889c.1-.276.227-.54.338-.811a1.994,1.994,0,0,1,1.05-1.113,3.939,3.939,0,0,0,1.738-1.45,1.141,1.141,0,0,1,.11-.131C533.492,2412.726,533.513,2412.729,533.564,2412.718Z" transform="translate(-514.537 -2317.288)" fill="#75c9db" stroke="rgba(0,0,0,0)" stroke-width="1"/>
    <path id="Path_1207" data-name="Path 1207" d="M521.891,2403.693c0,.16,0,.319,0,.479q-.067,1.907-.138,3.814a8.343,8.343,0,0,1-.813,3.045c-.1.223-.206.443-.324.656a1.953,1.953,0,0,1-.22.273l-.075-.024a1.158,1.158,0,0,1,0-.231,18.64,18.64,0,0,0,.511-4.478,3.7,3.7,0,0,1,.2-1.368c.221-.628.427-1.262.644-1.892a2.689,2.689,0,0,1,.143-.3Z" transform="translate(-509.436 -2310.084)" fill="#75c9db" stroke="rgba(0,0,0,0)" stroke-width="1"/>
    <path id="Path_1208" data-name="Path 1208" d="M569.586,2411.939a1.294,1.294,0,0,1,0-.21c.154-.93.337-1.856.458-2.791a13.061,13.061,0,0,0,.065-1.71,3.824,3.824,0,0,1,.194-1.342c.229-.634.431-1.277.649-1.916a2.887,2.887,0,0,1,.128-.279l.065.005a1.416,1.416,0,0,1,.03.234c-.045,1.321-.1,2.641-.14,3.962a8.186,8.186,0,0,1-.758,3.008q-.175.4-.381.791a1.929,1.929,0,0,1-.23.288Z" transform="translate(-548.672 -2310.1)" fill="#75c9db" stroke="rgba(0,0,0,0)" stroke-width="1"/>
    <path id="Path_1209" data-name="Path 1209" d="M865.354,2425.411c-.144.684-.259,1.392-.446,2.08-.2.719-.438,1.427-.7,2.123a1.662,1.662,0,0,1-.964.96c-.55.219-1.11.414-1.674.6a1.285,1.285,0,0,1-.441-.021,1.592,1.592,0,0,1,.246-.364c.469-.393.962-.756,1.427-1.152a5.332,5.332,0,0,0,1.647-2.525c.167-.535.344-1.067.517-1.6a.716.716,0,0,1,.067-.182,3.127,3.127,0,0,1,.2-.247Z" transform="translate(-780.856 -2327.133)" fill="#75c9db" stroke="rgba(0,0,0,0)" stroke-width="1"/>
    <path id="Path_1210" data-name="Path 1210" d="M547.841,2448c-.172.282-.329.564-.512.828a.255.255,0,0,1-.442.036c-.187-.18-.406-.325-.61-.488a.254.254,0,0,1-.071-.362c.25-.471.491-.948.749-1.45.395.326.825.547.893,1.133l.772-1.436c.259.243.494.439.7.663a.637.637,0,0,1,.133.706,7.044,7.044,0,0,1-.476.9c-.1.163-.249.2-.425.04C548.319,2448.353,548.059,2448.17,547.841,2448Z" transform="translate(-530.019 -2344)" fill="#75c9db" stroke="rgba(0,0,0,0)" stroke-width="1"/>
    <path id="Path_1211" data-name="Path 1211" d="M762.378,2448.177c.39.344.832.56.889,1.149l.759-1.417c.144.114.258.2.369.292a1.012,1.012,0,0,1,.282,1.551c-.028.05-.057.1-.087.147-.3.472-.37.483-.8.136-.183-.146-.37-.288-.523-.406-.178.285-.342.571-.53.841-.109.156-.248.178-.411.028-.2-.182-.42-.335-.631-.5a.242.242,0,0,1-.069-.342C761.871,2449.177,762.112,2448.7,762.378,2448.177Z" transform="translate(-701.578 -2345.314)" fill="#75c9db" stroke="rgba(0,0,0,0)" stroke-width="1"/>
    <path id="Path_1212" data-name="Path 1212" d="M615.135,2412.609c-.157.261-.294.527-.466.768s-.262.254-.507.065a6.641,6.641,0,0,1-.589-.475.349.349,0,0,1-.083-.307c.232-.492.489-.971.759-1.494.395.32.812.555.9,1.125l.76-1.433a5.91,5.91,0,0,1,.706.689.9.9,0,0,1,.145.589,1.8,1.8,0,0,1-.5,1.01.255.255,0,0,1-.416.023C615.616,2412.965,615.364,2412.787,615.135,2412.609Z" transform="translate(-583.631 -2315.807)" fill="#75c9db" stroke="rgba(0,0,0,0)" stroke-width="1"/>
    <path id="Path_1213" data-name="Path 1213" d="M813.376,2418.1c.3.269.55.478.781.706a.97.97,0,0,1,.253,1.121,6.1,6.1,0,0,1-.582,1.063c-.171.25-.283.23-.52.04s-.5-.39-.755-.584a.372.372,0,0,1-.122-.543C812.749,2419.324,813.044,2418.735,813.376,2418.1Z" transform="translate(-742.021 -2321.572)" fill="#75c9db" stroke="rgba(0,0,0,0)" stroke-width="1"/>
    <path id="Path_1214" data-name="Path 1214" d="M486.958,2414.827c.279.268.57.517.824.8a.779.779,0,0,1,.19.839,8.51,8.51,0,0,1-.613,1.206c-.159.253-.3.234-.537.044-.272-.22-.558-.426-.815-.663a.371.371,0,0,1-.091-.332c.3-.6.626-1.2.945-1.791A.723.723,0,0,1,486.958,2414.827Z" transform="translate(-482.031 -2318.968)" fill="#75c9db" stroke="rgba(0,0,0,0)" stroke-width="1"/>
    <path id="Path_1215" data-name="Path 1215" d="M875.193,2404.023c.148.119.251.2.35.282a1.269,1.269,0,0,1-.039,2.047.213.213,0,0,1-.32.008c-.215-.186-.445-.355-.669-.53a.246.246,0,0,1-.075-.356C874.694,2405,874.934,2404.526,875.193,2404.023Z" transform="translate(-791.423 -2310.364)" fill="#75c9db" stroke="rgba(0,0,0,0)" stroke-width="1"/>
    <path id="Path_1216" data-name="Path 1216" d="M779.4,2442.681c.223.2.393.347.563.5a.814.814,0,0,1,.237,1.012,5.2,5.2,0,0,1-.464.793c-.091.135-.217.163-.365.027-.21-.192-.452-.347-.66-.541a.317.317,0,0,1-.065-.286C778.874,2443.691,779.127,2443.211,779.4,2442.681Z" transform="translate(-715.157 -2341.15)" fill="#75c9db" stroke="rgba(0,0,0,0)" stroke-width="1"/>
  </g>
</svg>
