<svg xmlns="http://www.w3.org/2000/svg" xmlns:xlink="http://www.w3.org/1999/xlink" width="155.099" height="114.126" viewBox="0 0 155.099 114.126">
  <defs>
    <clipPath id="clip-path">
      <rect id="Rectangle_699" data-name="Rectangle 699" width="155.099" height="114.126" transform="translate(-26.486 -33.376)" fill="#75c9db" stroke="rgba(0,0,0,0)" stroke-width="1"/>
    </clipPath>
  </defs>
  <g id="Group_1558" data-name="Group 1558" transform="translate(-14.253 -23.718)">
    <g id="Group_1557" data-name="Group 1557" transform="translate(40.739 57.093)" clip-path="url(#clip-path)">
      <path id="Path_1356" data-name="Path 1356" d="M258.552.014h.594q10.649,0,21.3-.01a1.626,1.626,0,0,1,1.257.53q11.322,11.348,22.665,22.674c1.339,1.338,2.71,2.644,4.062,3.97.543.533.541.541.01,1.073L285.381,51.312,253.819,82.881c-.625.625-.626.626-1.231.021L197.849,28.158c-.606-.606-.607-.609,0-1.213Q211.093,13.7,224.327.44a1.685,1.685,0,0,1,1.39-.431q10.456.011,20.912,0H248.1c-.225.258-.341.406-.473.539-1.349,1.357-2.682,2.73-4.067,4.048a1.716,1.716,0,0,1-1.09.362q-7.035.036-14.07,0a1.921,1.921,0,0,0-1.5.622q-10.634,10.67-21.3,21.312c-.591.591-.591.592.006,1.19l46.972,46.982c.6.6.6.6,1.19.005l46.75-46.761c.657-.657.656-.658-.013-1.327q-7.491-7.491-14.984-14.981c-2.223-2.219-4.451-4.433-6.709-6.617A1.693,1.693,0,0,0,277.75,5q-6.786-.039-13.573-.008a1.931,1.931,0,0,1-1.55-.641c-1.214-1.282-2.486-2.508-3.733-3.758-.139-.139-.269-.287-.4-.431l.061-.145" transform="translate(-202.097 -33.38)" fill="#75c9db" stroke="rgba(0,0,0,0)" stroke-width="1"/>
      <path id="Path_1357" data-name="Path 1357" d="M513.109,1.967a2.467,2.467,0,0,1,1.909.76q4.634,4.649,9.285,9.281,5.689,5.659,11.393,11.3a7.331,7.331,0,0,1,.661.738,2.263,2.263,0,0,1-.18,3.018c-1.867,1.878-3.753,3.737-5.629,5.606q-2.695,2.685-5.386,5.373-5.142,5.116-10.291,10.224a2.308,2.308,0,0,1-3.236-.028c-1.972-1.956-3.929-3.927-5.9-5.885q-7.583-7.541-15.17-15.077a2.361,2.361,0,0,1,.017-3.716c1.982-1.972,3.976-3.93,5.957-5.9q7.484-7.452,14.956-14.916a2.25,2.25,0,0,1,1.615-.781" transform="translate(-462.119 -35.125)" fill="#75c9db" stroke="rgba(0,0,0,0)" stroke-width="1"/>
      <path id="Path_1358" data-name="Path 1358" d="M548.734,400.526a1.713,1.713,0,0,1-1.359-.592q-2.93-2.916-5.852-5.84-3.82-3.818-7.636-7.641c-1.154-1.158-2.324-2.3-3.431-3.5a1.862,1.862,0,0,1,.122-2.832q2.977-2.991,5.966-5.97c1.169-1.169,1.17-1.168,2.324-.014l6.4,6.4a5.364,5.364,0,0,0,7.5.009q3.439-3.426,6.86-6.87c.375-.38.6-.373.972,0,2.116,2.148,4.258,4.271,6.388,6.406a2.025,2.025,0,0,1-.028,3.143c-2.217,2.2-4.411,4.419-6.62,6.626q-3.352,3.349-6.712,6.691-1.5,1.5-2.985,3.014a2.442,2.442,0,0,1-1.911.972" transform="translate(-497.875 -365.455)" fill="#75c9db" stroke="rgba(0,0,0,0)" stroke-width="1"/>
      <path id="Path_1359" data-name="Path 1359" d="M350.943,117.874a2.44,2.44,0,0,1-1.483-.76q-7.89-7.91-15.8-15.8-.488-.488-.975-.976a1.9,1.9,0,0,1,.012-2.953q2.158-2.173,4.329-4.332,6.183-6.184,12.366-12.367a1.9,1.9,0,0,1,3.057.006q1.25,1.245,2.495,2.5c.533.535.521.59-.033,1.134q-3.4,3.343-6.794,6.7a5.145,5.145,0,0,0-1.548,3.669,5.2,5.2,0,0,0,1.534,3.84q2.595,2.632,5.226,5.229,2.915,2.89,5.852,5.758c.359.35.281.611-.035.925q-3.131,3.1-6.251,6.221a5.138,5.138,0,0,1-.856.769,6.745,6.745,0,0,1-1.1.448" transform="translate(-321.84 -104.47)" fill="#75c9db" stroke="rgba(0,0,0,0)" stroke-width="1"/>
      <path id="Path_1360" data-name="Path 1360" d="M831.512,117.957a5.793,5.793,0,0,1-1.352-.746c-2.172-2.114-4.3-4.275-6.45-6.411-.348-.345-.42-.59-.017-.985,2.6-2.547,5.171-5.123,7.755-7.686,1.07-1.061,2.135-2.128,3.226-3.167a5.713,5.713,0,0,0,1.906-3.8,5.311,5.311,0,0,0-1.687-4.27q-3.522-3.494-7.072-6.961c-.371-.361-.427-.59-.033-.967.809-.774,1.551-1.619,2.37-2.382a1.914,1.914,0,0,1,2.926.1q8.37,8.366,16.734,16.738a1.9,1.9,0,0,1-.007,2.956q-8.325,8.332-16.653,16.662a2.068,2.068,0,0,1-1.578.782l-.069.135" transform="translate(-759.039 -104.503)" fill="#75c9db" stroke="rgba(0,0,0,0)" stroke-width="1"/>
      <path id="Path_1361" data-name="Path 1361" d="M866.6,820.117c.243.013.385.028.528.028,1.788.006,3.576,0,5.364.018a4.214,4.214,0,0,1,2.579.726,3.683,3.683,0,0,1,1.338,3.882,3.327,3.327,0,0,1-3.109,2.8c-.444.042-.892.065-1.337.065q-5.527.008-11.053,0c-.613,0-.58.013-.814.6a15.659,15.659,0,0,1-1.04,2.28,4.721,4.721,0,0,1-3.767,2.167c-.324.038-.447-.1-.412-.418a2.037,2.037,0,0,1,1.307-1.67,5.286,5.286,0,0,0,1.322-.906,3.056,3.056,0,0,0,.87-2.294c.006-1.721,0-3.441.006-5.161,0-.6.022-.623.616-.617,1.287.011,1.09-.158,1.1,1.091q.013,1.219,0,2.438c0,.28.094.435.387.453.27.016.538.071.807.071,3.711.006,7.423.012,11.134,0a3.966,3.966,0,0,0,1.269-.209,1.623,1.623,0,0,0,.97-1.819A1.585,1.585,0,0,0,873.1,822.2q-3.209-.046-6.418-.065a9.035,9.035,0,0,0-1.741.083,3.025,3.025,0,0,0-1.139.56.576.576,0,0,1-.873-.047c-.759-.71-.787-.712-.114-1.489,1.649-1.9,3.315-3.791,4.974-5.686.16-.183.323-.365.478-.553.168-.206.313-.169.452.028.016.022.033.043.049.065.819,1.069.814,1.3-.06,2.353-.527.636-1.062,1.266-1.583,1.906-.175.215-.32.454-.532.758" transform="translate(-792.873 -759.903)" fill="#75c9db" stroke="rgba(0,0,0,0)" stroke-width="1"/>
      <path id="Path_1362" data-name="Path 1362" d="M1195.8,811.776a7.9,7.9,0,0,1,.7,1.169.969.969,0,0,1-.085.792c-.443.628-.954,1.209-1.45,1.8-.424.5-.863,1-1.356,1.565.224.01.364.022.5.022,1.843,0,3.685-.008,5.527.007a4.653,4.653,0,0,1,2.206.464,3.312,3.312,0,0,1,1.83,2.874,3.858,3.858,0,0,1-.806,2.9,3.028,3.028,0,0,1-2.324,1.168c-3.169.043-6.339.053-9.508.066-.622,0-1.246-.021-1.867-.06a3.494,3.494,0,0,1-3.275-3.1c.009-1.232-.055-2.464-.061-3.7-.009-1.883.011-3.767,0-5.65,0-.381.117-.559.513-.516a4.519,4.519,0,0,0,.487,0c.852,0,.87,0,.885.874.02,1.178.009,2.357.01,3.536,0,1.423,0,2.846.007,4.268a6.123,6.123,0,0,0,.087.969,1.553,1.553,0,0,0,1.342,1.335,5.367,5.367,0,0,0,.888.078q4.816.008,9.633,0a4.158,4.158,0,0,0,.845-.089,1.585,1.585,0,0,0,1.36-1.588,1.627,1.627,0,0,0-1.146-1.679,3.608,3.608,0,0,0-1.075-.174c-1.883-.017-3.766,0-5.649-.015a5.778,5.778,0,0,0-3.207.686.5.5,0,0,1-.686-.1c-.732-.678-.756-.686-.1-1.448,1.789-2.069,3.595-4.123,5.391-6.186a2.173,2.173,0,0,0,.192-.312l.184.048" transform="translate(-1096.931 -756.868)" fill="#75c9db" stroke="rgba(0,0,0,0)" stroke-width="1"/>
      <path id="Path_1363" data-name="Path 1363" d="M407.744,817.32h.613c1.761,0,3.523-.012,5.284.006a5.233,5.233,0,0,1,2.406.486c2.224,1.147,2.214,4.383.921,5.795a3.305,3.305,0,0,1-2.547,1.137c-2.98.009-5.96.041-8.94.051a20.561,20.561,0,0,1-2.266-.071,3.645,3.645,0,0,1-3.157-3.6c.054-2.9-.023-5.8-.041-8.7,0-.643.011-.652.662-.653h.366c.817,0,.833,0,.842.839.015,1.423.008,2.846.01,4.268,0,1.26-.016,2.521.017,3.781a4.056,4.056,0,0,0,.254,1.179,1.353,1.353,0,0,0,1.126.887,5.763,5.763,0,0,0,1.009.1q4.776.01,9.552,0a4.028,4.028,0,0,0,.805-.083,1.582,1.582,0,0,0,1.364-1.623,1.672,1.672,0,0,0-1.361-1.73,4.084,4.084,0,0,0-.846-.1c-2.073-.007-4.146,0-6.219,0a4.39,4.39,0,0,0-2.415.579.737.737,0,0,1-1.034-.11c-.626-.587-.662-.57-.1-1.215q2.77-3.191,5.55-6.372c.2-.233.324-.2.5.04.838,1.148.848,1.338-.054,2.426-.57.688-1.17,1.351-1.754,2.027-.157.181-.307.369-.543.652" transform="translate(-375.005 -757.064)" fill="#75c9db" stroke="rgba(0,0,0,0)" stroke-width="1"/>
      <path id="Path_1364" data-name="Path 1364" d="M2.555,876.568c.361-.618.639-1.125.954-1.607a.579.579,0,0,1,.413-.207,10.134,10.134,0,0,1,3.572.412,2.679,2.679,0,0,1,1.939,2.542,21.983,21.983,0,0,1-.054,2.257.3.3,0,0,0,.127.044c.921.005,1.843,0,2.764.009.292,0,.319-.17.322-.4a15.013,15.013,0,0,1,.059-1.824A3.238,3.238,0,0,1,16,874.683a34.608,34.608,0,0,1,3.929.059A3.136,3.136,0,0,1,22.9,877.4a3.769,3.769,0,0,1-1.431,4.077,3.611,3.611,0,0,1-2.24.593q-9.37.014-18.739.009c-.52,0-.566-.073-.405-.577a1.727,1.727,0,0,1,1.949-1.4c1.351,0,2.7,0,4.053-.067a1.537,1.537,0,0,0,1.544-1.564,1.664,1.664,0,0,0-1.46-1.808c-.844-.095-1.7-.069-2.553-.091-.308-.008-.616,0-1.061,0m15.3,3.569c.63-.037,1.324-.033,2-.13a1.634,1.634,0,0,0,1.338-1.732,1.686,1.686,0,0,0-1.573-1.626c-1.229-.025-2.459-.03-3.687,0a1.631,1.631,0,0,0-1.516,1.665,1.557,1.557,0,0,0,1.391,1.707c.657.072,1.321.075,2.043.112" transform="translate(-7.511 -814.824)" fill="#75c9db" stroke="rgba(0,0,0,0)" stroke-width="1"/>
      <path id="Path_1365" data-name="Path 1365" d="M658.342,847.8a24.01,24.01,0,0,1-2.51-.125,3.569,3.569,0,0,1-3.057-3.442c-.041-1.109-.006-2.221-.015-3.332,0-.294.115-.42.41-.41.352.012.7.014,1.056,0,.318-.014.438.123.428.434-.014.406,0,.813,0,1.219,0,.528-.005,1.057.007,1.585a1.922,1.922,0,0,0,2.146,2.136c1.1.015,2.192.029,3.285-.01a1.73,1.73,0,0,0,1.512-2.68,2.289,2.289,0,0,0-1.688-.938c-.428-.062-.863-.088-1.287-.171a2.517,2.517,0,0,1-2.267-2.755,2.79,2.79,0,0,1,2.663-2.806c.836-.039,1.675,0,2.512-.011.283,0,.347.112.284.378a1.6,1.6,0,0,1-2.072,1.389,2.312,2.312,0,0,0-.562-.05,1.009,1.009,0,0,0-.284,1.939,4.4,4.4,0,0,0,1.221.25,3.732,3.732,0,0,1,3.4,2.292,3.908,3.908,0,0,1-1,4.212,3.462,3.462,0,0,1-2.274.848c-.636.02-1.273,0-1.909,0,0,.014,0,.028,0,.043" transform="translate(-607.195 -779.759)" fill="#75c9db" stroke="rgba(0,0,0,0)" stroke-width="1"/>
      <path id="Path_1366" data-name="Path 1366" d="M241.1,786.7a5.258,5.258,0,0,1,.264-2.209,4.926,4.926,0,0,1,3.706-3.609,4.762,4.762,0,0,1,1.005-.118c1.895-.011,3.789,0,5.684-.01.355,0,.486.133.466.48a9.965,9.965,0,0,0,0,1.055c.017.34-.133.448-.458.446-1.516-.011-3.033.038-4.547-.019a3.9,3.9,0,0,0-3.939,2.24,2.8,2.8,0,0,1-1.231,1.187c-.293.16-.576.336-.95.555" transform="translate(-228.988 -728.558)" fill="#75c9db" stroke="rgba(0,0,0,0)" stroke-width="1"/>
      <path id="Path_1367" data-name="Path 1367" d="M1101.474,897.927c.826.01.956-.138.871.885-.124,1.481-.111,2.974-.2,4.459a14.838,14.838,0,0,1-.281,2.212,4.182,4.182,0,0,1-2.88,3.1,9.562,9.562,0,0,1-1.532.388c-.493.1-.591-.027-.492-.51a1.975,1.975,0,0,1,1.253-1.534,3.473,3.473,0,0,0,2.277-3.5c.022-1.6.005-3.2.006-4.793,0-.7,0-.7.691-.706h.284" transform="translate(-1015.257 -836.206)" fill="#75c9db" stroke="rgba(0,0,0,0)" stroke-width="1"/>
      <path id="Path_1368" data-name="Path 1368" d="M316.874,901.819c0-.866,0-1.732,0-2.6,0-.52.023-.539.556-.541.325,0,.65,0,.974,0,.238,0,.35.1.34.344-.063,1.581-.115,3.162-.194,4.742-.029.579-.133,1.154-.185,1.733a4.184,4.184,0,0,1-2.885,3.724,12.266,12.266,0,0,1-1.763.456c-.3.069-.444-.029-.388-.392a2.09,2.09,0,0,1,1.372-1.712,3.382,3.382,0,0,0,2.163-3.359c.01-.8,0-1.6,0-2.4Z" transform="translate(-295.357 -836.898)" fill="#75c9db" stroke="rgba(0,0,0,0)" stroke-width="1"/>
      <path id="Path_1369" data-name="Path 1369" d="M774.094,897.794c1.021.009.939-.112.9.951-.06,1.716-.177,3.431-.217,5.147-.078,3.308-2.4,4.678-4.8,4.963-.309.037-.416-.075-.375-.388a1.966,1.966,0,0,1,1.109-1.589,7.417,7.417,0,0,0,1.451-.942,2.845,2.845,0,0,0,.941-2.1c.054-1.69.055-3.382.071-5.074.011-1.172-.117-.943.916-.972" transform="translate(-714.539 -836.085)" fill="#75c9db" stroke="rgba(0,0,0,0)" stroke-width="1"/>
      <path id="Path_1370" data-name="Path 1370" d="M309.634,831.444q0,2.6,0,5.2c0,.535-.036.575-.581.57-1.437-.012-1.221.177-1.225-1.223-.01-3.249,0-6.5,0-9.749,0-.59.007-.594.582-.6h.609c.618,0,.619,0,.619.64q0,2.58,0,5.159Z" transform="translate(-290.302 -769.802)" fill="#75c9db" stroke="rgba(0,0,0,0)" stroke-width="1"/>
      <path id="Path_1371" data-name="Path 1371" d="M857.576,833.454q0,2.518,0,5.035c0,.512-.023.539-.52.535-1.164-.011-1.034.162-1.035-1.036q-.007-4.71,0-9.42c0-.7,0-.706.69-.706.977,0,.864-.055.866.882,0,1.57,0,3.14,0,4.71" transform="translate(-793.932 -771.838)" fill="#75c9db" stroke="rgba(0,0,0,0)" stroke-width="1"/>
      <path id="Path_1372" data-name="Path 1372" d="M943.983,819.49a4.634,4.634,0,0,1-.444.721c-.875.958-1.772,1.9-2.655,2.847-.174.188-.314.257-.535.052-1.022-.947-.951-.68-.14-1.608q1.295-1.48,2.589-2.961c.319-.367.355-.379.642.036.2.284.355.594.543.915" transform="translate(-870.712 -763.021)" fill="#75c9db" stroke="rgba(0,0,0,0)" stroke-width="1"/>
      <path id="Path_1373" data-name="Path 1373" d="M897.069,855.576a2.221,2.221,0,0,1-.218.253c-.319.271-.648.529-.964.8-.187.161-.331.142-.468-.057-.122-.178-.255-.349-.377-.526-.542-.782-.63-.537.162-1.244.7-.621.71-.607,1.311.1.183.214.358.434.554.673" transform="translate(-829.398 -796.178)" fill="#75c9db" stroke="rgba(0,0,0,0)" stroke-width="1"/>
    </g>
  </g>
</svg>
