<svg xmlns="http://www.w3.org/2000/svg" width="118.945" height="119.01" viewBox="0 0 118.945 119.01">
  <g id="Group_1564" data-name="Group 1564" transform="translate(1.633 1.64)" style="isolation: isolate">
    <path id="Path_1160" data-name="Path 1160" d="M469.229,1306.622c.272-.442.5-.842.754-1.221a8.521,8.521,0,0,1,6.862-3.847c.892-.059,1.795.076,2.693.074a.927.927,0,0,0,.705-.279c1.425-2.563,3.8-3.581,6.513-4.032a20.663,20.663,0,0,1,3.121-.272,4,4,0,0,0,3.3-1.586,4.5,4.5,0,0,0,1.6,3.888,11.509,11.509,0,0,1,3.413,5.755,12.86,12.86,0,0,1-.028,3.456.9.9,0,0,0,.353.963,10.352,10.352,0,0,1,4.015,5.827,9.372,9.372,0,0,1-.334,4.927c.562-.125,1.042-.251,1.528-.338,3.567-.636,6.4.715,8.669,3.359a2.052,2.052,0,0,0,2.387.892,6.534,6.534,0,0,1,5.141,1.115,31.673,31.673,0,0,1,3.69,2.839,4.147,4.147,0,0,0,3.552,1.133c-1.931,1.324-1.635,3.223-1.78,4.977a10.821,10.821,0,0,1-1.8,5.769,9.864,9.864,0,0,1-2.156,2.025,1.06,1.06,0,0,0-.527,1.17c.32,2.722-.012,5.337-1.843,7.5a27.626,27.626,0,0,1-2.976,2.657c.071.043.262.166.458.281a8.6,8.6,0,0,1,4.443,7.486c.037.822-.086,1.649-.091,2.474a.854.854,0,0,0,.252.653c2.622,1.445,3.647,3.868,4.076,6.638a24.846,24.846,0,0,1,.269,3.2,3.962,3.962,0,0,0,1.554,3.11,4.25,4.25,0,0,0-3.622,1.383,13.8,13.8,0,0,1-5.462,3.532,6.875,6.875,0,0,1-4.024.086.716.716,0,0,0-.907.314,10.405,10.405,0,0,1-5.745,4.013,8.849,8.849,0,0,1-4.327-.1c-.165-.042-.327-.094-.492-.133a.769.769,0,0,0-.2.028c.109.468.236.928.321,1.395a8.731,8.731,0,0,1-2.68,8.094c-.546.551-1.416.93-1.675,1.574-.24.6.2,1.439.231,2.177a7.407,7.407,0,0,1-1.215,4.363,31.035,31.035,0,0,1-2.691,3.528,4.316,4.316,0,0,0-1.365,3.573c-1.252-1.774-3.147-1.465-4.886-1.611a10.842,10.842,0,0,1-5.771-1.788,10.394,10.394,0,0,1-2.072-2.208,1,1,0,0,0-1.12-.492,10.894,10.894,0,0,1-4.693-.328,8.4,8.4,0,0,1-4.877-3.826c-.139-.228-.271-.46-.412-.687-.024-.038-.074-.06-.144-.115a9.314,9.314,0,0,1-3.114,3.6,10.05,10.05,0,0,1-6.935,1.36.917.917,0,0,0-1.1.514,7.709,7.709,0,0,1-5.556,3.635,23.276,23.276,0,0,1-3.834.422,4.122,4.122,0,0,0-3.36,1.59,4.489,4.489,0,0,0-1.557-3.836,11.658,11.658,0,0,1-3.495-5.951,10.9,10.9,0,0,1,.038-3.169,1.086,1.086,0,0,0-.441-1.2,10.171,10.171,0,0,1-3.9-5.732,9.307,9.307,0,0,1,.336-4.924c-.567.126-1.047.252-1.534.339a8.585,8.585,0,0,1-8.408-3.106,2.732,2.732,0,0,0-3.01-1.1,7.044,7.044,0,0,1-5.286-1.455,28.585,28.585,0,0,1-3.128-2.5,4.116,4.116,0,0,0-3.607-1.175c1.945-1.327,1.64-3.232,1.786-4.99a10.807,10.807,0,0,1,1.8-5.766,9.761,9.761,0,0,1,2.16-2.021,1.041,1.041,0,0,0,.515-1.174,10.912,10.912,0,0,1,.28-4.483,8.432,8.432,0,0,1,3.849-5.033c.266-.164.538-.318.883-.521-.256-.155-.45-.276-.646-.391a8.608,8.608,0,0,1-4.447-7.559c-.03-.8.088-1.6.094-2.4a.853.853,0,0,0-.253-.652c-2.643-1.466-3.662-3.912-4.086-6.712a17.711,17.711,0,0,1-.242-2.685,4.083,4.083,0,0,0-1.6-3.55,4.247,4.247,0,0,0,3.657-1.378,13.641,13.641,0,0,1,5.6-3.575,6.654,6.654,0,0,1,3.813-.058.809.809,0,0,0,1.026-.353,10.253,10.253,0,0,1,5.765-3.978,8.838,8.838,0,0,1,4.257.12c.165.042.327.094.492.134a.765.765,0,0,0,.2-.028c-.109-.468-.236-.928-.321-1.395a8.782,8.782,0,0,1,2.833-8.249c.5-.492,1.306-.834,1.527-1.414.215-.565-.19-1.344-.231-2.034a7.342,7.342,0,0,1,1.173-4.445,29.683,29.683,0,0,1,2.729-3.59,4.278,4.278,0,0,0,1.31-3.7,4.443,4.443,0,0,0,3.626,1.674,28.013,28.013,0,0,1,4.943.794,6.677,6.677,0,0,1,4.341,3.432c.241.454.559.369.918.32a11.318,11.318,0,0,1,4.488.24,8.393,8.393,0,0,1,5.156,3.909ZM445.343,1363.2a7.418,7.418,0,0,0-2.631,3.5,12.22,12.22,0,0,0-.5,6.039,21.559,21.559,0,0,1,.218,6.392c-.059.37-.117.74-.152.956,1.955,0,3.843-.039,5.728.011,1.768.047,3.541.346,5.3.252a7.515,7.515,0,0,0,5.853-2.981c.034-.045.114-.056.054-.029a21.059,21.059,0,0,0,.281,2.7,10.2,10.2,0,0,0,3.931,5.718c2.14,1.689,4.357,3.289,5.725,5.593,1.076-1.142,2.089-2.32,3.214-3.38.935-.882,2.016-1.605,3-2.435a10.15,10.15,0,0,0,3.665-5.562,17.662,17.662,0,0,0,.226-2.508,20.932,20.932,0,0,0,2.214,1.745,9.656,9.656,0,0,0,5.759,1.226c2.109-.136,4.211-.376,6.321-.475a17.965,17.965,0,0,1,2.668.26,1.03,1.03,0,0,0,.009-.235,20.2,20.2,0,0,1-.059-6.459,23.891,23.891,0,0,0,.1-4.86,7.381,7.381,0,0,0-2.978-5.373,20.249,20.249,0,0,0,2.7-.26,10.8,10.8,0,0,0,5.925-4.131c1.1-1.356,2.228-2.7,3.421-3.979a16.656,16.656,0,0,1,1.952-1.587c-1.141-1.083-2.328-2.122-3.408-3.263-.833-.881-1.5-1.911-2.293-2.836-2.177-2.551-4.76-4.268-8.434-3.893a7.468,7.468,0,0,0,2.654-3.574,12.3,12.3,0,0,0,.48-5.971,21.566,21.566,0,0,1-.218-6.391c.059-.37.117-.741.19-1.2a18.828,18.828,0,0,1-6.78.132,24.823,24.823,0,0,0-4.355-.156,7.856,7.856,0,0,0-5.268,2.369c-.226.232-.431.485-.568.641a20.636,20.636,0,0,0-.279-2.7,10.479,10.479,0,0,0-4.158-5.9c-2.082-1.61-4.178-3.2-5.506-5.418-1.037,1.115-2.007,2.269-3.1,3.3-.989.931-2.126,1.7-3.167,2.579a10.077,10.077,0,0,0-3.61,5.513,18.605,18.605,0,0,0-.232,2.586,16.591,16.591,0,0,0-1.528-1.4,9.626,9.626,0,0,0-6.437-1.65c-2.109.126-4.211.375-6.321.474a17.975,17.975,0,0,1-2.671-.261,1,1,0,0,0-.009.231,20.247,20.247,0,0,1,.06,6.459,23.835,23.835,0,0,0-.1,4.86,7.451,7.451,0,0,0,3.081,5.449,16.64,16.64,0,0,0-1.867.01,9.644,9.644,0,0,0-6.329,3.7c-1.866,2.225-3.468,4.692-5.933,6.132,1.209,1.159,2.422,2.24,3.536,3.417.8.845,1.438,1.84,2.2,2.726C439.088,1361.856,441.667,1363.581,445.343,1363.2Zm3.256-62.028a1.486,1.486,0,0,0-1.518.67c-.423.533-.9,1.026-1.335,1.547a4.751,4.751,0,0,0-.781,5.428c.278.61.774,1.369.6,1.865s-1.033.8-1.611,1.152a11.03,11.03,0,0,0-3.135,2.688c-2.133,2.821,0,7.49,3.113,7.817a14.113,14.113,0,0,0,3.272-.006c2.947-.385,5.879-.846,8.837-.09a.761.761,0,0,0,.626-.307,19.721,19.721,0,0,1,5-5.152,28.317,28.317,0,0,0,3.362-3,3.736,3.736,0,0,0,1.01-3.235c-.5-3.35-2.489-5.024-5.878-4.808a26.236,26.236,0,0,0-3.788.7c-.49.105-.752.017-.921-.49a18.084,18.084,0,0,0-.784-1.882,4.1,4.1,0,0,0-3.049-2.472C450.627,1301.412,449.609,1301.315,448.6,1301.177ZM417.218,1373.3l-.1.021c.1.578-.006,1.343.328,1.7a18.466,18.466,0,0,0,2.9,2.42,3.919,3.919,0,0,0,3.7.382c.731-.261,1.435-.6,2.172-.842a.77.77,0,0,1,.679.205c.4.52.665,1.14,1.076,1.646a18.783,18.783,0,0,0,2.5,2.816c2.783,2.275,7.521.054,7.834-3.08a14.943,14.943,0,0,0-.027-3.344c-.369-2.9-.822-5.784-.078-8.693a.751.751,0,0,0-.265-.645,21.069,21.069,0,0,1-5.6-5.574,22.015,22.015,0,0,0-2.724-2.926,3.648,3.648,0,0,0-2.982-.926c-3.361.416-5.14,2.476-4.929,5.853a27.972,27.972,0,0,0,.709,3.861c.093.447.035.715-.445.879-.642.219-1.266.5-1.886.777a4.339,4.339,0,0,0-2.613,3.448C417.354,1371.944,417.3,1372.623,417.218,1373.3Zm75.524-62.594c.155-.39.293-.7.4-1.019a17.353,17.353,0,0,0,.849-2.622c.3-1.76-.77-3.013-1.753-4.31-.9-1.184-1.9-1.9-3.448-1.44a2.781,2.781,0,0,1-.581.041,4.833,4.833,0,0,0-4.679,3.317c-.146.412-.375.8-.489,1.216-.158.579-.467.651-1.018.542a28.611,28.611,0,0,0-4.3-.7,4.6,4.6,0,0,0-4.81,3.069,4.542,4.542,0,0,0,1.156,5.7,42.121,42.121,0,0,0,3.492,2.868,16.752,16.752,0,0,1,4.108,4.406.839.839,0,0,0,1.062.445,16.05,16.05,0,0,1,5.362-.288,50.806,50.806,0,0,0,5.73.467,5.057,5.057,0,0,0,4.629-6.011,6.409,6.409,0,0,0-2.957-3.915C494.621,1311.862,493.7,1311.317,492.741,1310.7Zm-54.258,18.981-.086-.009c0-.292.012-.584,0-.876a5.142,5.142,0,0,0-6.375-4.656,6.283,6.283,0,0,0-3.443,2.68c-.574.814-1.1,1.66-1.615,2.516a.532.532,0,0,1-.818.252c-.684-.312-1.387-.588-2.1-.841a4.13,4.13,0,0,0-3.774.4c-.491.312-.929.707-1.413,1.031-1.322.883-2.081,1.994-1.578,3.661a1.967,1.967,0,0,1,.028.436,4.859,4.859,0,0,0,3.355,4.73,11.338,11.338,0,0,0,1.149.458c.646.151.666.51.56,1.072a30.5,30.5,0,0,0-.686,4.374,5.085,5.085,0,0,0,8.7,3.613,44.884,44.884,0,0,0,2.877-3.485,16.89,16.89,0,0,1,4.505-4.212.8.8,0,0,0,.413-1.011,15.309,15.309,0,0,1-.282-5.434C438.1,1332.821,438.29,1331.252,438.483,1329.686Zm82.867,2.953a1.5,1.5,0,0,0-.676-1.518c-.55-.44-1.061-.93-1.6-1.38a4.7,4.7,0,0,0-5.3-.761c-.632.284-1.419.8-1.929.622-.527-.185-.814-1.078-1.185-1.674a10.749,10.749,0,0,0-2.715-3.11c-2.812-2.064-7.447.086-7.752,3.164a14.094,14.094,0,0,0,0,3.2c.39,2.971.852,5.926.089,8.908a.686.686,0,0,0,.253.584,21.073,21.073,0,0,1,5.7,5.686,19.829,19.829,0,0,0,2.453,2.685c2.6,2.4,7.281.422,7.9-2.528a11.5,11.5,0,0,0,.109-3.249,19.514,19.514,0,0,0-.615-2.919.585.585,0,0,1,.431-.82c.685-.245,1.353-.541,2.013-.848a4.006,4.006,0,0,0,2.388-2.943C521.1,1334.713,521.2,1333.671,521.351,1332.639Zm-28.613,63.225a21.686,21.686,0,0,0,2.092-1.337,17.656,17.656,0,0,0,2.84-2.572c2.157-2.72-.015-7.436-3.2-7.742a13.85,13.85,0,0,0-3.127.011c-2.97.4-5.926.85-8.909.094a.76.76,0,0,0-.625.309,20.517,20.517,0,0,1-5.352,5.417,21.716,21.716,0,0,0-3.021,2.73c-2.349,2.583-.355,7.232,2.567,7.841a11.549,11.549,0,0,0,3.248.111,19.7,19.7,0,0,0,2.919-.615c.423-.1.667-.021.823.425.232.664.514,1.312.81,1.951a4.027,4.027,0,0,0,3.049,2.467c1.193.2,2.41.278,3.619.376a.788.788,0,0,0,.562-.251c.725-.818,1.462-1.631,2.117-2.5a4.3,4.3,0,0,0,.518-4.42C493.377,1397.413,493.07,1396.676,492.738,1395.864Zm-47.043-.031a1.187,1.187,0,0,1-.027.214,8.517,8.517,0,0,1-.409,1.012c-1.4,2.563-.9,4.814,1.089,6.833a.405.405,0,0,1,.046.057,2.652,2.652,0,0,0,3.144,1.3,3.751,3.751,0,0,1,.727-.051,4.847,4.847,0,0,0,4.659-3.243c.239-.652.435-1.6.916-1.811.542-.239,1.377.251,2.1.329a19.135,19.135,0,0,0,3.9.268,4.569,4.569,0,0,0,3.9-3.385,4.348,4.348,0,0,0-.958-4.919,44.188,44.188,0,0,0-3.893-3.29,16.918,16.918,0,0,1-4.056-4.355.881.881,0,0,0-1.13-.436,16.177,16.177,0,0,1-5.291.272,49.84,49.84,0,0,0-5.729-.469,5.047,5.047,0,0,0-4.624,6.07,6.189,6.189,0,0,0,2.755,3.718C443.734,1394.612,444.714,1395.2,445.7,1395.833Zm70.279-29.045c.067-.34.132-.622.177-.906a36.756,36.756,0,0,0,.633-4.164,4.592,4.592,0,0,0-3.045-4.754,4.545,4.545,0,0,0-5.7,1.122,37,37,0,0,0-2.781,3.374,16.965,16.965,0,0,1-4.544,4.275.8.8,0,0,0-.408,1.014,16.007,16.007,0,0,1,.285,5.434c-.2,1.785-.423,3.573-.49,5.366a4.522,4.522,0,0,0,3.166,4.586,4.708,4.708,0,0,0,5.388-.985,11.4,11.4,0,0,0,1.42-1.656,20.76,20.76,0,0,0,1.37-2.152c.274-.5.547-.521,1.04-.321a15.539,15.539,0,0,0,2.951,1.007c1.785.328,3.055-.779,4.37-1.778,1.142-.867,1.824-1.833,1.4-3.323a3.294,3.294,0,0,1-.044-.654,4.884,4.884,0,0,0-3.366-4.725C517.187,1367.33,516.6,1367.05,515.975,1366.788Z" transform="translate(-411.319 -1295.409)" fill="#75c9db" stroke="#75c9db" stroke-width="1"/>
    <path id="Path_1161" data-name="Path 1161" d="M779.415,1532.071l1.314,3.569-.144.08-.679-.5c0,.339-.009.588,0,.836.154,3.816.317,7.631.462,11.447a7.9,7.9,0,0,1-.73,3.236,6.741,6.741,0,0,0-.393,2.556,1.385,1.385,0,0,0,.876.978,3.307,3.307,0,0,0,1.506-.277c.069-.019.095-.31.085-.471-.087-1.352-.227-2.7-.264-4.056a6.512,6.512,0,0,1,.314-1.509l.229,0,1.246,3.361-.149.089-.585-.4v2.691a10.074,10.074,0,0,0,1.009-.516c1.41-.953,2.818-1.91,4.207-2.892.594-.42.6-.705-.005-1.1a11.072,11.072,0,0,0-1.9-1.065,10.906,10.906,0,0,1-4.065-3.232c-.273-.317-.17-.958-.269-1.648l2.62,1.246-1.1.354c.818.514,1.5.973,2.2,1.377.632.36,1.312.637,1.949.989a2.7,2.7,0,0,1,.374,4.518c-1.418,1.1-2.9,2.126-4.4,3.123a.981.981,0,0,0-.509,1.064c.092.935.119,1.876.179,2.916,2.485-1.931,4.045-4.859,7.352-5.544-.524-2.266.818-3.388,2.532-4.307a1.611,1.611,0,0,0,.573-.694c.329-.649.552-1.356.925-1.975a5.78,5.78,0,0,1,1.109-1.233c.345-.312.639-.212.845.239a5.719,5.719,0,0,0,.7,1.188,1.359,1.359,0,0,0,2.157.23,19.079,19.079,0,0,0,1.55-1.7,3.949,3.949,0,0,0,.393,1.053,1.113,1.113,0,0,0,.8.426c.158-.007.353-.444.429-.716a7.2,7.2,0,0,0,0-.8,1.827,1.827,0,0,1,.262-.514c.133.116.368.221.381.349a6.109,6.109,0,0,1,.08,2.065c-.41,1.552-1.782,1.894-3.04.812-.754.609-1.458,1.448-2.573,1.235-1.16-.221-1.436-1.26-1.814-2.291-.668.315-1.29.643-1.494,1.378s.284,1.206.812,1.577c.575.4,1.209.722,1.8,1.1a1.756,1.756,0,0,1,.868,2.354,3.143,3.143,0,0,1-3.361,2.227q-1.744-.138-3.485-.315a3.751,3.751,0,0,0-2.961.983c-1.541,1.376-3.027,2.815-4.5,4.266a1.528,1.528,0,0,0-.267.926c-.08,1.282-.063,2.574-.2,3.848-.06.55-.128,1.236-.856,1.476-.082.027-.14.2-.165.313a28.365,28.365,0,0,0-.683,3.328c-.1,1.083.566,1.57,1.581,1.158a9.973,9.973,0,0,0,2.48-1.458,28.673,28.673,0,0,0,2.5-2.448c1.347-1.389,2.728-2.718,4.781-3.1-.52-2.223.769-3.341,2.423-4.271a1.954,1.954,0,0,0,.688-.771c.3-.555.491-1.164.779-1.724a4.792,4.792,0,0,1,.71-1.008c.421-.463.921-.893,1.582-.487s.588,1.042.364,1.753c-.267-.032-.524-.067-.781-.091a2.113,2.113,0,0,0-1.936,1.185c-.293.771.164,1.272.707,1.668.567.413,1.2.737,1.8,1.1a1.82,1.82,0,0,1,.9,2.531,3.145,3.145,0,0,1-3.306,2.1c-.968-.089-1.938-.171-2.9-.305a4.82,4.82,0,0,0-4.122,1.422c-1.33,1.249-2.613,2.548-3.944,3.8a6.669,6.669,0,0,1-1.5,1.128,2.146,2.146,0,0,1-3.237-2.063,9.906,9.906,0,0,1,1.163-4.251,5.291,5.291,0,0,0,.476-1.849c.078-.936.02-1.883.02-2.962-.406.137-.6.194-.792.268a2.116,2.116,0,0,1-3.01-2.038,25.7,25.7,0,0,1,.661-3.335,2.137,2.137,0,0,0-.006-1.017,5.8,5.8,0,0,1,.142-3.658,13.3,13.3,0,0,0,.421-4.831c-.2-3.888-.348-7.777-.491-11.667-.027-.73-.476-1.461-.022-2.2C779.185,1532.556,779.248,1532.4,779.415,1532.071Zm2.388,23.644-2.374.254a7.788,7.788,0,0,0-.64,3.416A1.457,1.457,0,0,0,779,1560a.951.951,0,0,0,1.285.349c.619-.238,1.6-.192,1.662-1.036A28.129,28.129,0,0,0,781.8,1555.715Zm13.3,8.721a3.784,3.784,0,0,0,3.519-.286c.354-.291.273-.578-.05-.753a18.623,18.623,0,0,0-2.024-.945c-.127-.05-.44.126-.535.279C795.69,1563.264,795.422,1563.832,795.106,1564.436Zm-2.158-10.955a3.8,3.8,0,0,0,3.467-.262c.389-.284.372-.586,0-.792a17.665,17.665,0,0,0-2.027-.938c-.127-.049-.439.131-.533.285C793.527,1552.309,793.261,1552.877,792.948,1553.482Zm.1-2.268c-.049-.094-.112-.4-.276-.474a.792.792,0,0,0-.711.089,7.41,7.41,0,0,0-1.118,1.389.8.8,0,0,0,.087.776,1.1,1.1,0,0,0,.857.132A2.007,2.007,0,0,0,793.048,1551.214Zm2.146,11.016c-.042-.084-.106-.447-.3-.535a.844.844,0,0,0-.765.161,6.445,6.445,0,0,0-1.034,1.36.81.81,0,0,0,.111.767,1,1,0,0,0,.8.123A1.963,1.963,0,0,0,795.194,1562.23Z" transform="translate(-724.727 -1497.472)" fill="#75c9db" stroke="#75c9db" stroke-width="1"/>
    <path id="Path_1162" data-name="Path 1162" d="M680.484,1595.849c-.549-.157-1.114-.327-1.683-.48-.725-.194-1.472-.326-2.178-.574a1.381,1.381,0,0,1-1.091-1.722,7.7,7.7,0,0,1,3.559-5.671,1.076,1.076,0,0,1,1.526.01,1.568,1.568,0,0,1-.128,1.911c-.731-.84-1.246-.945-2.071-.114a24.308,24.308,0,0,0-2.195,2.776.628.628,0,0,0,.3,1.015,11.642,11.642,0,0,0,1.614.623c.72.214,1.484.3,2.178.57a1.318,1.318,0,0,1,.7.862,2.635,2.635,0,0,1-.9,2.621,15.521,15.521,0,0,1-7.866,3.861c-2.534.334-4.3-.9-4.664-3.433a7.921,7.921,0,0,1,1.527-5.765,8.473,8.473,0,0,0-.3.855,18.881,18.881,0,0,0-.745,3.377,3.244,3.244,0,0,0,3.428,3.361,14.6,14.6,0,0,0,8.688-3.521,1.384,1.384,0,0,0,.238-.273C680.455,1596.105,680.449,1596.048,680.484,1595.849Z" transform="translate(-630.064 -1544.443)" fill="#75c9db" stroke="#75c9db" stroke-width="1"/>
    <path id="Path_1163" data-name="Path 1163" d="M681.539,1729.974c-.048.323-.1.647-.143.971-.564,3.94,1.516,6.029,5.419,5.278a15.435,15.435,0,0,0,8.039-4.447.979.979,0,0,0,.18-1.286,33.724,33.724,0,0,1-1.461-3.484,5.335,5.335,0,0,1,.13-1.79l1.5,1.666-.588.183c.241.528.483,1.047.716,1.57a3.864,3.864,0,0,1-.857,4.912,13.9,13.9,0,0,1-9.07,4.47,3.656,3.656,0,0,1-3.839-2.305,8.646,8.646,0,0,1-.262-5.736Z" transform="translate(-641.522 -1662.379)" fill="#75c9db" stroke="#75c9db" stroke-width="1"/>
    <path id="Path_1164" data-name="Path 1164" d="M671.415,1680.907a6.78,6.78,0,0,0-.342.766,34.289,34.289,0,0,0-1,3.7c-.219,1.3.521,1.893,1.723,1.408a8.447,8.447,0,0,0,2.391-1.461c1.311-1.156,2.505-2.445,3.758-3.669a6.123,6.123,0,0,1,3.933-1.861c1.706-.115,2.386.905,1.67,2.6a2.028,2.028,0,0,0-2.379-.946,7.269,7.269,0,0,0-2.4,1.143c-1.535,1.3-2.924,2.779-4.4,4.152a7.852,7.852,0,0,1-1.573,1.155,2.152,2.152,0,0,1-3.168-1.979,9.08,9.08,0,0,1,1.474-4.815C671.132,1681.046,671.212,1681.027,671.415,1680.907Z" transform="translate(-631.861 -1623.582)" fill="#75c9db" stroke="#75c9db" stroke-width="1"/>
    <path id="Path_1165" data-name="Path 1165" d="M890.41,1564.1c1.84,1.143,1.909,1.308,1.046,2.408C889.778,1565.941,889.62,1565.6,890.41,1564.1Z" transform="translate(-819.977 -1524.815)" fill="#75c9db" stroke="#75c9db" stroke-width="1"/>
    <path id="Path_1166" data-name="Path 1166" d="M887.331,1580.183c-.459,1.421-.543,1.447-1.694.524-.658-.527-.636-.757.21-1.855l1.508,1.357Z" transform="translate(-815.898 -1537.413)" fill="#75c9db" stroke="#75c9db" stroke-width="1"/>
    <path id="Path_1167" data-name="Path 1167" d="M841.391,1715.14c-.362,1.42-.506,1.471-1.637.586-.718-.562-.711-.669.151-1.9l1.509,1.339Z" transform="translate(-776.675 -1652.656)" fill="#75c9db" stroke="#75c9db" stroke-width="1"/>
    <path id="Path_1168" data-name="Path 1168" d="M719.965,1747.065c1.667,1.353,1.757,1.607.915,2.5C719.146,1748.809,719.016,1748.474,719.965,1747.065Z" transform="translate(-674.34 -1681.034)" fill="#75c9db" stroke="#75c9db" stroke-width="1"/>
    <path id="Path_1169" data-name="Path 1169" d="M854,1715.01l.545-1.366c1.679.562,1.866,1.057.894,2.3l-1.462-.963Z" transform="translate(-789.263 -1652.499)" fill="#75c9db" stroke="#75c9db" stroke-width="1"/>
    <path id="Path_1170" data-name="Path 1170" d="M899.949,1580.089l.527-1.378c1.669.552,1.89,1.169.871,2.28l-1.422-.929Z" transform="translate(-828.492 -1537.293)" fill="#75c9db" stroke="#75c9db" stroke-width="1"/>
  </g>
</svg>
