<svg xmlns="http://www.w3.org/2000/svg" width="106.961" height="113.222" viewBox="0 0 106.961 113.222">
  <g id="Group_1374" data-name="Group 1374" style="isolation: isolate">
    <path id="Path_1171" data-name="Path 1171" d="M-56.039,1828.1a12.832,12.832,0,0,1,7.646,2.61,7.311,7.311,0,0,1,2.561,5.018,13.461,13.461,0,0,1-.6,5.569.529.529,0,0,0,.1.544,6.68,6.68,0,0,1,0,7.967,5.88,5.88,0,0,1-2.979,2,13.866,13.866,0,0,0,.518-1.435,1.67,1.67,0,0,0-.669-1.859,4.4,4.4,0,0,0-2.874-1.086,1.168,1.168,0,0,0-.361.049,5.955,5.955,0,0,1-2.74.119,17.108,17.108,0,0,1-7-2.544c-.348-.2-.688-.41-1.065-.635-.085.09-.175.183-.262.277a13.577,13.577,0,0,1-7.027,4.269,10.616,10.616,0,0,1-10.863-3.479,9.03,9.03,0,0,1-2.016-3.048,14.038,14.038,0,0,1,.047-10.464,10.238,10.238,0,0,1,5.22-5.495,8.26,8.26,0,0,1,6.93.011,9.113,9.113,0,0,1,4.115,3.345,7.19,7.19,0,0,1-1.361,9.132,9.412,9.412,0,0,1-4.281,1.834,12.812,12.812,0,0,1-1.426.126.738.738,0,0,0-.726.656c-.057.359.2.52.471.588a4.66,4.66,0,0,0,1.209.181,10.016,10.016,0,0,0,4.468-1.094,6.815,6.815,0,0,0,3.691-5.074,10.572,10.572,0,0,0-.516-6.006,9.031,9.031,0,0,0-5.056-4.928,10.353,10.353,0,0,0-1.259-.439c-.226-.065-.317-.159-.274-.392.251-1.354.418-2.729.761-4.059a18.931,18.931,0,0,1,3.822-7.6,18.8,18.8,0,0,1,10.091-6.28,20.073,20.073,0,0,1,6.37-.425,21.47,21.47,0,0,1,7.336,1.861,17.408,17.408,0,0,1,7.525,6.56,34.548,34.548,0,0,1,4.332,10.04c.072.273.178.384.468.364a8,8,0,0,1,1.136,0c.272.02.362-.1.422-.334a35.942,35.942,0,0,1,2.609-7.028,22.8,22.8,0,0,1,4.293-6.211,17.852,17.852,0,0,1,7.3-4.292,21.48,21.48,0,0,1,8.6-.955,18.4,18.4,0,0,1,14.224,8.6,20.314,20.314,0,0,1,2.861,7.4c.154.785.23,1.584.353,2.375.037.241-.061.324-.28.387a9.986,9.986,0,0,0-4.762,2.891,8.889,8.889,0,0,0-2.25,5.758,10.026,10.026,0,0,0,.588,4.169,6.952,6.952,0,0,0,4.261,4.066,10.433,10.433,0,0,0,3.627.661,3.968,3.968,0,0,0,1.107-.193c.256-.074.5-.235.441-.578a.706.706,0,0,0-.692-.649,8.767,8.767,0,0,1-2.819-.464,7.335,7.335,0,0,1-4.193-2.91,7.19,7.19,0,0,1,.985-9.042,9.372,9.372,0,0,1,6.368-2.773,8.1,8.1,0,0,1,5.423,1.831,11.3,11.3,0,0,1,4.3,7.762,15.065,15.065,0,0,1-.883,7.155,10.23,10.23,0,0,1-2.444,3.476,10.586,10.586,0,0,1-5.967,3.181,11.65,11.65,0,0,1-7.281-1.233,14.423,14.423,0,0,1-4.21-3.247c-.059-.066-.12-.132-.182-.2a.215.215,0,0,0-.054-.031c-.818.454-1.624.924-2.452,1.355a14.724,14.724,0,0,1-5.024,1.723c-.827.1-1.665.109-2.5.153a.783.783,0,0,1-.329-.049,3.28,3.28,0,0,0-2.968.37,6.825,6.825,0,0,0-.8.542,1.661,1.661,0,0,0-.642,1.838,13.854,13.854,0,0,0,.524,1.435,5.667,5.667,0,0,1-3.664-3.106,6.654,6.654,0,0,1,.7-6.925.585.585,0,0,0,.066-.444,15.178,15.178,0,0,1-.668-4.339,7.846,7.846,0,0,1,5.386-7.9,16.472,16.472,0,0,1,4.507-1.028c.118-.011.239,0,.4,0-.4.2-.766.373-1.115.579a4.951,4.951,0,0,0-2.555,3.678,3.511,3.511,0,0,0,1.437,3.3,4.977,4.977,0,0,0,4.444,1.044,6.576,6.576,0,0,0,4.754-3.875,12.7,12.7,0,0,0,1.179-4.6,13.962,13.962,0,0,0-.547-5.679,11.27,11.27,0,0,0-5-6.1,12.5,12.5,0,0,0-7.624-1.739,9.158,9.158,0,0,0-7.477,4.5,26.169,26.169,0,0,0-3.079,7.68c-.166.657-.3,1.323-.419,1.989a.538.538,0,0,0,.119.4,12,12,0,0,1,3.111,6.247,11.8,11.8,0,0,1-1.628,8.461,11.717,11.717,0,0,1-8.023,5.561,11.8,11.8,0,0,1-10.654-3.058,11.571,11.571,0,0,1-3.73-7.137,11.939,11.939,0,0,1,2.924-9.794.581.581,0,0,0,.188-.532,32.383,32.383,0,0,0-2.468-7.874,14.265,14.265,0,0,0-2.281-3.52,8.66,8.66,0,0,0-5.162-2.782,12.328,12.328,0,0,0-13.132,6.217,10.7,10.7,0,0,0-1.16,4.221,15.792,15.792,0,0,0,.527,5.822,8.238,8.238,0,0,0,2.556,4.225,5.849,5.849,0,0,0,5.5,1.28,4.186,4.186,0,0,0,3.2-3.182,4.059,4.059,0,0,0-.806-3.215,5.738,5.738,0,0,0-2.49-1.956Zm24.972,13.866a4.383,4.383,0,0,0,4.383-4.4,4.4,4.4,0,0,0-4.405-4.353,4.4,4.4,0,0,0-4.352,4.41A4.392,4.392,0,0,0-31.067,1841.965Z" transform="translate(84.667 -1750.786)" fill="#75c9db"/>
    <path id="Path_1172" data-name="Path 1172" d="M482.132,999.406c.328,1.414.6,2.836.994,4.223a7.869,7.869,0,0,0,2.781,4.034,1.485,1.485,0,0,0,.362.214c-2.367-6.715-1.166-12.812,3.1-18.383-.117.662-.247,1.323-.348,1.988a16.988,16.988,0,0,0-.081,5.258,8.634,8.634,0,0,0,3.19,5.249,5.508,5.508,0,0,0,.919.642c-.035-.106-.066-.214-.107-.319a25.22,25.22,0,0,1-1.723-10.467,17.73,17.73,0,0,1,3.65-10.145c.087-.113.183-.22.328-.394.093.5.171.923.254,1.349a29.877,29.877,0,0,0,6.234,13.212c1.734,2.157,3.6,4.186,5.537,6.161a15.893,15.893,0,0,1,3.3,5.26,11.068,11.068,0,0,1,.872,4.921,8.716,8.716,0,0,1-1.66,4.414,13.451,13.451,0,0,1-2.921,3.056.96.96,0,0,1-.542.191q-12.3.014-24.606.013a.568.568,0,0,1-.522-.271,15.369,15.369,0,0,1-2.848-7.842,17.4,17.4,0,0,1,3.294-11.677C481.77,999.841,481.972,999.607,482.132,999.406Z" transform="translate(-440.583 -981.306)" fill="#75c9db"/>
    <path id="Path_1173" data-name="Path 1173" d="M537.2,1736.815a5.335,5.335,0,0,0-.15-.514,48.849,48.849,0,0,0-4.418-8.747,17.258,17.258,0,0,0-6.021-5.529,3.943,3.943,0,0,1-2.034-2.368,1.723,1.723,0,0,1,1.632-2.341c.343-.028.69-.012,1.035-.012H547.17c.345,0,.692-.016,1.035.009a1.726,1.726,0,0,1,1.665,2.368,3.782,3.782,0,0,1-1.906,2.269,19.55,19.55,0,0,0-4.21,3.21,19.283,19.283,0,0,0-3.427,4.915c-1.023,2.012-1.936,4.079-2.888,6.126a3.766,3.766,0,0,0-.169.6Z" transform="translate(-483.735 -1668.058)" fill="#75c9db"/>
    <path id="Path_1174" data-name="Path 1174" d="M477.578,1591.816h14.673a1.957,1.957,0,0,1,2.18,1.374,2.454,2.454,0,0,1-.862,2.888,2.752,2.752,0,0,1-1.672.549q-14.389-.023-28.779-.013a2.445,2.445,0,0,1-2.269-1.446,2.472,2.472,0,0,1,.266-2.653,1.794,1.794,0,0,1,1.555-.695q7.454,0,14.907,0Z" transform="translate(-424.1 -1550.97)" fill="#75c9db"/>
    <path id="Path_1175" data-name="Path 1175" d="M709.766,2533.28c0,.61.01,1.221,0,1.832-.014.679-.049,1.358-.072,2.038a1.97,1.97,0,0,0,.022.3.822.822,0,0,0,1.3.59.593.593,0,0,0,.192-.329,3.293,3.293,0,0,0,.059-.53,1.1,1.1,0,0,1,.746-1.014,1.06,1.06,0,0,1,1.217.314,2.711,2.711,0,0,1,.6,2.677.95.95,0,0,1-1.624.437,5.6,5.6,0,0,1-.641-.782,1.353,1.353,0,0,1-2.413.243,1.28,1.28,0,0,1-1.258.592c-.8-.017-1.6,0-2.406.019a2.788,2.788,0,0,0-.573.138l.007.15a3.256,3.256,0,0,0,.552.119c.5.022,1,.018,1.5.025.626.011.864.3.767.916a1.523,1.523,0,0,1-1.169,1.242,6.406,6.406,0,0,1-1.662.312,11.8,11.8,0,0,1-2.454-.117,1.7,1.7,0,0,1-1.529-2.087,8.1,8.1,0,0,1,.394-1.439.49.49,0,0,1,.171-.241.363.363,0,0,1,.263-.055c.034.007.068.154.054.228-.051.271-.147.537-.18.81a1.161,1.161,0,0,0,.574,1.158,3.431,3.431,0,0,0,1.724.565,8.839,8.839,0,0,0,2.854-.183,2.572,2.572,0,0,0,.348-.148l-.013-.092c-.157-.013-.315-.031-.473-.037-.566-.02-1.138,0-1.7-.064-.665-.079-.867-.509-.542-1.1a3.064,3.064,0,0,1,2.363-1.556,9.622,9.622,0,0,1,1.164-.07c.508-.016.735-.231.737-.738,0-1-.007-2.006.011-3.008a.733.733,0,0,1,.2-.449c.257-.265.549-.5.827-.739Zm3.634,5.082.087-.041a12.977,12.977,0,0,0-.636-1.29.356.356,0,0,0-.644.016,1.8,1.8,0,0,0,.647,1.645C713.182,2538.857,713.406,2538.722,713.4,2538.361Z" transform="translate(-648.345 -2429.375)" fill="#75c9db"/>
    <path id="Path_1176" data-name="Path 1176" d="M457.83,2572a2.808,2.808,0,0,1-2.349.433c-.5-.08-.75-.479-.916-.969a4.36,4.36,0,0,1-1.931,1.365,6.915,6.915,0,0,1-3.841.284,2.091,2.091,0,0,1-1.223-3.151c.049-.077.169-.109.256-.162.039.086.078.172.116.259a.082.082,0,0,1,0,.033c-.039,1.079.284,1.518,1.329,1.611a8.581,8.581,0,0,0,3.469-.286,4.8,4.8,0,0,0,1.832-1.061,1.42,1.42,0,0,1,.253-.216c.079-.044.205-.09.265-.056a.31.31,0,0,1,.084.256c-.061.54.012.633.556.647.256.006.512,0,.768,0,.044,0,.088,0,.209-.012a.822.822,0,0,1-.208-1.068,2.437,2.437,0,0,1,1.3-1.241,1.122,1.122,0,0,1,1.4.962,1.788,1.788,0,0,1-.342,1.39c.571-.037,1.062-.052,1.547-.109.265-.031.29-.23.142-.417-.227-.287-.477-.556-.746-.864l.783-1.217a6.555,6.555,0,0,1,.545.845,2.65,2.65,0,0,1-.1,2.44,1.337,1.337,0,0,1-1.1.776A2.619,2.619,0,0,1,457.83,2572Zm-.009-2.207c-.255.073-.452.111-.634.184-.213.086-.244.232-.089.417a1.03,1.03,0,0,0,1.344.22c.219-.144.253-.338.046-.481A5,5,0,0,0,457.822,2569.792Z" transform="translate(-411.654 -2462.228)" fill="#75c9db"/>
    <path id="Path_1177" data-name="Path 1177" d="M951.131,2532.03c0,.327.014.636-.011.942-.006.068-.138.152-.228.183-1.09.384-2.183.76-3.275,1.138-.136.047-.271.1-.42.153.2.381.426.74.6,1.121a2.158,2.158,0,0,1-.4,2.5,1.6,1.6,0,0,1-.775.415,4.467,4.467,0,0,1-1.294.01,1.193,1.193,0,0,1-.944-.927,13.293,13.293,0,0,1-1.05.862,5.883,5.883,0,0,1-3.278.865,5.607,5.607,0,0,1-1.675-.2,2.113,2.113,0,0,1-1-3.1c.048-.068.156-.093.236-.138.042.084.084.169.124.254,0,.009,0,.022,0,.033-.041,1.086.269,1.512,1.329,1.612a8.542,8.542,0,0,0,3.472-.281,4.818,4.818,0,0,0,1.856-1.086,1.153,1.153,0,0,1,.227-.195c.081-.043.206-.089.267-.054a.312.312,0,0,1,.082.257c-.063.539.013.646.559.644.466,0,.934-.025,1.4-.069.364-.035.428-.175.235-.486-.328-.53-.674-1.049-1.011-1.574a1.226,1.226,0,0,1,.42-1.359c1.449-.5,2.9-1,4.353-1.495A1.149,1.149,0,0,1,951.131,2532.03Z" transform="translate(-868.687 -2428.281)" fill="#75c9db"/>
    <path id="Path_1178" data-name="Path 1178" d="M1157.2,2579.063l.847-1.262c.2.213.354.394.524.563a1.245,1.245,0,0,0,1.009.494.583.583,0,0,0,.6-.468.742.742,0,0,1,.05-.192,3.3,3.3,0,0,1,.2-.28,1.158,1.158,0,0,1,.211.3c.154.515.259.631.627.635a.537.537,0,0,0,.587-.435,1.172,1.172,0,0,1,.069-.257,1.7,1.7,0,0,1,.188-.242c.072.087.18.163.21.262a.847.847,0,0,0,1.075.665.346.346,0,0,0,.291-.513,6.748,6.748,0,0,0-.395-.693c.082-.116.181-.261.284-.4s.2-.262.3-.4c.054.03.1.038.107.061a3.075,3.075,0,0,1,.043,2.794.983.983,0,0,1-1.194.615,2.562,2.562,0,0,1-.607-.386,4.374,4.374,0,0,1-.92.411c-.377.078-.667-.18-.921-.511a1.2,1.2,0,0,1-1.379.5,3.79,3.79,0,0,1-1.059,2.676.932.932,0,0,1-.6.277,14.623,14.623,0,0,1-1.654-.162c-.115-.015-.216-.126-.324-.193.093-.1.169-.231.282-.291.571-.3,1.163-.557,1.726-.867a3.849,3.849,0,0,0,.794-.6c.45-.433.455-.756.022-1.2C1157.89,2579.653,1157.552,2579.379,1157.2,2579.063Z" transform="translate(-1072.403 -2470.092)" fill="#75c9db"/>
    <path id="Path_1179" data-name="Path 1179" d="M142.545,2570.06c.221-.363.445-.734.672-1.1a.818.818,0,0,1,.135-.119,4.533,4.533,0,0,1,.361.474,4.153,4.153,0,0,1,.357,3.441,2.123,2.123,0,0,1-1.422,1.4,4.829,4.829,0,0,1-2.6.184,1.958,1.958,0,0,1-1.737-2.317,6.281,6.281,0,0,1,.359-1.378c.045-.132.237-.215.362-.32a1.844,1.844,0,0,1,.08.448,6.386,6.386,0,0,1-.119.689.94.94,0,0,0,.5,1.1,3.445,3.445,0,0,0,2.238.333,5.915,5.915,0,0,0,1.492-.431.67.67,0,0,0,.32-1.133C143.254,2570.893,142.9,2570.5,142.545,2570.06Z" transform="translate(-123.382 -2462.626)" fill="#75c9db"/>
    <path id="Path_1180" data-name="Path 1180" d="M272.855,2572.365l.842-1.265c.215.224.4.406.574.6a1.49,1.49,0,0,0,1.655.358c.213-.053.259-.211.122-.381a8.752,8.752,0,0,0-.616-.7.24.24,0,0,1-.039-.369c.217-.305.416-.623.637-.958a2.122,2.122,0,0,1,.8,1.486,2.536,2.536,0,0,1-.228,1.56,1.5,1.5,0,0,1-1.633.951c-.1-.006-.194-.018-.308-.028a3.972,3.972,0,0,1-.508,1.956c-.056.1-.119.188-.176.283a1.275,1.275,0,0,1-1.466.711c-.4-.084-.815-.1-1.219-.168-.095-.016-.175-.115-.262-.176.071-.089.124-.213.216-.262.647-.344,1.307-.662,1.951-1.011a2.941,2.941,0,0,0,.607-.466c.48-.457.487-.8.014-1.275C273.522,2572.926,273.2,2572.668,272.855,2572.365Z" transform="translate(-247.228 -2463.387)" fill="#75c9db"/>
    <path id="Path_1181" data-name="Path 1181" d="M384.8,2535.259c-.026.382-.049.764-.08,1.146q-.19,2.342-.384,4.683c0,.056.01.122-.015.164a2.983,2.983,0,0,1-.205.276c-.076-.085-.2-.161-.22-.257-.086-.491-.149-.987-.209-1.483-.132-1.091-.252-2.183-.39-3.274a.4.4,0,0,1,.189-.442c.414-.276.812-.575,1.216-.865Z" transform="translate(-351.976 -2431.246)" fill="#75c9db"/>
    <path id="Path_1182" data-name="Path 1182" d="M242.343,2535.212c-.032.452-.059.9-.1,1.356-.125,1.507-.249,3.014-.388,4.519-.012.13-.129.251-.2.377-.085-.116-.228-.223-.245-.348-.151-1.112-.28-2.226-.414-3.34-.056-.463-.108-.927-.155-1.392-.008-.081-.01-.206.037-.242.445-.341.9-.667,1.356-1Z" transform="translate(-219.066 -2431.186)" fill="#75c9db"/>
    <path id="Path_1183" data-name="Path 1183" d="M334.253,2644.088c-.237.2-.424.375-.632.521a.282.282,0,0,1-.268-.012,6.626,6.626,0,0,1-.5-.554l-.543.751-.693-.8a5.828,5.828,0,0,1,.494-.5.308.308,0,0,1,.3.022,5.223,5.223,0,0,1,.481.556,3.923,3.923,0,0,1,.415-.544.334.334,0,0,1,.321-.02A7,7,0,0,1,334.253,2644.088Z" transform="translate(-303.765 -2532.261)" fill="#75c9db"/>
    <path id="Path_1184" data-name="Path 1184" d="M1238.082,2552.008l-.649-.614-.488.671-.083-.08a.586.586,0,0,1-.087-.047c-.681-.538-.67-.746.086-1.267l.585.552.615-.578.722.672Z" transform="translate(-1147.903 -2445.65)" fill="#75c9db"/>
    <path id="Path_1185" data-name="Path 1185" d="M485.493,2560.667l.519-.665.774.725-.755.695-.479-.658-.7.668-.655-.749.7-.58Z" transform="translate(-446.139 -2454.381)" fill="#75c9db"/>
    <path id="Path_1186" data-name="Path 1186" d="M974.318,2559.658l.629.593.493-.691.8.751-.717.679-.592-.565-.618.588-.678-.713Z" transform="translate(-902.83 -2453.969)" fill="#75c9db"/>
    <path id="Path_1187" data-name="Path 1187" d="M598.629,2541.354l-.759.738-.626-.606c-.008-.008-.021-.014-.023-.023-.068-.354.282-.43.437-.634a.33.33,0,0,1,.312-.076A8.3,8.3,0,0,1,598.629,2541.354Z" transform="translate(-551.593 -2436.405)" fill="#75c9db"/>
    <path id="Path_1188" data-name="Path 1188" d="M634.579,2540.778l.75-.694.758.707c-.226.229-.427.448-.649.643-.042.037-.194.009-.25-.041C634.99,2541.216,634.812,2541.017,634.579,2540.778Z" transform="translate(-586.458 -2435.796)" fill="#75c9db"/>
    <path id="Path_1189" data-name="Path 1189" d="M173.827,2555.255l.8.76c-.248.205-.452.394-.679.548a.327.327,0,0,1-.3-.028c-.2-.156-.373-.346-.566-.531Z" transform="translate(-155.836 -2449.951)" fill="#75c9db"/>
    <path id="Path_1190" data-name="Path 1190" d="M1244.821,2536.719l-.644-.672c.183-.189.35-.379.539-.544a.256.256,0,0,1,.247,0c.2.159.372.344.568.531Z" transform="translate(-1155.272 -2431.491)" fill="#75c9db"/>
  </g>
</svg>
