<svg xmlns="http://www.w3.org/2000/svg" width="111.528" height="94.469" viewBox="0 0 111.528 94.469">
  <g id="Group_1551" data-name="Group 1551" transform="translate(1.249 0.5)">
    <path id="Path_1217" data-name="Path 1217" d="M420.7,2151.345c7.436,0,14.872-.019,22.308,0a19.575,19.575,0,0,1,18.241,25.947,20.319,20.319,0,0,1-4.9,7.708q-17.445,17.35-34.833,34.758c-.677.678-1.03.795-1.781.046-11.75-11.736-23.587-23.384-35.3-35.159-10.445-10.5-5.676-28.474,8.58-32.592a19.012,19.012,0,0,1,5.373-.724C405.827,2151.362,413.263,2151.344,420.7,2151.345Zm5.295,56.147c.78-.721,1.371-1.233,1.923-1.782q12.316-12.267,24.63-24.535a14.345,14.345,0,0,0,4.068-7.267c1.816-8.361-4.411-16.812-12.815-17.123-5.652-.21-11.318-.04-16.977-.068-.662,0-.857.186-.854.852.03,5.223.042,10.447,0,15.669-.006.835.306.987,1.025.958,1.054-.042,2.112.01,3.167-.014a4.083,4.083,0,0,0,4.3-4.172c.069-1.26.067-2.527.026-3.788-.027-.825.264-1.087,1.1-1.067,2.153.051,4.308-.022,6.462.007,3.009.041,5.133,1.387,5.983,3.792.907,2.567.083,4.646-1.8,6.5q-9.807,9.679-19.547,19.426c-.318.316-.709.576-.707,1.131C426,2199.74,425.993,2203.469,425.993,2207.492Zm-11.052-.14c.142-.2.222-.261.223-.322.012-3.623.007-7.246.035-10.868a1.568,1.568,0,0,0-.608-1.18q-7.712-7.667-15.42-15.338c-1.79-1.783-3.685-3.482-5.3-5.41a5.112,5.112,0,0,1-.622-5.609,5.871,5.871,0,0,1,5.714-3.464c2.2-.04,4.4.045,6.589-.04.969-.038,1.169.379,1.16,1.176-.016,1.3-.091,2.615,0,3.913a3.974,3.974,0,0,0,4.082,3.971c1.135.069,2.283-.078,3.418-.012.825.048.967-.264.965-1.006-.015-5.1-.014-10.2.051-15.294.013-.986-.314-1.178-1.225-1.17-5.323.042-10.647.02-15.97.03a12.406,12.406,0,0,0-4.451.85,14.181,14.181,0,0,0-5,23.585q10.515,10.515,21.048,21.011C411.371,2203.913,413.156,2205.615,414.941,2207.352Zm9.848-24.382h.018c0-8.336-.018-16.671.023-25.007,0-1-.282-1.3-1.264-1.264-1.982.065-3.971.083-5.95-.011-1.095-.052-1.3.323-1.3,1.342.032,15.324.136,30.65-.069,45.972-.048,3.556.71,6.3,3.632,8.338a.353.353,0,0,1,.088.09c.4.6.753.441,1.185,0,.88-.906,1.77-1.809,2.72-2.639a2.608,2.608,0,0,0,.932-2.187C424.775,2199.389,424.79,2191.179,424.79,2182.97Z" transform="translate(-365.606 -2151.332)" fill="#75c9db" stroke="rgba(0,0,0,0)" stroke-width="1"/>
    <path id="Path_1218" data-name="Path 1218" d="M466.607,2439.267c-1.913,2.411-4.276,4.392-6.388,6.611-.493.518-1.032.991-1.545,1.49a4.753,4.753,0,0,1-5.9.765c-.283-.153-.51-.62-.978-.256-1.376,1.072-3.006.943-4.609.93-.507,0-1.016-.028-1.52.008a1.834,1.834,0,0,0-1.918,1.779,1.868,1.868,0,0,0,1.935,1.907c1.35.056,2.7.016,4.055.017,3.314,0,6.628,0,10.117.292-.762.7-1.54,1.38-2.277,2.1a1.308,1.308,0,0,1-1.051.293c-3.59,0-7.181.006-10.771-.01a4.559,4.559,0,1,1-.442-9.107c1.215-.112,2.447-.051,3.671-.065,1.182-.014,1.637-.736,1.687-1.784a1.729,1.729,0,0,0-1.732-1.753c-1.856-.018-3.712-.005-5.56-.005-.175-.446.228-.517.4-.694,2.319-2.328,4.694-4.6,6.956-6.982a3.545,3.545,0,0,1,3.209-1.247,18.251,18.251,0,0,0,1.9.01l-6.229,5.759.258.416a4.834,4.834,0,0,1,3.641,4.633,1.654,1.654,0,0,0,1.223,1.6,2.017,2.017,0,0,0,2.059-.633c1.847-1.9,3.735-3.759,5.581-5.66a2.045,2.045,0,0,1,1.5-.8Z" transform="translate(-411.998 -2361.957)" fill="#75c9db" stroke="rgba(0,0,0,0)" stroke-width="1"/>
    <path id="Path_1219" data-name="Path 1219" d="M363.56,2440.773c.978,1.448,1.822,2.933,1.29,4.785-.156.545.2.518.556.517,2.83-.007,5.661.005,8.491-.028a1.81,1.81,0,0,0,1.651-1.742,1.834,1.834,0,0,0-1.807-1.773c-1.857-.034-3.715-.009-5.56-.009-.173-.442.2-.549.379-.728,2.409-2.421,4.85-4.812,7.239-7.252a2.62,2.62,0,0,1,2.31-.955,21.384,21.384,0,0,0,2.356.017l-5.962,5.933c.783.453,1.376.732,1.9,1.109a4.508,4.508,0,0,1-2.573,8.175q-5.259.042-10.519,0a1.733,1.733,0,0,0-1.653.669c-1.467,2.206-3.55,2.736-6.027,2.19l2.895-2.645c-.265-.758-.717-.85-1.022-1.1a4.621,4.621,0,0,1,5.482-7.437c.171.115.3.3.546.247Zm-1.388,3.468a1.854,1.854,0,0,0-1.914-1.768,1.834,1.834,0,0,0-1.743,1.914,1.775,1.775,0,0,0,1.831,1.684A1.829,1.829,0,0,0,362.172,2444.241Z" transform="translate(-348.312 -2361.988)" fill="#75c9db" stroke="rgba(0,0,0,0)" stroke-width="1"/>
    <path id="Path_1220" data-name="Path 1220" d="M510.773,2464.363c3.031-3.053,5.846-6.053,8.847-8.856,2.369-2.213,6.089-1.065,7.214,2.127.318.9.684,1.259,1.667,1.143,1-.118,2.024.012,3.035-.037.645-.031.9.134.865.826-.057,1.176.035,2.359-.044,3.533-.029.44.526,1.285-.6,1.269-.939-.013-2.191.07-2.1-1.179.139-1.891-.908-1.75-2.118-1.648-.168.014-.338,0-.506,0-.843-.01-1.879.276-2.479-.11-.69-.444-.127-1.551-.231-2.366a1.826,1.826,0,0,0-3.259-1.148c-1.74,1.77-3.553,3.472-5.246,5.285a3.044,3.044,0,0,1-2.73,1.174A22.609,22.609,0,0,0,510.773,2464.363Z" transform="translate(-464.106 -2377.506)" fill="#75c9db" stroke="rgba(0,0,0,0)" stroke-width="1"/>
    <path id="Path_1221" data-name="Path 1221" d="M721.935,2438.806c.1.308.114.347.121.388a5.558,5.558,0,0,1-2.3,5.908,22.277,22.277,0,0,0-2.448,2.362,4.445,4.445,0,0,1-5.136.958,4.208,4.208,0,0,1-2.7-4.184c-.016-3.239.037-6.479-.022-9.717-.029-1.587,1.086-.807,1.745-.954.816-.181,1.065.156,1.048,1-.06,3.07-.05,6.142-.026,9.213.013,1.6.753,2.318,2.076,2.231a1.915,1.915,0,0,0,1.258-.751C717.654,2443.155,719.738,2441.033,721.935,2438.806Z" transform="translate(-612.398 -2361.937)" fill="#75c9db" stroke="rgba(0,0,0,0)" stroke-width="1"/>
    <path id="Path_1222" data-name="Path 1222" d="M629.6,2454.221c0,1.308-.026,2.271.01,3.232a1.6,1.6,0,0,1-.567,1.31c-1.96,1.915-3.884,3.865-5.817,5.807-.543.545-1.047,1.081-.751,1.98a1.836,1.836,0,0,0,1.893,1.344c.927.028,1.854.052,2.782.065.743.01,1.486,0,2.23,0l.194.32q-1.134,1-2.269,1.993a1.571,1.571,0,0,1-.4.3c-1.959.8-5.373-.211-6.513-1.927-1.3-1.956-1.016-4.166.849-6.058C623.931,2459.863,626.652,2457.171,629.6,2454.221Z" transform="translate(-545.328 -2377.401)" fill="#75c9db" stroke="rgba(0,0,0,0)" stroke-width="1"/>
    <path id="Path_1223" data-name="Path 1223" d="M664.969,2439.337c0,1.515-.018,3.031.011,4.546a3.489,3.489,0,0,0,.249,1.346,1.22,1.22,0,0,0,1.173.826c.628-.086.262-.677.3-1.037a1.779,1.779,0,0,1,2.436-1.764c.509.107.439.414.44.736.007,1.389-.013,2.779.016,4.168.012.544-.164.752-.724.719-.673-.039-1.351.025-2.025,0a4.5,4.5,0,0,1-4.686-4.6c-.092-3.281-.016-6.568-.043-9.852-.005-.6.163-.853.785-.792a6,6,0,0,0,1.265-.007c.624-.071.792.188.781.78-.032,1.642-.011,3.284-.011,4.927Z" transform="translate(-577.06 -2362.025)" fill="#75c9db" stroke="rgba(0,0,0,0)" stroke-width="1"/>
    <path id="Path_1224" data-name="Path 1224" d="M613.443,2454.667c-.317-2.165-.412-4.18,1.721-5.593a7.649,7.649,0,0,0,1.658-1.718,1.728,1.728,0,0,0-1.271-2.919,3.007,3.007,0,0,0-.882-.023c-1.127.209-1.338-.249-1.39-1.339-.067-1.4.521-1.522,1.664-1.5,2.169.049,3.851.8,4.763,2.846.841,1.887.411,3.628-1.3,5.349C616.777,2451.406,615.124,2453.011,613.443,2454.667Z" transform="translate(-540.609 -2367.964)" fill="#75c9db" stroke="rgba(0,0,0,0)" stroke-width="1"/>
    <path id="Path_1225" data-name="Path 1225" d="M601.78,2441.237c0,2.19-.036,4.381.019,6.57.02.794-.137,1.094-1.014,1.073-1.817-.042-1.815.014-1.815-1.775,0-4.127.02-8.256-.029-12.383-.01-.855.15-1.162,1.082-1.122,1.753.075,1.756.012,1.757,1.7Q601.781,2438.267,601.78,2441.237Z" transform="translate(-529.911 -2362.009)" fill="#75c9db" stroke="rgba(0,0,0,0)" stroke-width="1"/>
    <path id="Path_1226" data-name="Path 1226" d="M681.49,2481.29a11.923,11.923,0,0,1,1.9-2.031,3.935,3.935,0,0,0,1.466-2.542c.152-2.708.185-2.706,2.754-4.692-.077,2.131.212,4.126-.164,6.088a3.643,3.643,0,0,1-3.971,3.177C682.886,2481.288,682.3,2481.29,681.49,2481.29Z" transform="translate(-591.525 -2390.69)" fill="#75c9db" stroke="rgba(0,0,0,0)" stroke-width="1"/>
    <path id="Path_1227" data-name="Path 1227" d="M326.772,2477.992c.623-.593.957-.962,1.341-1.269,1.558-1.247,2.634-2.687,2.26-4.845-.133-.77.568-1.169,1.012-1.647.48-.516,1.015-.981,1.64-1.577,0,2.07.129,3.988-.034,5.88a3.605,3.605,0,0,1-3.96,3.458Z" transform="translate(-326.772 -2388.174)" fill="#75c9db" stroke="rgba(0,0,0,0)" stroke-width="1"/>
    <path id="Path_1228" data-name="Path 1228" d="M543.69,2484c-.139.559-.66.83-1.029,1.209s-.617-.087-.807-.286c-.68-.713-1.289-1-1.949.023-.306.474-.738.6-1.047,0-.254-.489-1.343-.722-.5-1.588.628-.646,1.21-1.039,1.926-.129.507.645.934.47,1.366-.123.2-.274.434-.746.892-.427A2.6,2.6,0,0,1,543.69,2484Z" transform="translate(-484.46 -2398.56)" fill="#75c9db" stroke="rgba(0,0,0,0)" stroke-width="1"/>
    <path id="Path_1229" data-name="Path 1229" d="M534.075,2446.761l-2.723-.375a10.685,10.685,0,0,1,2.721-.014c.081-.278-.1-.405-.242-.54a1.308,1.308,0,0,1,.478-2.239c.651-.169.813.586,1.246.857.3.186.5.478.17.829C535.218,2445.821,534.859,2446.527,534.075,2446.761Z" transform="translate(-479.466 -2369.451)" fill="#75c9db" stroke="rgba(0,0,0,0)" stroke-width="1"/>
    <path id="Path_1230" data-name="Path 1230" d="M497.254,2461.91c-.27.412.469.972-.231,1.348-.492.265-.8,1.183-1.526.48-.368-.356-1.194-.719-.722-1.349.378-.5.766-1.572,1.825-.825.014.01.108-.091.165-.14l-.011-.017c-.174.517.018.668.516.516Z" transform="translate(-452.06 -2382.689)" fill="#75c9db" stroke="rgba(0,0,0,0)" stroke-width="1"/>
    <path id="Path_1231" data-name="Path 1231" d="M511.512,2448.614c-.6-.327-1.3-.752-1.379-1.339-.078-.616.641-1.092,1.188-1.438.261-.166,1.609.981,1.526,1.3C512.67,2447.826,512.089,2448.2,511.512,2448.614Z" transform="translate(-463.624 -2371.132)" fill="#75c9db" stroke="rgba(0,0,0,0)" stroke-width="1"/>
    <path id="Path_1232" data-name="Path 1232" d="M394.185,2447.487c-.578-.373-1.3-.821-1.352-1.38-.058-.684.783-1.318,1.337-1.418.573-.1,1.186.679,1.257,1.306C395.508,2446.719,394.7,2447.005,394.185,2447.487Z" transform="translate(-376.076 -2370.28)" fill="#75c9db" stroke="rgba(0,0,0,0)" stroke-width="1"/>
    <path id="Path_1233" data-name="Path 1233" d="M400.779,2452.521c.505.546,1.281,1.014,1.348,1.567.061.506-.756,1.278-1.292,1.31a1.32,1.32,0,0,1-1.213-1.36C399.646,2453.385,400.225,2453,400.779,2452.521Z" transform="translate(-381.144 -2376.133)" fill="#75c9db" stroke="rgba(0,0,0,0)" stroke-width="1"/>
    <path id="Path_1234" data-name="Path 1234" d="M502.695,2455.689c.1-.383-.354-.835.062-1.146.435-.325.726-1.212,1.355-.825.46.283,1.358.722.956,1.531-.337.678-.854,1.443-1.884.926l.018.012c.069-.412-.133-.554-.517-.515Z" transform="translate(-457.99 -2376.955)" fill="#75c9db" stroke="rgba(0,0,0,0)" stroke-width="1"/>
    <path id="Path_1235" data-name="Path 1235" d="M648.326,2446.086c.5.49,1.348.838,1.3,1.456a1.48,1.48,0,0,1-1.388,1.224c-.629-.041-1.386-.674-1.3-1.292C647.02,2446.944,647.694,2446.424,648.326,2446.086Z" transform="translate(-565.735 -2371.329)" fill="#75c9db" stroke="rgba(0,0,0,0)" stroke-width="1"/>
    <path id="Path_1236" data-name="Path 1236" d="M386.783,2455.892c.452-.393-.314-1.1.476-1.51.563-.294.926-.862,1.6-.233.522.49.8,1,.26,1.623-.478.554-.99.944-1.648.177-.141-.164-.417-.532-.655-.03Z" transform="translate(-371.563 -2377.135)" fill="#75c9db" stroke="rgba(0,0,0,0)" stroke-width="1"/>
    <path id="Path_1237" data-name="Path 1237" d="M695.623,2462.095c.678.3,1.312.813,1.3,1.454a1.431,1.431,0,0,1-1.328,1.275,1.368,1.368,0,0,1-1.223-1.262C694.391,2462.894,695.079,2462.479,695.623,2462.095Z" transform="translate(-601.136 -2383.278)" fill="#75c9db" stroke="rgba(0,0,0,0)" stroke-width="1"/>
    <path id="Path_1238" data-name="Path 1238" d="M546.925,2492.519c-.384.419-.751,1.125-1.433,1.147a1.382,1.382,0,0,1-1.3-1.171c-.017-.618.723-1.061,1.223-1.494C545.553,2490.883,546.9,2492.146,546.925,2492.519Z" transform="translate(-489.051 -2404.847)" fill="#75c9db" stroke="rgba(0,0,0,0)" stroke-width="1"/>
    <path id="Path_1239" data-name="Path 1239" d="M502.811,2461.684c.384-.038.585.1.517.516C502.83,2462.352,502.637,2462.2,502.811,2461.684Z" transform="translate(-458.117 -2382.967)" fill="#75c9db" stroke="rgba(0,0,0,0)" stroke-width="1"/>
  </g>
</svg>
