<svg xmlns="http://www.w3.org/2000/svg" xmlns:xlink="http://www.w3.org/1999/xlink" width="1003.44" height="521.776" viewBox="0 0 1003.44 521.776">
  <defs>
    <filter id="Path_1247" x="0" y="0" width="1003.44" height="521.776" filterUnits="userSpaceOnUse">
      <feOffset dx="8" dy="8" input="SourceAlpha"/>
      <feGaussianBlur stdDeviation="18" result="blur"/>
      <feFlood flood-color="#a0bdc1" flood-opacity="0.502"/>
      <feComposite operator="in" in2="blur"/>
    </filter>
    <filter id="Path_1247-2" x="0" y="0" width="1003.44" height="521.776" filterUnits="userSpaceOnUse">
      <feOffset dy="-90" input="SourceAlpha"/>
      <feGaussianBlur stdDeviation="49.5" result="blur-2"/>
      <feFlood flood-opacity="0.039" result="color"/>
      <feComposite operator="out" in="SourceGraphic" in2="blur-2"/>
      <feComposite operator="in" in="color"/>
      <feComposite operator="in" in2="SourceGraphic"/>
    </filter>
  </defs>
  <g data-type="innerShadowGroup">
    <g transform="matrix(1, 0, 0, 1, 0, 0)" filter="url(#Path_1247)">
      <g id="Path_1247-3" data-name="Path 1247" transform="translate(941.44 -46.78) rotate(90)" fill="#fff">
        <path d="M 466.250244140625 894.9397583007812 L 133.0943450927734 894.9397583007812 C 127.7221298217773 894.9397583007812 122.5107955932617 893.848388671875 117.6049041748047 891.6961669921875 C 112.8647994995117 889.6166381835938 108.6074600219727 886.6392822265625 104.9509048461914 882.8466186523438 C 101.2932434082031 879.0528564453125 98.42134857177734 874.6346435546875 96.41513061523438 869.715087890625 C 94.33768463134766 864.6207275390625 93.28435516357422 859.208740234375 93.28435516357422 853.6295166015625 L 93.28435516357422 68.52217864990234 C 93.28435516357422 62.9427375793457 94.33768463134766 57.5306282043457 96.41513061523438 52.43629455566406 C 98.42134857177734 47.51662826538086 101.2931289672852 43.09851455688477 104.9509048461914 39.30473709106445 C 108.6074600219727 35.51218032836914 112.8647994995117 32.53495788574219 117.6049041748047 30.45551490783691 C 122.5106887817383 28.30329322814941 127.7221298217773 27.21207046508789 133.0943450927734 27.21207046508789 L 204.8829040527344 27.21207046508789 L 205.08935546875 27.21207046508789 L 205.2356872558594 27.06640434265137 L 231.7091369628906 0.7055636644363403 L 258.1835632324219 27.06640434265137 L 258.3298950195312 27.21207046508789 L 258.5363464355469 27.21207046508789 L 466.250244140625 27.21207046508789 C 471.6226806640625 27.21207046508789 476.834228515625 28.30329322814941 481.7401428222656 30.45551490783691 C 486.4802551269531 32.53484725952148 490.7375793457031 35.51218032836914 494.3940124511719 39.30473709106445 C 498.0516967773438 43.09851455688477 500.92333984375 47.51662826538086 502.9294738769531 52.43629455566406 C 505.0068054199219 57.5306282043457 506.0601196289062 62.9427375793457 506.0601196289062 68.52217864990234 L 506.0601196289062 853.6295166015625 C 506.0601196289062 859.208740234375 505.0068054199219 864.6207275390625 502.9294738769531 869.715087890625 C 500.92333984375 874.634765625 498.0515747070312 879.0528564453125 494.3940124511719 882.8466186523438 C 490.7375793457031 886.6392822265625 486.4801330566406 889.6166381835938 481.7401428222656 891.6961669921875 C 476.834228515625 893.848388671875 471.6226806640625 894.9397583007812 466.250244140625 894.9397583007812 Z" stroke="none"/>
        <path d="M 466.250244140625 894.4397583007812 C 471.5530090332031 894.4397583007812 476.697021484375 893.3626098632812 481.5392456054688 891.23828125 C 486.21923828125 889.1851806640625 490.4231262207031 886.2450561523438 494.0340270996094 882.4996337890625 C 497.6473388671875 878.751708984375 500.4844665527344 874.3868408203125 502.4664611816406 869.5263061523438 C 504.5192260742188 864.4921875 505.5601196289062 859.1437377929688 505.5601196289062 853.6295166015625 L 505.5601196289062 68.52217864990234 C 505.5601196289062 63.00773620605469 504.5192260742188 57.65918350219727 502.4664611816406 52.62507247924805 C 500.4844665527344 47.764404296875 497.6473388671875 43.39962768554688 494.0340270996094 39.65173721313477 C 490.4231262207031 35.90640258789062 486.21923828125 32.96640396118164 481.5392456054688 30.91340446472168 C 476.6971435546875 28.78918266296387 471.5531311035156 27.71207046508789 466.250244140625 27.71207046508789 L 258.1233520507812 27.71207046508789 L 257.830810546875 27.42073822021484 L 231.7091369628906 1.411167621612549 L 205.2959136962891 27.71207046508789 L 133.0943450927734 27.71207046508789 C 127.7916870117188 27.71207046508789 122.6479110717773 28.78918266296387 117.8056869506836 30.91340446472168 C 113.1256866455078 32.96640396118164 108.9217987060547 35.90651702880859 105.310905456543 39.65173721313477 C 101.6973495483398 43.39962768554688 98.86024475097656 47.7645149230957 96.87812805175781 52.62507247924805 C 94.82524108886719 57.65918350219727 93.78435516357422 63.00773620605469 93.78435516357422 68.52217864990234 L 93.78435516357422 853.6295166015625 C 93.78435516357422 859.1437377929688 94.82524108886719 864.4920654296875 96.87812805175781 869.5261840820312 C 98.86024475097656 874.3868408203125 101.6974639892578 878.751708984375 105.310905456543 882.4996337890625 C 108.9219055175781 886.2450561523438 113.1257934570312 889.1851806640625 117.805793762207 891.23828125 C 122.6479110717773 893.3626098632812 127.7917938232422 894.4397583007812 133.0943450927734 894.4397583007812 L 466.250244140625 894.4397583007812 M 466.250244140625 895.4397583007812 L 133.0943450927734 895.4397583007812 C 110.8320159912109 895.4397583007812 92.78435516357422 876.7203979492188 92.78435516357422 853.6295166015625 L 92.78435516357422 68.52217864990234 C 92.78435516357422 45.43029403686523 110.8320159912109 26.71207046508789 133.0943450927734 26.71207046508789 L 204.8829040527344 26.71207046508789 L 231.7091369628906 -4.025607631774619e-05 L 258.5363464355469 26.71207046508789 L 466.250244140625 26.71207046508789 C 488.5135803222656 26.71207046508789 506.5601196289062 45.43029403686523 506.5601196289062 68.52217864990234 L 506.5601196289062 853.6295166015625 C 506.5601196289062 876.7203979492188 488.5135803222656 895.4397583007812 466.250244140625 895.4397583007812 Z" stroke="none" fill="#cbcbcb"/>
      </g>
    </g>
    <g id="Path_1247-4" data-name="Path 1247" transform="translate(941.44 -46.784) rotate(90)" fill="#fff">
      <path d="M 466.250244140625 894.9397583007812 L 133.0943450927734 894.9397583007812 C 127.7221298217773 894.9397583007812 122.5107955932617 893.848388671875 117.6049041748047 891.6961669921875 C 112.8647994995117 889.6166381835938 108.6074600219727 886.6392822265625 104.9509048461914 882.8466186523438 C 101.2932434082031 879.0528564453125 98.42134857177734 874.6346435546875 96.41513061523438 869.715087890625 C 94.33768463134766 864.6207275390625 93.28435516357422 859.208740234375 93.28435516357422 853.6295166015625 L 93.28435516357422 68.52217864990234 C 93.28435516357422 62.9427375793457 94.33768463134766 57.5306282043457 96.41513061523438 52.43629455566406 C 98.42134857177734 47.51662826538086 101.2931289672852 43.09851455688477 104.9509048461914 39.30473709106445 C 108.6074600219727 35.51218032836914 112.8647994995117 32.53495788574219 117.6049041748047 30.45551490783691 C 122.5106887817383 28.30329322814941 127.7221298217773 27.21207046508789 133.0943450927734 27.21207046508789 L 204.8829040527344 27.21207046508789 L 205.08935546875 27.21207046508789 L 205.2356872558594 27.06640434265137 L 231.7091369628906 0.7055636644363403 L 258.1835632324219 27.06640434265137 L 258.3298950195312 27.21207046508789 L 258.5363464355469 27.21207046508789 L 466.250244140625 27.21207046508789 C 471.6226806640625 27.21207046508789 476.834228515625 28.30329322814941 481.7401428222656 30.45551490783691 C 486.4802551269531 32.53484725952148 490.7375793457031 35.51218032836914 494.3940124511719 39.30473709106445 C 498.0516967773438 43.09851455688477 500.92333984375 47.51662826538086 502.9294738769531 52.43629455566406 C 505.0068054199219 57.5306282043457 506.0601196289062 62.9427375793457 506.0601196289062 68.52217864990234 L 506.0601196289062 853.6295166015625 C 506.0601196289062 859.208740234375 505.0068054199219 864.6207275390625 502.9294738769531 869.715087890625 C 500.92333984375 874.634765625 498.0515747070312 879.0528564453125 494.3940124511719 882.8466186523438 C 490.7375793457031 886.6392822265625 486.4801330566406 889.6166381835938 481.7401428222656 891.6961669921875 C 476.834228515625 893.848388671875 471.6226806640625 894.9397583007812 466.250244140625 894.9397583007812 Z" stroke="none"/>
      <path d="M 466.250244140625 894.4397583007812 C 471.5530090332031 894.4397583007812 476.697021484375 893.3626098632812 481.5392456054688 891.23828125 C 486.21923828125 889.1851806640625 490.4231262207031 886.2450561523438 494.0340270996094 882.4996337890625 C 497.6473388671875 878.751708984375 500.4844665527344 874.3868408203125 502.4664611816406 869.5263061523438 C 504.5192260742188 864.4921875 505.5601196289062 859.1437377929688 505.5601196289062 853.6295166015625 L 505.5601196289062 68.52217864990234 C 505.5601196289062 63.00773620605469 504.5192260742188 57.65918350219727 502.4664611816406 52.62507247924805 C 500.4844665527344 47.764404296875 497.6473388671875 43.39962768554688 494.0340270996094 39.65173721313477 C 490.4231262207031 35.90640258789062 486.21923828125 32.96640396118164 481.5392456054688 30.91340446472168 C 476.6971435546875 28.78918266296387 471.5531311035156 27.71207046508789 466.250244140625 27.71207046508789 L 258.1233520507812 27.71207046508789 L 257.830810546875 27.42073822021484 L 231.7091369628906 1.411167621612549 L 205.2959136962891 27.71207046508789 L 133.0943450927734 27.71207046508789 C 127.7916870117188 27.71207046508789 122.6479110717773 28.78918266296387 117.8056869506836 30.91340446472168 C 113.1256866455078 32.96640396118164 108.9217987060547 35.90651702880859 105.310905456543 39.65173721313477 C 101.6973495483398 43.39962768554688 98.86024475097656 47.7645149230957 96.87812805175781 52.62507247924805 C 94.82524108886719 57.65918350219727 93.78435516357422 63.00773620605469 93.78435516357422 68.52217864990234 L 93.78435516357422 853.6295166015625 C 93.78435516357422 859.1437377929688 94.82524108886719 864.4920654296875 96.87812805175781 869.5261840820312 C 98.86024475097656 874.3868408203125 101.6974639892578 878.751708984375 105.310905456543 882.4996337890625 C 108.9219055175781 886.2450561523438 113.1257934570312 889.1851806640625 117.805793762207 891.23828125 C 122.6479110717773 893.3626098632812 127.7917938232422 894.4397583007812 133.0943450927734 894.4397583007812 L 466.250244140625 894.4397583007812 M 466.250244140625 895.4397583007812 L 133.0943450927734 895.4397583007812 C 110.8320159912109 895.4397583007812 92.78435516357422 876.7203979492188 92.78435516357422 853.6295166015625 L 92.78435516357422 68.52217864990234 C 92.78435516357422 45.43029403686523 110.8320159912109 26.71207046508789 133.0943450927734 26.71207046508789 L 204.8829040527344 26.71207046508789 L 231.7091369628906 -4.025607631774619e-05 L 258.5363464355469 26.71207046508789 L 466.250244140625 26.71207046508789 C 488.5135803222656 26.71207046508789 506.5601196289062 45.43029403686523 506.5601196289062 68.52217864990234 L 506.5601196289062 853.6295166015625 C 506.5601196289062 876.7203979492188 488.5135803222656 895.4397583007812 466.250244140625 895.4397583007812 Z" stroke="none"/>
    </g>
    <g transform="matrix(1, 0, 0, 1, 0, 0)" filter="url(#Path_1247-2)">
      <g id="Path_1247-5" data-name="Path 1247" transform="translate(941.44 -46.78) rotate(90)" fill="#fff">
        <path d="M 466.250244140625 894.9397583007812 L 133.0943450927734 894.9397583007812 C 127.7221298217773 894.9397583007812 122.5107955932617 893.848388671875 117.6049041748047 891.6961669921875 C 112.8647994995117 889.6166381835938 108.6074600219727 886.6392822265625 104.9509048461914 882.8466186523438 C 101.2932434082031 879.0528564453125 98.42134857177734 874.6346435546875 96.41513061523438 869.715087890625 C 94.33768463134766 864.6207275390625 93.28435516357422 859.208740234375 93.28435516357422 853.6295166015625 L 93.28435516357422 68.52217864990234 C 93.28435516357422 62.9427375793457 94.33768463134766 57.5306282043457 96.41513061523438 52.43629455566406 C 98.42134857177734 47.51662826538086 101.2931289672852 43.09851455688477 104.9509048461914 39.30473709106445 C 108.6074600219727 35.51218032836914 112.8647994995117 32.53495788574219 117.6049041748047 30.45551490783691 C 122.5106887817383 28.30329322814941 127.7221298217773 27.21207046508789 133.0943450927734 27.21207046508789 L 204.8829040527344 27.21207046508789 L 205.08935546875 27.21207046508789 L 205.2356872558594 27.06640434265137 L 231.7091369628906 0.7055636644363403 L 258.1835632324219 27.06640434265137 L 258.3298950195312 27.21207046508789 L 258.5363464355469 27.21207046508789 L 466.250244140625 27.21207046508789 C 471.6226806640625 27.21207046508789 476.834228515625 28.30329322814941 481.7401428222656 30.45551490783691 C 486.4802551269531 32.53484725952148 490.7375793457031 35.51218032836914 494.3940124511719 39.30473709106445 C 498.0516967773438 43.09851455688477 500.92333984375 47.51662826538086 502.9294738769531 52.43629455566406 C 505.0068054199219 57.5306282043457 506.0601196289062 62.9427375793457 506.0601196289062 68.52217864990234 L 506.0601196289062 853.6295166015625 C 506.0601196289062 859.208740234375 505.0068054199219 864.6207275390625 502.9294738769531 869.715087890625 C 500.92333984375 874.634765625 498.0515747070312 879.0528564453125 494.3940124511719 882.8466186523438 C 490.7375793457031 886.6392822265625 486.4801330566406 889.6166381835938 481.7401428222656 891.6961669921875 C 476.834228515625 893.848388671875 471.6226806640625 894.9397583007812 466.250244140625 894.9397583007812 Z" stroke="none"/>
        <path d="M 466.250244140625 894.4397583007812 C 471.5530090332031 894.4397583007812 476.697021484375 893.3626098632812 481.5392456054688 891.23828125 C 486.21923828125 889.1851806640625 490.4231262207031 886.2450561523438 494.0340270996094 882.4996337890625 C 497.6473388671875 878.751708984375 500.4844665527344 874.3868408203125 502.4664611816406 869.5263061523438 C 504.5192260742188 864.4921875 505.5601196289062 859.1437377929688 505.5601196289062 853.6295166015625 L 505.5601196289062 68.52217864990234 C 505.5601196289062 63.00773620605469 504.5192260742188 57.65918350219727 502.4664611816406 52.62507247924805 C 500.4844665527344 47.764404296875 497.6473388671875 43.39962768554688 494.0340270996094 39.65173721313477 C 490.4231262207031 35.90640258789062 486.21923828125 32.96640396118164 481.5392456054688 30.91340446472168 C 476.6971435546875 28.78918266296387 471.5531311035156 27.71207046508789 466.250244140625 27.71207046508789 L 258.1233520507812 27.71207046508789 L 257.830810546875 27.42073822021484 L 231.7091369628906 1.411167621612549 L 205.2959136962891 27.71207046508789 L 133.0943450927734 27.71207046508789 C 127.7916870117188 27.71207046508789 122.6479110717773 28.78918266296387 117.8056869506836 30.91340446472168 C 113.1256866455078 32.96640396118164 108.9217987060547 35.90651702880859 105.310905456543 39.65173721313477 C 101.6973495483398 43.39962768554688 98.86024475097656 47.7645149230957 96.87812805175781 52.62507247924805 C 94.82524108886719 57.65918350219727 93.78435516357422 63.00773620605469 93.78435516357422 68.52217864990234 L 93.78435516357422 853.6295166015625 C 93.78435516357422 859.1437377929688 94.82524108886719 864.4920654296875 96.87812805175781 869.5261840820312 C 98.86024475097656 874.3868408203125 101.6974639892578 878.751708984375 105.310905456543 882.4996337890625 C 108.9219055175781 886.2450561523438 113.1257934570312 889.1851806640625 117.805793762207 891.23828125 C 122.6479110717773 893.3626098632812 127.7917938232422 894.4397583007812 133.0943450927734 894.4397583007812 L 466.250244140625 894.4397583007812 M 466.250244140625 895.4397583007812 L 133.0943450927734 895.4397583007812 C 110.8320159912109 895.4397583007812 92.78435516357422 876.7203979492188 92.78435516357422 853.6295166015625 L 92.78435516357422 68.52217864990234 C 92.78435516357422 45.43029403686523 110.8320159912109 26.71207046508789 133.0943450927734 26.71207046508789 L 204.8829040527344 26.71207046508789 L 231.7091369628906 -4.025607631774619e-05 L 258.5363464355469 26.71207046508789 L 466.250244140625 26.71207046508789 C 488.5135803222656 26.71207046508789 506.5601196289062 45.43029403686523 506.5601196289062 68.52217864990234 L 506.5601196289062 853.6295166015625 C 506.5601196289062 876.7203979492188 488.5135803222656 895.4397583007812 466.250244140625 895.4397583007812 Z" stroke="none"/>
      </g>
    </g>
    <g id="Path_1247-6" data-name="Path 1247" transform="translate(941.44 -46.784) rotate(90)" fill="none">
      <path d="M 466.250244140625 894.9397583007812 L 133.0943450927734 894.9397583007812 C 127.7221298217773 894.9397583007812 122.5107955932617 893.848388671875 117.6049041748047 891.6961669921875 C 112.8647994995117 889.6166381835938 108.6074600219727 886.6392822265625 104.9509048461914 882.8466186523438 C 101.2932434082031 879.0528564453125 98.42134857177734 874.6346435546875 96.41513061523438 869.715087890625 C 94.33768463134766 864.6207275390625 93.28435516357422 859.208740234375 93.28435516357422 853.6295166015625 L 93.28435516357422 68.52217864990234 C 93.28435516357422 62.9427375793457 94.33768463134766 57.5306282043457 96.41513061523438 52.43629455566406 C 98.42134857177734 47.51662826538086 101.2931289672852 43.09851455688477 104.9509048461914 39.30473709106445 C 108.6074600219727 35.51218032836914 112.8647994995117 32.53495788574219 117.6049041748047 30.45551490783691 C 122.5106887817383 28.30329322814941 127.7221298217773 27.21207046508789 133.0943450927734 27.21207046508789 L 204.8829040527344 27.21207046508789 L 205.08935546875 27.21207046508789 L 205.2356872558594 27.06640434265137 L 231.7091369628906 0.7055636644363403 L 258.1835632324219 27.06640434265137 L 258.3298950195312 27.21207046508789 L 258.5363464355469 27.21207046508789 L 466.250244140625 27.21207046508789 C 471.6226806640625 27.21207046508789 476.834228515625 28.30329322814941 481.7401428222656 30.45551490783691 C 486.4802551269531 32.53484725952148 490.7375793457031 35.51218032836914 494.3940124511719 39.30473709106445 C 498.0516967773438 43.09851455688477 500.92333984375 47.51662826538086 502.9294738769531 52.43629455566406 C 505.0068054199219 57.5306282043457 506.0601196289062 62.9427375793457 506.0601196289062 68.52217864990234 L 506.0601196289062 853.6295166015625 C 506.0601196289062 859.208740234375 505.0068054199219 864.6207275390625 502.9294738769531 869.715087890625 C 500.92333984375 874.634765625 498.0515747070312 879.0528564453125 494.3940124511719 882.8466186523438 C 490.7375793457031 886.6392822265625 486.4801330566406 889.6166381835938 481.7401428222656 891.6961669921875 C 476.834228515625 893.848388671875 471.6226806640625 894.9397583007812 466.250244140625 894.9397583007812 Z" stroke="none"/>
      <path d="M 466.250244140625 894.4397583007812 C 471.5530090332031 894.4397583007812 476.697021484375 893.3626098632812 481.5392456054688 891.23828125 C 486.21923828125 889.1851806640625 490.4231262207031 886.2450561523438 494.0340270996094 882.4996337890625 C 497.6473388671875 878.751708984375 500.4844665527344 874.3868408203125 502.4664611816406 869.5263061523438 C 504.5192260742188 864.4921875 505.5601196289062 859.1437377929688 505.5601196289062 853.6295166015625 L 505.5601196289062 68.52217864990234 C 505.5601196289062 63.00773620605469 504.5192260742188 57.65918350219727 502.4664611816406 52.62507247924805 C 500.4844665527344 47.764404296875 497.6473388671875 43.39962768554688 494.0340270996094 39.65173721313477 C 490.4231262207031 35.90640258789062 486.21923828125 32.96640396118164 481.5392456054688 30.91340446472168 C 476.6971435546875 28.78918266296387 471.5531311035156 27.71207046508789 466.250244140625 27.71207046508789 L 258.1233520507812 27.71207046508789 L 257.830810546875 27.42073822021484 L 231.7091369628906 1.411167621612549 L 205.2959136962891 27.71207046508789 L 133.0943450927734 27.71207046508789 C 127.7916870117188 27.71207046508789 122.6479110717773 28.78918266296387 117.8056869506836 30.91340446472168 C 113.1256866455078 32.96640396118164 108.9217987060547 35.90651702880859 105.310905456543 39.65173721313477 C 101.6973495483398 43.39962768554688 98.86024475097656 47.7645149230957 96.87812805175781 52.62507247924805 C 94.82524108886719 57.65918350219727 93.78435516357422 63.00773620605469 93.78435516357422 68.52217864990234 L 93.78435516357422 853.6295166015625 C 93.78435516357422 859.1437377929688 94.82524108886719 864.4920654296875 96.87812805175781 869.5261840820312 C 98.86024475097656 874.3868408203125 101.6974639892578 878.751708984375 105.310905456543 882.4996337890625 C 108.9219055175781 886.2450561523438 113.1257934570312 889.1851806640625 117.805793762207 891.23828125 C 122.6479110717773 893.3626098632812 127.7917938232422 894.4397583007812 133.0943450927734 894.4397583007812 L 466.250244140625 894.4397583007812 M 466.250244140625 895.4397583007812 L 133.0943450927734 895.4397583007812 C 110.8320159912109 895.4397583007812 92.78435516357422 876.7203979492188 92.78435516357422 853.6295166015625 L 92.78435516357422 68.52217864990234 C 92.78435516357422 45.43029403686523 110.8320159912109 26.71207046508789 133.0943450927734 26.71207046508789 L 204.8829040527344 26.71207046508789 L 231.7091369628906 -4.025607631774619e-05 L 258.5363464355469 26.71207046508789 L 466.250244140625 26.71207046508789 C 488.5135803222656 26.71207046508789 506.5601196289062 45.43029403686523 506.5601196289062 68.52217864990234 L 506.5601196289062 853.6295166015625 C 506.5601196289062 876.7203979492188 488.5135803222656 895.4397583007812 466.250244140625 895.4397583007812 Z" stroke="none" fill="#cbcbcb"/>
    </g>
  </g>
</svg>
