<svg xmlns="http://www.w3.org/2000/svg" width="79.071" height="85.41" viewBox="0 0 79.071 85.41" id="commercial">
  <g id="Group_1388" data-name="Group 1388" transform="translate(0.497 0.5)" style="mix-blend-mode: color-burn;isolation: isolate">
    <g id="Group_1386" data-name="Group 1386">
      <path id="Path_1240" data-name="Path 1240" d="M218.72,201.25a3.854,3.854,0,0,0-.342-1.544c-2.408-4.948-4.389-8.943-6.233-12.574a7.046,7.046,0,0,0-6.787-4.172h-3.306q-23.98,0-47.958,0a7.106,7.106,0,0,0-6.84,4.225c-1.888,3.731-3.918,7.817-6.2,12.495a3.6,3.6,0,0,0-.34,1.46c-.049,2.123-.031,4.276-.015,6.361a11.062,11.062,0,0,0,4.4,8.928,2.114,2.114,0,0,1,.9,1.809c-.013,10.423-.013,21.02-.013,31.271v7.039a4.7,4.7,0,0,0,4.685,4.638h58.127a4.705,4.705,0,0,0,4.689-4.621c0-.068-.011-.126-.013-.179-.011-.13-.018-.232-.018-.334v-2.988c0-11.487,0-23.366.018-35.048a2.036,2.036,0,0,1,.736-1.445,11.182,11.182,0,0,0,4.534-9.129l0-.265C218.753,205.233,218.769,203.223,218.72,201.25Zm-72.26-3.366c.024-.06.046-.121.068-.181.057-.15.115-.3.194-.466q.679-1.362,1.361-2.723c.9-1.8,1.827-3.651,2.721-5.484a3.491,3.491,0,0,1,3.357-2.094h0q25.547,0,51.092,0a3.5,3.5,0,0,1,3.364,2.085c1.016,2.074,2.028,4.1,3.1,6.24q.639,1.276,1.288,2.573l.477.959H146.1Zm49.939,5-.042.7c-.035.581-.051,1.175-.066,1.749a22.006,22.006,0,0,1-.34,3.943,7.056,7.056,0,0,1-6.845,5.509c-.19,0-.382-.009-.574-.026a7.276,7.276,0,0,1-6.8-6.9c-.06-.981-.046-1.935-.029-2.946.007-.451.013-.906.013-1.367v-.663Zm-18.666,2.527a11.166,11.166,0,0,1-.669,5.054,7.174,7.174,0,0,1-6.637,4.276,7.883,7.883,0,0,1-1.409-.126,7.272,7.272,0,0,1-5.822-6.882c-.04-.939-.031-1.86-.02-2.834,0-.442.009-.888.009-1.345v-.663h14.575l-.031.691C177.7,204.179,177.717,204.8,177.733,205.407Zm-33.053,2.39c-.049-.959-.038-1.9-.024-2.893q.01-.669.011-1.361v-.663h14.575l-.031.691c-.027.607-.011,1.237,0,1.846a11.389,11.389,0,0,1-.634,4.976,7.241,7.241,0,0,1-6.7,4.342,7.727,7.727,0,0,1-1.4-.128A7.28,7.28,0,0,1,144.679,207.8Zm43.635,49.38H171.182l-.029-.629c0-.086-.011-.172-.015-.256-.011-.188-.022-.384-.022-.583q0-7.285,0-14.571a3.777,3.777,0,0,1,1.091-2.955,4.537,4.537,0,0,1,3.675-.8,31.356,31.356,0,0,0,7.7.013,4.405,4.405,0,0,1,3.611.777,3.626,3.626,0,0,1,1.124,2.865q0,5.245,0,10.487Zm21.124-.029h-17.16l0-6.237q0-5.069,0-10.136a7.2,7.2,0,0,0-7.439-7.43h-.088c-3.386,0-6.887-.009-10.328,0a7.217,7.217,0,0,0-7.273,7.267q-.01,5.195,0,10.39l0,6.176H149.993V218.739l.742.088a11.3,11.3,0,0,0,9.952-4.172l.493-.59.51.574a11.22,11.22,0,0,0,8.742,4.119h0a11.254,11.254,0,0,0,8.773-4.126l.495-.557.495.554a11.27,11.27,0,0,0,8.735,4.128h.033a11.256,11.256,0,0,0,8.78-4.139l.5-.565.495.572a11.484,11.484,0,0,0,9.994,4.128l.7-.044Zm5.44-53.564c-.035.579-.051,1.173-.066,1.747a22.426,22.426,0,0,1-.34,3.945,7.056,7.056,0,0,1-6.845,5.506q-.288,0-.576-.026a7.28,7.28,0,0,1-6.8-6.9c-.06-.981-.044-1.935-.029-2.946.007-.451.015-.9.015-1.365v-.663h14.686Z" transform="translate(-140.676 -182.96)" stroke="rgba(0,0,0,0)" stroke-width="1"/>
    </g>
    <g id="Group_1387" data-name="Group 1387" transform="translate(9.981 84.91)">
      <path id="Path_1241" data-name="Path 1241" d="M185.864,567.391" transform="translate(-185.864 -567.391)" stroke="rgba(0,0,0,0)" stroke-width="1"/>
    </g>
  </g>
</svg>
