<svg xmlns="http://www.w3.org/2000/svg" width="92.15" height="92.152" viewBox="0 0 92.15 92.152">
  <g id="Group_1354" data-name="Group 1354" transform="translate(0 0)" style="mix-blend-mode: color-burn;isolation: isolate">
    <g id="Group_1350" data-name="Group 1350" transform="translate(0)">
      <path id="Path_1138" data-name="Path 1138" d="M1189.052,1442.9h-16.447v-1.237c0-.89-.006-1.768-.009-2.643-.009-2.114-.022-4.112.028-6.158a2.861,2.861,0,0,0-1.348-2.643c-3.648-2.711-7.346-5.484-10.919-8.165-3.787-2.838-7.7-5.775-11.565-8.644a3.082,3.082,0,0,1-1.261-3.629l.257-.893h6.075q5.055,0,10.106,0c1.607,0,2.325-.7,2.328-2.275.006-4.189.006-8.087,0-11.921a1.966,1.966,0,0,0-2.251-2.251q-9.117-.009-18.231,0c-1.6,0-2.275.7-2.275,2.319l0,2.662c-.006,4.356-.009,8.863.021,13.293a2.979,2.979,0,0,1-1.329,2.609q-5.565,4.155-11.117,8.325-5.834,4.373-11.674,8.736a2.5,2.5,0,0,0-1.147,2.257c.031,2.1.025,4.152.019,6.328,0,.89-.006,1.787-.006,2.7v1.237H1101.9c-1.883,0-2.516.627-2.516,2.476v36.755c0,1.79.665,2.452,2.445,2.452q43.655,0,87.313,0c1.719,0,2.39-.674,2.39-2.405q0-18.428,0-36.857C1191.528,1443.56,1190.857,1442.9,1189.052,1442.9Zm-41.633-46.579h14.966v8.662h-14.966Zm-29.181,84.382h-14.975v-33.889h14.975Zm33.131-.031h-11.816v-14.966h11.816Zm17.4-6.131v4.375c0,.133-.01.266-.022.427l-.086,1.36h-13.4l0-6.477q0-5.027,0-10.051c0-1.645-.7-2.349-2.353-2.349q-7.438,0-14.879,0c-1.707,0-2.371.68-2.371,2.424q0,4.98,0,9.967v6.477H1122.14v-7.886c0-12.493,0-25.412.025-38.118a3.054,3.054,0,0,1,1.048-2.294c6.063-4.591,12.248-9.228,18.234-13.714l2.952-2.213a2.364,2.364,0,0,1,.322-.2c.034-.018.071-.04.114-.068l.68-.4.869.6c.188.127.39.263.584.408l2.686,2.012c5.864,4.4,11.927,8.938,17.875,13.432a3.046,3.046,0,0,1,1.209,2.214C1168.771,1447.827,1168.769,1461.408,1168.769,1474.543Zm18.879,6.133h-15.006v-33.883h15.006Z" transform="translate(-1099.38 -1392.435)" fill="#183573"/>
    </g>
    <g id="Group_1351" data-name="Group 1351" transform="translate(34.696 34.697)">
      <path id="Path_1139" data-name="Path 1139" d="M1231.058,1508.033a11.337,11.337,0,0,0-8.066-3.364h-.034a11.374,11.374,0,0,0-8.013,19.421,11.2,11.2,0,0,0,7.985,3.336h.01a11.376,11.376,0,0,0,8.118-19.393Zm-.529,8.032a7.557,7.557,0,0,1-7.54,7.528h-.028a7.539,7.539,0,0,1-5.324-12.857,7.457,7.457,0,0,1,5.314-2.229h.022a7.552,7.552,0,0,1,7.555,7.534Z" transform="translate(-1211.61 -1504.67)" fill="#183573"/>
    </g>
  </g>
</svg>
