<svg xmlns="http://www.w3.org/2000/svg" width="80.901" height="105.017" viewBox="0 0 80.901 105.017">
  <g id="Group_1355" data-name="Group 1355" transform="translate(0 0)" style="mix-blend-mode: color-burn;isolation: isolate">
    <g id="Group_1337" data-name="Group 1337">
      <path id="Path_1128" data-name="Path 1128" d="M1478.731,1412.489v-6.045q0-5.39,0-10.773c0-1.3-.344-2.179-.984-2.556a2.713,2.713,0,0,0-2.635.364l-10.543,5.858c-8.715,4.845-17.726,9.852-26.6,14.756a2.885,2.885,0,0,0-1.652,2.866c.027,14.873.027,30.11,0,45.283a2.959,2.959,0,0,0,1.395,2.872h78.115a2.951,2.951,0,0,0,1.391-2.869c-.02-16.938-.02-34.16-.02-50.815v-15.817a2.745,2.745,0,0,0-.954-2.5c-.627-.374-1.555-.24-2.683.38-.854.467-2.075,1.124-3.159,1.711-.954.514-1.805.971-2.2,1.191l-.25.14v-.284c0-.887-.955-23.976-1.212-33.471a2.7,2.7,0,0,0-1.465-2.682h-15.944c-1.238.5-1.518,1.514-1.555,2.882-.174,6.473-1.921,39.831-2.1,45.742l0,.093-.08.047c-.32.187-.764.447-1.284.754-1.548.911-3.67,2.155-5.325,3.079m12.731-48.6h11.116v4.431h-11.116Zm-.253,8.691,0-.16h11.523l.013.15c.013.167.821,26.081.521,26.251-3.97,2.262-8.651,4.915-13.252,7.46l-.087.046-.083-.05C1489.958,1406.4,1491.255,1379.708,1491.455,1372.789Zm-16.718,88.343h-12.985v-10.89h12.985Zm17.122-.017h-13v-10.889h13ZM1478.3,1417.56c.02-.01.04-.023.06-.033l.007.01q7.056-3.909,14.109-7.834l6.336-3.52,12.891-7.156c.24-.134.484-.257.764-.4l.7-.364V1461.1h-17.292v-4.721c.007-2.519.01-5.125-.01-7.687-.01-1.7-.761-2.469-2.435-2.472-11.35-.017-22.543-.017-33.273,0-1.691,0-2.419.781-2.426,2.609-.01,2.826-.007,5.652,0,8.507v3.753H1440.26v-9.285c0-10.856,0-22.08-.02-33.119a1.969,1.969,0,0,1,1.144-2c8.061-4.447,16.245-8.991,24.158-13.389l7.75-4.3c.23-.127.474-.244.757-.38l.5-.244.244-.12,0,6.913c0,3.213,0,6.426.007,9.635" transform="translate(-1436.31 -1360.098)" fill="#183573"/>
    </g>
    <g id="Group_1338" data-name="Group 1338" transform="translate(10.715 62.621)">
      <path id="Path_1129" data-name="Path 1129" d="M1489.487,1567.061c-.017-1.908-.737-2.619-2.656-2.626-5.295-.017-10.589-.017-15.744,0-1.911.007-2.629.72-2.646,2.635-.023,2.582-.013,5.161,0,7.12.013,2.062.688,2.729,2.786,2.739,1.8.01,3.6.007,5.4.007l2.339,0h.076c.778,0,1.555,0,2.332,0,1.791,0,3.64.007,5.462-.007,1.938-.017,2.632-.7,2.649-2.626C1489.507,1571.875,1489.507,1569.439,1489.487,1567.061Zm-3.933,4.724c0,.314-.007.631-.007.951v.167h-13.165v-.167c0-.327,0-.647-.007-.961-.007-.894-.017-1.735.047-2.586.023-.344.6-.784.941-.787,3.743-.044,7.52-.044,11.223,0a1.173,1.173,0,0,1,.924.81C1485.57,1570.063,1485.56,1570.9,1485.553,1571.785Z" transform="translate(-1468.427 -1564.423)" fill="#183573"/>
    </g>
    <g id="Group_1339" data-name="Group 1339" transform="translate(49.18 62.618)">
      <path id="Path_1130" data-name="Path 1130" d="M1604.715,1566.9c-.013-1.765-.687-2.459-2.4-2.469-5.6-.03-11.07-.03-16.241,0-1.608.01-2.335.751-2.349,2.4-.017,2.192-.01,4.424,0,6.582v.787c.006,2.065.627,2.7,2.659,2.716,1.825.014,3.68.01,5.471.007.794,0,1.585-.007,2.379,0s1.585,0,2.379,0c1.848.007,3.757.01,5.635-.013,1.808-.02,2.452-.68,2.466-2.519C1604.731,1571.719,1604.731,1569.267,1604.715,1566.9Zm-4.014,6.016h-12.955v-4.474H1600.7Z" transform="translate(-1583.719 -1564.414)" fill="#183573"/>
    </g>
  </g>
</svg>
