<svg xmlns="http://www.w3.org/2000/svg" width="92.471" height="84.877" viewBox="0 0 92.471 84.877">
  <g id="Group_1356" data-name="Group 1356" transform="translate(0.497 0.716)" style="mix-blend-mode: color-burn;isolation: isolate">
    <g id="Group_1341" data-name="Group 1341" transform="translate(0 0)">
      <path id="Path_1131" data-name="Path 1131" d="M1791.7,1493.714a11.651,11.651,0,0,0-1.034-1.24c-12.355-12.16-24.927-24.516-37.087-36.464l-.988-.974c-3.914-3.847-8.6-3.833-12.529.028l-26.021,25.578q-6.259,6.153-12.518,12.3a2.322,2.322,0,0,0-.871,2.253,2.132,2.132,0,0,0,1.449,1.64,2.269,2.269,0,0,0,2.249-.57c.641-.606,1.247-1.286,1.835-1.941.276-.3.549-.613.829-.914l.287-.308.967.553v7.57q-.005,11.339.007,22.684a13.965,13.965,0,0,0,.181,2.6,11.219,11.219,0,0,0,11.318,9.305q12.131.016,24.264.007l15.157,0c1.729,0,3.482,0,5.242,0,2.784,0,5.593,0,8.374.011h.057a10.866,10.866,0,0,0,5.193-1.141,11.164,11.164,0,0,0,6.344-10.5c.014-6.929.011-13.971.011-20.782l0-9.734.949-.585.3.319c.273.3.546.6.815.9.595.655,1.208,1.339,1.849,1.959a2.292,2.292,0,0,0,1.732.683,2.055,2.055,0,0,0,1.488-.761,4.962,4.962,0,0,0,.407-.638l.128-.223v-1.112C1791.949,1494.043,1791.824,1493.88,1791.7,1493.714Zm-11.657,30.449c-.007,4.424-2.887,7.286-7.339,7.29q-9.341.005-18.685,0h-7.7c-2.543-.014-5.062-.007-7.595-.014-6.1-.018-12.4-.036-18.6.053h-.12a7.235,7.235,0,0,1-7.41-7.548c.064-9.2.046-18.554.028-27.6q-.005-3.544-.014-7.085a2.443,2.443,0,0,1,.783-1.877q11.206-10.993,22.4-22l7.5-7.371c1.962-1.93,4.109-1.945,6.043-.046,9.589,9.419,19.861,19.514,30.01,29.531a2.444,2.444,0,0,1,.68,1.615C1780.057,1501,1780.061,1512.8,1780.043,1524.163Z" transform="translate(-1700.602 -1452.16)" fill="#183573" stroke="rgba(0,0,0,0)" stroke-width="1"/>
    </g>
    <g id="Group_1342" data-name="Group 1342" transform="translate(26.696 29.015)">
      <path id="Path_1132" data-name="Path 1132" d="M1814,1548.035a2.242,2.242,0,0,0-2.547-2.54c-1.707-.007-3.415,0-5.122,0h-3.748l0-3.1c0-1.952,0-3.857,0-5.763a2.262,2.262,0,0,0-2.536-2.554q-5.01-.005-10.028,0c-1.835,0-2.618.786-2.621,2.628,0,1.885,0,3.773,0,5.7v3.085h-3.074c-1.952,0-3.868,0-5.781,0-1.721,0-2.565.825-2.568,2.508-.011,3.51-.011,6.943,0,10.209a2.193,2.193,0,0,0,2.5,2.465q2.588.005,5.172,0h3.748v3.138c0,1.927,0,3.8,0,5.678,0,1.8.786,2.607,2.543,2.614,3.571.011,6.879.014,10.117,0a2.247,2.247,0,0,0,2.526-2.561q.005-2.566,0-5.136l0-3.734,3.1,0c1.984,0,3.925,0,5.863-.007a2.188,2.188,0,0,0,2.454-2.43Q1814.014,1553.143,1814,1548.035Zm-4.414,8.285-3.769,0q-2.471,0-4.941,0c-1.853,0-2.646.779-2.65,2.6q-.005,2.55,0,5.1l0,3.677h-6.468v-4.63c0-1.463.007-2.922-.007-4.385a2.188,2.188,0,0,0-2.366-2.359c-1.966-.011-3.932-.011-5.922-.007l-3.064,0v-6.468h3.989c.51,0,1.024,0,1.534,0,1.144,0,2.285,0,3.429-.007a2.19,2.19,0,0,0,2.405-2.4q.011-2.566,0-5.14v-3.822h6.468l0,3.773c0,1.736,0,3.468.007,5.2a2.153,2.153,0,0,0,2.395,2.391c1.718.011,3.436.007,5.154.007l3.808,0Z" transform="translate(-1775.968 -1534.073)" fill="#183573" stroke="rgba(0,0,0,0)" stroke-width="1"/>
    </g>
  </g>
</svg>
