<svg xmlns="http://www.w3.org/2000/svg" xmlns:xlink="http://www.w3.org/1999/xlink" width="99.053" height="114.36" viewBox="0 0 99.053 114.36" id="faceDetetion">
  <defs>
    <clipPath id="clip-path">
      <rect id="Rectangle_706" data-name="Rectangle 706" width="99.053" height="114.36" transform="translate(-10)"  stroke="rgba(0,0,0,0)" stroke-width="1"/>
    </clipPath>
    <clipPath id="clip-path-2">
      <rect id="Rectangle_723" data-name="Rectangle 723" width="66.534" height="82.719"  stroke="rgba(0,0,0,0)" stroke-width="1"/>
    </clipPath>
  </defs>
  <g id="Group_1644" data-name="Group 1644" transform="translate(5.001)">
    <g id="Group_1578" data-name="Group 1578" transform="translate(4.999)" clip-path="url(#clip-path)">
      <path id="Path_1430" data-name="Path 1430" d="M0,17.369Q0,11.8.006,6.225A5.939,5.939,0,0,1,6.143.036C13.739.027,21.335,0,28.93.078A3.091,3.091,0,0,1,31.1,1.1c.945,1.257-.164,2.874-1.907,2.888-3.591.029-7.183.01-10.774.01H6.905c-2.382,0-2.937.545-2.937,2.883q0,10.773,0,21.546c0,.33.014.661-.008.99a2.024,2.024,0,0,1-1.93,2.029A1.978,1.978,0,0,1,.019,29.38C-.014,26.037.005,22.694,0,19.35q0-.99,0-1.981" transform="translate(-5.965 4.347)"  stroke="rgba(0,0,0,0)" stroke-width="1"/>
      <path id="Path_1431" data-name="Path 1431" d="M175.99,17.358q0,5.758,0,11.516c0,1.63-.776,2.589-2.031,2.553-1.212-.035-1.927-.957-1.928-2.529q-.007-10.959,0-21.918c0-2.467-.524-3-2.945-3q-10.775,0-21.549,0a6.8,6.8,0,0,1-1.236-.033,1.876,1.876,0,0,1-1.7-1.962A1.853,1.853,0,0,1,146.325.05,12.976,12.976,0,0,1,148.18.017q10.589,0,21.178,0c4.263,0,6.632,2.391,6.632,6.692q0,5.325,0,10.649" transform="translate(-91.304 4.364)"  stroke="rgba(0,0,0,0)" stroke-width="1"/>
      <path id="Path_1432" data-name="Path 1432" d="M17.395,235.961c-3.756,0-7.513.009-11.27,0a5.937,5.937,0,0,1-6.113-6.09Q0,218.475.01,207.083c0-1.575.71-2.495,1.922-2.534,1.257-.041,2.036.918,2.037,2.545q.006,11.083,0,22.165c0,2.115.616,2.737,2.712,2.738q10.527,0,21.053,0H28.6c1.87,0,2.845.7,2.82,2.012-.025,1.273-.976,1.947-2.759,1.95q-2.353,0-4.706,0H17.395" transform="translate(-5.969 -125.096)"  stroke="rgba(0,0,0,0)" stroke-width="1"/>
      <path id="Path_1433" data-name="Path 1433" d="M175.97,218.536c0,3.752.008,7.5,0,11.257a5.951,5.951,0,0,1-6.155,6.167q-11.32.012-22.64,0a3.9,3.9,0,0,1-1.333-.161,1.813,1.813,0,0,1-1.256-2.038,1.883,1.883,0,0,1,1.683-1.723A7.524,7.524,0,0,1,147.5,232q10.887,0,21.774,0c2.107,0,2.73-.619,2.73-2.716q0-10.824,0-21.648c0-.33-.012-.661.005-.989A2.017,2.017,0,0,1,174,204.551a1.986,1.986,0,0,1,1.963,2.11c.025,3.958.009,7.917.011,11.875" transform="translate(-91.286 -125.098)"  stroke="rgba(0,0,0,0)" stroke-width="1"/>
      <g id="Group_1646" data-name="Group 1646" transform="translate(5.759 16.805)">
        <g id="Group_1645" data-name="Group 1645" clip-path="url(#clip-path-2)">
          <path id="Path_1481" data-name="Path 1481" d="M60.751,64.383a20.784,20.784,0,0,0-9.874-10.6,52.04,52.04,0,0,0-10.4-4.241c-.24-.068-.586-.336-.6-.533-.084-1.107-.183-2.21.935-3.007a6.1,6.1,0,0,0,1.246-1.525,36.253,36.253,0,0,0,3.874-7.037,1.418,1.418,0,0,1,.712-.687,3.423,3.423,0,0,0,1.844-1.587c1.347-2.571,2.706-5.136,4.022-7.723a4.131,4.131,0,0,0-.278-4.312,4.8,4.8,0,0,0-3.038-2.068c.022-.109.034-.2.058-.285a32.546,32.546,0,0,0,.869-9.151A11.68,11.68,0,0,0,41.493.386C41.008.252,40.52.129,40.033,0H27.862C26.984.188,26.1.335,25.231.57A17,17,0,0,0,12.606,18.452c.068.869.208,1.733.319,2.632-.131.052-.261.112-.4.157A4.432,4.432,0,0,0,9.837,27.8c1.258,2.452,2.549,4.887,3.825,7.329a2.809,2.809,0,0,0,1.757,1.557,1.266,1.266,0,0,1,.906.91A28.257,28.257,0,0,0,21.3,45.907a3.6,3.6,0,0,1,1.05,2.913.681.681,0,0,1-.595.736,48.613,48.613,0,0,0-8.6,3.264,23.7,23.7,0,0,0-9.714,7.785A20.39,20.39,0,0,0,.012,73.155c.044,1.421.518,1.924,1.956,1.924h22c.177,0,.355.008.531,0,7.653,0,28.512,0,35.957,0a1.5,1.5,0,0,0,1.7-1.506,21.778,21.778,0,0,0-1.4-9.188M17.974,9.118a13.885,13.885,0,0,1,11.4-6.148,3.809,3.809,0,0,1,2.723,1.053,2.8,2.8,0,0,0,3.812.055,4.441,4.441,0,0,1,4.163-.96,8.583,8.583,0,0,1,7.011,8.535c0,2.166-.1,4.332-.15,6.5l-.339.156a2.683,2.683,0,0,0-.257-.473,9.646,9.646,0,0,0-3.243-2.576,4.662,4.662,0,0,1-2.8-4.14c-.075-1.053-.706-1.708-1.568-1.675s-1.395.7-1.48,1.763a6.777,6.777,0,0,1-3.961,5.971,6.477,6.477,0,0,1-7.044-.682c-2.367-1.773-4.886-2.435-7.676-1.352a21.04,21.04,0,0,0-3.037,1.8,13.587,13.587,0,0,1,2.443-7.824m.676,26.239c-.531-1.408-.819-1.608-2.274-1.518q-1.994-3.8-4-7.626a1.335,1.335,0,0,1,.222-1.625,1.489,1.489,0,0,1,1.658-.449c1.584.5,2.3-.016,2.353-1.693a4.658,4.658,0,0,1,4.068-4.782,4.51,4.51,0,0,1,3.536,1.075,9.086,9.086,0,0,0,4.21,1.928,9.684,9.684,0,0,0,10.158-4.287c.09-.129.178-.259.267-.388,1.218.788,2.323,1.518,3.443,2.224a6.714,6.714,0,0,1,3.128,4.409c.362,1.675.893,2,2.492,1.5a1.47,1.47,0,0,1,1.707.5,1.4,1.4,0,0,1,.15,1.639C48.5,28.68,47.245,31.1,45.965,33.515a.64.64,0,0,1-.47.3c-1.084-.035-1.474.193-1.856,1.236A33.1,33.1,0,0,1,39.58,42.8a10.236,10.236,0,0,1-17.007-.033,33.1,33.1,0,0,1-3.924-7.413M34,55.62a5.455,5.455,0,0,1-6.206-.234,6.086,6.086,0,0,1-2.353-6.326,13.47,13.47,0,0,0,11.318-.01c.306,2.8-.309,5.12-2.759,6.57M59.1,72.128h-.91c-6.745,0-27.119,0-33.864,0l-.042,0c-.108,0-.216,0-.322,0q-10.008-.007-20.016,0H3.027c.123-5.719,2.189-10.37,6.689-13.807a31.342,31.342,0,0,1,7.316-3.956c1.774-.722,3.595-1.334,5.391-1.994,1.849,4.769,4.452,6.984,8.384,7.013,4.724.035,7.526-2.535,8.91-6.905.152.033.3.054.433.095A47.128,47.128,0,0,1,50.471,57a16.71,16.71,0,0,1,7.693,9.246,15.632,15.632,0,0,1,.934,5.883" transform="translate(2.183 3.272)"  stroke="rgba(0,0,0,0)" stroke-width="1"/>
        </g>
      </g>
    </g>
  </g>
</svg>
