<svg xmlns="http://www.w3.org/2000/svg" xmlns:xlink="http://www.w3.org/1999/xlink" width="89.053" height="115.451" viewBox="0 0 89.053 115.451" id="fingerPrint">
  <defs>
    <clipPath id="clip-path">
      <rect id="Rectangle_706" data-name="Rectangle 706" width="89.053" height="115.451"  stroke="rgba(0,0,0,0)" stroke-width="1"/>
    </clipPath>
  </defs>
  <g id="Group_1579" data-name="Group 1579" style="isolation: isolate">
    <g id="Group_1578" data-name="Group 1578" clip-path="url(#clip-path)">
      <path id="Path_1427" data-name="Path 1427" d="M66.122,135.316A16.82,16.82,0,0,1,81.217,146c2.9,7.334,1.531,13.953-3.763,19.821-2.815,3.12-5.485,6.372-8.22,9.565-.08.094-.147.2-.226.295a2.01,2.01,0,0,1-2.915.586,1.956,1.956,0,0,1-.241-2.951c2.5-3.067,5.089-6.063,7.6-9.126a30.157,30.157,0,0,0,3.845-5.1,13.718,13.718,0,0,0-4.213-17.237A13.86,13.86,0,0,0,55.271,143.2c-2.8,2.8-5.344,5.839-8,8.775-.249.275-.461.583-.7.863-.943,1.087-2.122,1.289-3.021.523a1.914,1.914,0,0,1-.072-2.954c3.292-3.69,6.479-7.5,10.02-10.934,3.1-3.012,7.122-4.2,12.628-4.156" transform="translate(-24.288 -82.913)"  stroke="rgba(0,0,0,0)" stroke-width="1"/>
      <path id="Path_1428" data-name="Path 1428" d="M69.173,159.194c5.111.079,8.6,2.368,10.033,6.075a9.713,9.713,0,0,1-2.271,10.954,107.9,107.9,0,0,0-10.768,12.914,4.306,4.306,0,0,1-1.072,1.172,1.779,1.779,0,0,1-2.374-.262,1.829,1.829,0,0,1-.193-2.58c1.714-2.323,3.379-4.69,5.22-6.909,2.106-2.538,4.357-4.959,6.588-7.39a5.994,5.994,0,0,0-.005-8.279A5.771,5.771,0,0,0,66,164.829c-3.78,4.135-7.345,8.467-10.994,12.723-.294.343-.521.743-.8,1.1a1.975,1.975,0,0,1-2.815.6,1.948,1.948,0,0,1-.363-2.934c2.1-2.756,4.2-5.517,6.42-8.173,1.771-2.118,3.659-4.15,5.613-6.1a9.077,9.077,0,0,1,6.112-2.846" transform="translate(-29.448 -98.891)"  stroke="rgba(0,0,0,0)" stroke-width="1"/>
      <path id="Path_1429" data-name="Path 1429" d="M66.508,87.576c10.573.424,20.449,5.482,27.171,16.155A3.037,3.037,0,0,1,94.021,106c-.507,1.521-2.443,1.549-3.446.155-1.059-1.471-2.019-3.027-3.2-4.4A30.045,30.045,0,0,0,46.69,97.626c-.229.177-.451.362-.691.522a2,2,0,0,1-2.777-.291,1.838,1.838,0,0,1,.4-2.814,70.609,70.609,0,0,1,7.806-4.706c4.135-1.991,8.612-2.757,15.079-2.76" transform="translate(-24.238 -50.967)"  stroke="rgba(0,0,0,0)" stroke-width="1"/>
      <path id="Path_1430" data-name="Path 1430" d="M0,17.369Q0,11.8.006,6.225A5.939,5.939,0,0,1,6.143.036C13.739.027,21.335,0,28.93.078A3.091,3.091,0,0,1,31.1,1.1c.945,1.257-.164,2.874-1.907,2.888-3.591.029-7.183.01-10.774.01H6.905c-2.382,0-2.937.545-2.937,2.883q0,10.773,0,21.546c0,.33.014.661-.008.99a2.024,2.024,0,0,1-1.93,2.029A1.978,1.978,0,0,1,.019,29.38C-.014,26.037.005,22.694,0,19.35q0-.99,0-1.981" transform="translate(4.364 2.165)"  stroke="rgba(0,0,0,0)" stroke-width="1"/>
      <path id="Path_1431" data-name="Path 1431" d="M175.99,17.358q0,5.758,0,11.516c0,1.63-.776,2.589-2.031,2.553-1.212-.035-1.927-.957-1.928-2.529q-.007-10.959,0-21.918c0-2.467-.524-3-2.945-3q-10.775,0-21.549,0a6.8,6.8,0,0,1-1.236-.033,1.876,1.876,0,0,1-1.7-1.962A1.853,1.853,0,0,1,146.325.05,12.976,12.976,0,0,1,148.18.017q10.589,0,21.178,0c4.263,0,6.632,2.391,6.632,6.692q0,5.325,0,10.649" transform="translate(-92.395 2.182)"  stroke="rgba(0,0,0,0)" stroke-width="1"/>
      <path id="Path_1432" data-name="Path 1432" d="M17.395,235.961c-3.756,0-7.513.009-11.27,0a5.937,5.937,0,0,1-6.113-6.09Q0,218.475.01,207.083c0-1.575.71-2.495,1.922-2.534,1.257-.041,2.036.918,2.037,2.545q.006,11.083,0,22.165c0,2.115.616,2.737,2.712,2.738q10.527,0,21.053,0H28.6c1.87,0,2.845.7,2.82,2.012-.025,1.273-.976,1.947-2.759,1.95q-2.353,0-4.706,0H17.395" transform="translate(4.361 -123.787)"  stroke="rgba(0,0,0,0)" stroke-width="1"/>
      <path id="Path_1433" data-name="Path 1433" d="M175.97,218.536c0,3.752.008,7.5,0,11.257a5.951,5.951,0,0,1-6.155,6.167q-11.32.012-22.64,0a3.9,3.9,0,0,1-1.333-.161,1.813,1.813,0,0,1-1.256-2.038,1.883,1.883,0,0,1,1.683-1.723A7.524,7.524,0,0,1,147.5,232q10.887,0,21.774,0c2.107,0,2.73-.619,2.73-2.716q0-10.824,0-21.648c0-.33-.012-.661.005-.989A2.017,2.017,0,0,1,174,204.551a1.986,1.986,0,0,1,1.963,2.11c.025,3.958.009,7.917.011,11.875" transform="translate(-92.377 -123.789)"  stroke="rgba(0,0,0,0)" stroke-width="1"/>
      <path id="Path_1434" data-name="Path 1434" d="M64.752,111.563a25.883,25.883,0,0,1,24.269,16.452,2.182,2.182,0,0,1-.391,2.709c-1.09.962-2.619.457-3.225-1.1a21.741,21.741,0,0,0-5.725-8.407,21.96,21.96,0,0,0-29.978.44c-1.1,1.062-2.146,2.172-3.233,3.243-1.022,1.007-2.212,1.091-3.051.245s-.764-1.928.176-2.964c3.437-3.787,7.135-7.213,12.079-8.987a26.423,26.423,0,0,1,9.079-1.627" transform="translate(-24.304 -67.018)"  stroke="rgba(0,0,0,0)" stroke-width="1"/>
      <path id="Path_1435" data-name="Path 1435" d="M67.684,63.069c11.785.206,21.133,3.749,29.083,10.879a3.921,3.921,0,0,1,1.071,1.323,1.6,1.6,0,0,1-.644,2.164,3.04,3.04,0,0,1-2.259.064,14.2,14.2,0,0,1-2.286-1.867q-18.814-14.4-40.443-4.714c-.188.084-.369.185-.556.269a2.013,2.013,0,0,1-2.875-.777,1.99,1.99,0,0,1,1.1-2.754A38.225,38.225,0,0,1,61.311,63.8c2.477-.4,4.99-.581,6.373-.735" transform="translate(-28.127 -34.567)"  stroke="rgba(0,0,0,0)" stroke-width="1"/>
      <path id="Path_1436" data-name="Path 1436" d="M112.9,45.926c-.046,1.578-1.434,2.331-2.982,1.769-2.592-.941-5.154-2-7.808-2.725a44.1,44.1,0,0,0-17.92-.944,1.978,1.978,0,0,1-2.5-1.591c-.173-1.177.511-2.012,1.88-2.289a4.255,4.255,0,0,1,.732-.12c3.747-.087,7.509-.411,11.238-.187a45.019,45.019,0,0,1,15.826,4.151,2.161,2.161,0,0,1,1.532,1.936" transform="translate(-50.285 -18.97)"  stroke="rgba(0,0,0,0)" stroke-width="1"/>
      <path id="Path_1437" data-name="Path 1437" d="M67.941,202.447c-.677-.51-1.474-.811-1.672-1.337a2.737,2.737,0,0,1,.134-2.161,58.723,58.723,0,0,1,4.23-5.791c2.707-3.218,5.539-6.331,8.338-9.472a1.891,1.891,0,0,1,2.563-.447,1.781,1.781,0,0,1,.868,2.125,3,3,0,0,1-.769,1.232,115.564,115.564,0,0,0-11.906,14.379,9.3,9.3,0,0,1-1.785,1.472" transform="translate(-39.876 -114.771)"  stroke="rgba(0,0,0,0)" stroke-width="1"/>
      <path id="Path_1438" data-name="Path 1438" d="M150.411,221.5c-.572-.5-1.346-.868-1.559-1.445a2.686,2.686,0,0,1,.282-2.03,10.557,10.557,0,0,1,1.9-2.1A21.409,21.409,0,0,0,156.3,207.8c.043-.115.077-.235.127-.348a1.982,1.982,0,1,1,3.688,1.412,26.341,26.341,0,0,1-6.553,10.214,19.93,19.93,0,0,1-1.5,1.474,12.967,12.967,0,0,1-1.656.951" transform="translate(-95.181 -130.215)"  stroke="rgba(0,0,0,0)" stroke-width="1"/>
      <path id="Path_1439" data-name="Path 1439" d="M179.479,184.542a1.978,1.978,0,0,1-1.923,2.005,2.052,2.052,0,0,1-2.005-1.953,1.915,1.915,0,0,1,1.95-1.951,1.866,1.866,0,0,1,1.978,1.9" transform="translate(-113.111 -114.583)"  stroke="rgba(0,0,0,0)" stroke-width="1"/>
    </g>
  </g>
</svg>
