<svg xmlns="http://www.w3.org/2000/svg" xmlns:xlink="http://www.w3.org/1999/xlink" width="60.111" height="111" viewBox="0 0 60.111 111" id="mobileApp">
  <defs>
    <clipPath id="clip-path">
      <rect id="Rectangle_722" data-name="Rectangle 722" width="60.111" height="111" stroke="rgba(0,0,0,0)" stroke-width="1"/>
    </clipPath>
  </defs>
  <g id="Group_1643" data-name="Group 1643" style="isolation: isolate">
    <g id="Group_1643-2" data-name="Group 1643" clip-path="url(#clip-path)">
      <path id="Path_1478" data-name="Path 1478" d="M52.824,0c.083.063.157.158.25.185,4.567,1.293,6.982,4.428,7.028,9.159.018,1.842,0,3.684,0,5.525q0,43.23,0,86.46c0,4.455-2.086,7.732-5.786,9.13-.5.187-1,.361-1.494.541H7.292a22.459,22.459,0,0,1-2.566-1.052,8.8,8.8,0,0,1-4.713-8.076c-.015-.939,0-1.878,0-2.817Q.01,54.362,0,9.669C0,5.9,1.362,2.926,4.724,1.05A22.029,22.029,0,0,1,7.292,0ZM56.95,15.9H3.205V89.026H56.95ZM3.2,92.171a2.921,2.921,0,0,0-.075.413c-.005,3.105-.027,6.21,0,9.315a5.762,5.762,0,0,0,6.134,6.071q20.8,0,41.6,0A5.763,5.763,0,0,0,57,101.914c.025-2.961.007-5.921,0-8.882,0-.275-.045-.55-.072-.861Zm0-79.423H56.991c0-1.42.038-2.783-.008-4.143a5.7,5.7,0,0,0-5.746-5.57q-21.178-.02-42.357,0a5.656,5.656,0,0,0-5.64,4.6A37.314,37.314,0,0,0,3.2,12.748" transform="translate(0)"  stroke="rgba(0,0,0,0)" stroke-width="1"/>
      <path id="Path_1479" data-name="Path 1479" d="M90.341,339.564a5.52,5.52,0,1,1,5.572-5.447,5.547,5.547,0,0,1-5.572,5.447m2.482-5.519a2.432,2.432,0,1,0-2.463,2.483,2.457,2.457,0,0,0,2.463-2.483" transform="translate(-60.334 -234.652)"  stroke="rgba(0,0,0,0)" stroke-width="1"/>
      <path id="Path_1480" data-name="Path 1480" d="M78.2,24.476c-2.745,0-5.49.006-8.235-.006-.391,0-.909.045-1.144-.172-.431-.4-.981-1-.948-1.477s.692-.941,1.137-1.343c.151-.136.486-.091.737-.091q8.56-.007,17.121,0c1.245,0,1.969.6,1.967,1.533s-.746,1.545-1.966,1.551c-2.89.013-5.779,0-8.669,0" transform="translate(-48.255 -15.199)"   stroke-width="1"/>
    </g>
  </g>
</svg>
