<svg xmlns="http://www.w3.org/2000/svg" xmlns:xlink="http://www.w3.org/1999/xlink" width="117.411" height="117.411" viewBox="0 0 117.411 117.411">
  <defs>
    <linearGradient id="linear-gradient" x1="0.5" x2="0.5" y2="1" gradientUnits="objectBoundingBox">
      <stop offset="0" stop-color="#05185e"/>
      <stop offset="1" stop-color="#4b86ac"/>
    </linearGradient>
    <filter id="Path_1482" x="0" y="0" width="117.411" height="117.411" filterUnits="userSpaceOnUse">
      <feOffset dy="7" input="SourceAlpha"/>
      <feGaussianBlur stdDeviation="7.5" result="blur"/>
      <feFlood flood-opacity="0.2"/>
      <feComposite operator="in" in2="blur"/>
      <feComposite in="SourceGraphic"/>
    </filter>
    <filter id="Path_1482-2" x="0" y="0" width="117.411" height="117.411" filterUnits="userSpaceOnUse">
      <feOffset dx="3" dy="3" input="SourceAlpha"/>
      <feGaussianBlur stdDeviation="4.5" result="blur-2"/>
      <feFlood flood-opacity="0.161" result="color"/>
      <feComposite operator="out" in="SourceGraphic" in2="blur-2"/>
      <feComposite operator="in" in="color"/>
      <feComposite operator="in" in2="SourceGraphic"/>
    </filter>
    <clipPath id="clip-path">
      <rect id="Rectangle_729" data-name="Rectangle 729" width="39.583" height="37.489" fill="#f5f5f5"/>
    </clipPath>
  </defs>
  <g id="Group_1651" data-name="Group 1651" transform="translate(-372.5 -2268.5)">
    <g data-type="innerShadowGroup">
      <g transform="matrix(1, 0, 0, 1, 372.5, 2268.5)" filter="url(#Path_1482)">
        <path id="Path_1482-3" data-name="Path 1482" d="M0,36.206A36.206,36.206,0,1,0,36.206,0,36.206,36.206,0,0,0,0,36.206" transform="translate(22.5 15.5)" fill="url(#linear-gradient)"/>
      </g>
      <g transform="matrix(1, 0, 0, 1, 372.5, 2268.5)" filter="url(#Path_1482-2)">
        <path id="Path_1482-4" data-name="Path 1482" d="M0,36.206A36.206,36.206,0,1,0,36.206,0,36.206,36.206,0,0,0,0,36.206" transform="translate(22.5 15.5)" fill="#fff"/>
      </g>
    </g>
    <g id="Group_1655" data-name="Group 1655" transform="translate(412.463 2301.461)">
      <g id="Group_1654" data-name="Group 1654" clip-path="url(#clip-path)">
        <path id="Path_1488" data-name="Path 1488" d="M18.718,37.488A18.744,18.744,0,1,1,37.392,18.737,18.706,18.706,0,0,1,18.718,37.488M18.738,3.01a15.751,15.751,0,1,0,15.7,15.77,15.782,15.782,0,0,0-15.7-15.77" transform="translate(-0.001 0.001)" fill="#f5f5f5"/>
        <path id="Path_1489" data-name="Path 1489" d="M187.644,17.477a1.5,1.5,0,0,1-.094-3,1.5,1.5,0,1,1,.094,3" transform="translate(-149.528 -11.627)" fill="#f5f5f5"/>
        <path id="Path_1490" data-name="Path 1490" d="M90.448,57.025c0,1.92.012,3.759,0,5.6A1.463,1.463,0,0,1,88.515,64.1a1.37,1.37,0,0,1-1.006-1.231c-.017-.171-.017-.344-.017-.516q0-7.89,0-15.781c0-1.341.476-1.82,1.814-1.823,1.545,0,3.092-.028,4.636.03a6.118,6.118,0,0,1,1.088,12.07,7.847,7.847,0,0,1-1.529.165c-.979.025-1.96.007-3.054.007m.058-9.291V54.06c1.083,0,2.112.049,3.134-.011a3.268,3.268,0,0,0,3.141-3.176,3.23,3.23,0,0,0-2.942-3.127c-1.094-.067-2.195-.013-3.334-.013" transform="translate(-70.283 -35.944)" fill="#f5f5f5"/>
        <path id="Path_1491" data-name="Path 1491" d="M56.085,54.5q0-3.977,0-7.955c0-1.1.539-1.711,1.468-1.713s1.48.619,1.481,1.705q0,7.992,0,15.984a1.54,1.54,0,0,1-1.472,1.742c-.878,0-1.474-.686-1.476-1.734q-.008-4.015,0-8.029" transform="translate(-45.054 -36.017)" fill="#f5f5f5"/>
      </g>
    </g>
  </g>
</svg>
