<svg xmlns="http://www.w3.org/2000/svg" width="25.979" height="25.755" viewBox="0 0 25.979 25.755">
  <path id="Combined_Shape" data-name="Combined Shape" d="M14.825,23.635A43.019,43.019,0,0,1,1.118,9.928,7.319,7.319,0,0,1,2.136.874L2.3.715a2.357,2.357,0,0,1,3.641.318L9.176,5.657a2.385,2.385,0,0,1-.265,3.057l-.2.2a1.8,1.8,0,0,0-.289,2.2,14.93,14.93,0,0,0,5.213,5.214,1.8,1.8,0,0,0,2.2-.289l.2-.2a2.385,2.385,0,0,1,3.057-.265l4.624,3.239a2.357,2.357,0,0,1,.318,3.641l-.16.158a7.315,7.315,0,0,1-9.053,1.02Zm6.968-13.608a7.069,7.069,0,0,0-7.068-7.069,1.473,1.473,0,1,1,0-2.945A10.013,10.013,0,0,1,24.738,10.028a1.473,1.473,0,0,1-2.945,0Zm-5.3,0A1.767,1.767,0,0,0,14.725,8.26a1.473,1.473,0,1,1,0-2.945,4.712,4.712,0,0,1,4.711,4.713,1.472,1.472,0,0,1-2.944,0Z" transform="translate(0.724 0.502)" fill="#9e9e9e" stroke="rgba(0,0,0,0)" stroke-miterlimit="10" stroke-width="1"/>
</svg>
