<svg xmlns="http://www.w3.org/2000/svg" xmlns:xlink="http://www.w3.org/1999/xlink" width="81.62" height="104.815" viewBox="0 0 81.62 104.815" id="faceDetection">
  <defs>
    <clipPath id="clip-path">
      <rect id="Rectangle_706" data-name="Rectangle 706" width="81.62" height="104.815" stroke="rgba(0,0,0,0)" stroke-width="1"/>
    </clipPath>
    <clipPath id="clip-path-2">
      <rect id="Rectangle_723" data-name="Rectangle 723" width="59.981" height="71.815" stroke="#183573" stroke-width="1"/>
    </clipPath>
  </defs>
  <g id="Group_1644" data-name="Group 1644" style="mix-blend-mode: color-burn;isolation: isolate">
    <g id="Group_1578" data-name="Group 1578" clip-path="url(#clip-path)">
      <path id="Path_1430" data-name="Path 1430" d="M0,15.922q0-5.107,0-10.214A5.444,5.444,0,0,1,5.631.035C12.592.026,19.554.006,26.515.073a2.833,2.833,0,0,1,1.992.935c.866,1.152-.151,2.634-1.747,2.647-3.292.027-6.583.009-9.875.009H6.329c-2.183,0-2.692.5-2.692,2.642q0,9.874,0,19.748c0,.3.013.606-.007.908a1.855,1.855,0,0,1-1.769,1.86A1.813,1.813,0,0,1,.017,26.93C-.013,23.866,0,20.8,0,17.737q0-.908,0-1.816" transform="translate(5 3.982)" stroke="rgba(0,0,0,0)" stroke-width="1"/>
      <path id="Path_1431" data-name="Path 1431" d="M173.369,15.909q0,5.278,0,10.555c0,1.494-.711,2.373-1.861,2.34-1.111-.032-1.766-.877-1.767-2.318q-.006-10.045,0-20.089c0-2.261-.48-2.75-2.7-2.751q-9.875,0-19.751,0a6.231,6.231,0,0,1-1.132-.031,1.72,1.72,0,0,1-1.561-1.8A1.7,1.7,0,0,1,146.18.046a11.893,11.893,0,0,1,1.7-.031q9.7,0,19.41,0c3.907,0,6.078,2.191,6.078,6.134q0,4.88,0,9.761" transform="translate(-95.752 4)"  stroke="rgba(0,0,0,0)" stroke-width="1"/>
      <path id="Path_1432" data-name="Path 1432" d="M15.943,233.339c-3.443,0-6.886.008-10.329,0a5.441,5.441,0,0,1-5.6-5.582Q0,217.313.01,206.872c0-1.444.651-2.286,1.762-2.322,1.152-.038,1.866.841,1.867,2.332q.006,10.158,0,20.315c0,1.938.565,2.508,2.485,2.509q9.648,0,19.3,0h.794c1.714,0,2.608.641,2.584,1.844-.023,1.167-.894,1.785-2.529,1.787q-2.157,0-4.313,0H15.943" transform="translate(4.996 -131.728)"  stroke="rgba(0,0,0,0)" stroke-width="1"/>
      <path id="Path_1433" data-name="Path 1433" d="M173.349,217.369c0,3.439.008,6.878,0,10.317a5.455,5.455,0,0,1-5.641,5.652q-10.375.011-20.751,0a3.574,3.574,0,0,1-1.222-.148,1.661,1.661,0,0,1-1.152-1.868,1.726,1.726,0,0,1,1.543-1.579,6.9,6.9,0,0,1,1.132-.03q9.978,0,19.957,0c1.931,0,2.5-.568,2.5-2.489q0-9.92,0-19.841c0-.3-.011-.605,0-.907a1.848,1.848,0,0,1,1.817-1.92,1.82,1.82,0,0,1,1.8,1.934c.023,3.628.008,7.256.01,10.884" transform="translate(-95.733 -131.73)"  stroke="rgba(0,0,0,0)" stroke-width="1"/>
      <g id="Group_1646" data-name="Group 1646" transform="translate(9.82 18.403)">
        <g id="Group_1645" data-name="Group 1645" clip-path="url(#clip-path-2)">
          <path id="Path_1481" data-name="Path 1481" d="M55.68,59.009a19.049,19.049,0,0,0-9.05-9.711A47.7,47.7,0,0,0,37.1,45.411c-.22-.062-.537-.308-.55-.488-.077-1.014-.168-2.026.857-2.756a5.59,5.59,0,0,0,1.142-1.4A33.227,33.227,0,0,0,42.1,34.319a1.3,1.3,0,0,1,.652-.63,3.137,3.137,0,0,0,1.69-1.455c1.235-2.357,2.48-4.707,3.686-7.078a3.786,3.786,0,0,0-.255-3.952,4.4,4.4,0,0,0-2.785-1.9c.02-.1.031-.182.053-.261a29.829,29.829,0,0,0,.8-8.388A10.705,10.705,0,0,0,38.03.354C37.585.231,37.138.118,36.692,0H25.537c-.8.172-1.619.306-2.412.521a15.579,15.579,0,0,0-11.571,16.39c.063.8.191,1.588.293,2.412-.12.048-.239.1-.363.144a4.062,4.062,0,0,0-2.467,6.011c1.153,2.247,2.336,4.479,3.505,6.718a2.574,2.574,0,0,0,1.61,1.427,1.16,1.16,0,0,1,.83.834,25.9,25.9,0,0,0,4.561,7.617,3.3,3.3,0,0,1,.962,2.67.624.624,0,0,1-.545.675,44.556,44.556,0,0,0-7.879,2.991,21.725,21.725,0,0,0-8.9,7.135,18.688,18.688,0,0,0-3.147,11.5c.04,1.3.475,1.763,1.793,1.764H21.963c.162,0,.325.008.486,0,7.014,0,26.133,0,32.956,0a1.37,1.37,0,0,0,1.556-1.381,19.961,19.961,0,0,0-1.281-8.421M16.474,8.357A12.726,12.726,0,0,1,26.92,2.722a3.491,3.491,0,0,1,2.5.965,2.564,2.564,0,0,0,3.494.051,4.07,4.07,0,0,1,3.815-.88,7.867,7.867,0,0,1,6.426,7.823c0,1.985-.089,3.97-.138,5.955l-.311.143a2.459,2.459,0,0,0-.235-.433,8.841,8.841,0,0,0-2.972-2.361,4.273,4.273,0,0,1-2.562-3.794c-.069-.965-.647-1.566-1.437-1.535s-1.278.638-1.356,1.616a6.211,6.211,0,0,1-3.631,5.473,5.936,5.936,0,0,1-6.456-.625,6.925,6.925,0,0,0-7.035-1.239,19.284,19.284,0,0,0-2.783,1.648,12.453,12.453,0,0,1,2.239-7.171m.62,24.049c-.487-1.291-.75-1.474-2.084-1.392q-1.828-3.483-3.664-6.989a1.224,1.224,0,0,1,.2-1.489,1.364,1.364,0,0,1,1.52-.411c1.452.461,2.1-.015,2.157-1.551a4.269,4.269,0,0,1,3.729-4.382,4.134,4.134,0,0,1,3.241.985,8.328,8.328,0,0,0,3.859,1.767,8.876,8.876,0,0,0,9.31-3.929c.082-.118.163-.237.245-.356,1.116.723,2.129,1.392,3.156,2.038a6.153,6.153,0,0,1,2.867,4.041c.332,1.536.818,1.831,2.284,1.372a1.347,1.347,0,0,1,1.564.457,1.283,1.283,0,0,1,.138,1.5c-1.162,2.217-2.316,4.438-3.489,6.648a.587.587,0,0,1-.431.276c-.994-.032-1.351.176-1.7,1.133a30.335,30.335,0,0,1-3.719,7.1A9.382,9.382,0,0,1,20.689,39.2a30.335,30.335,0,0,1-3.6-6.795M31.165,50.978a5,5,0,0,1-5.688-.215,5.578,5.578,0,0,1-2.156-5.8,12.346,12.346,0,0,0,10.373-.009c.28,2.568-.283,4.693-2.529,6.022m23,15.13h-.834c-6.182,0-24.855,0-31.037,0l-.039,0-.3,0q-9.173-.006-18.345,0h-.84c.113-5.242,2.007-9.5,6.13-12.654a28.726,28.726,0,0,1,6.706-3.626c1.626-.662,3.295-1.223,4.941-1.827,1.694,4.371,4.081,6.4,7.684,6.427,4.33.032,6.9-2.324,8.167-6.329.14.03.271.05.4.087a43.2,43.2,0,0,1,9.46,4.056,15.315,15.315,0,0,1,7.051,8.474,14.327,14.327,0,0,1,.856,5.392" transform="translate(3.001 -0.001)"   stroke-width="1"/>
        </g>
      </g>
    </g>
  </g>
</svg>
