<svg xmlns="http://www.w3.org/2000/svg" xmlns:xlink="http://www.w3.org/1999/xlink" width="81.62" height="105.815" viewBox="0 0 81.62 105.815" id="fingerPrint">
  <defs>
    <clipPath id="clip-path">
      <rect id="Rectangle_706" data-name="Rectangle 706" width="81.62" height="105.815"  stroke="rgba(0,0,0,0)" stroke-width="1"/>
    </clipPath>
  </defs>
  <g id="Group_1579" data-name="Group 1579" style="mix-blend-mode: color-burn;isolation: isolate">
    <g id="Group_1578" data-name="Group 1578" clip-path="url(#clip-path)">
      <path id="Path_1427" data-name="Path 1427" d="M64.177,135.316A15.416,15.416,0,0,1,78.012,145.1c2.662,6.722,1.4,12.788-3.449,18.167-2.58,2.86-5.028,5.84-7.534,8.766-.074.086-.135.183-.207.27a1.842,1.842,0,0,1-2.672.537,1.793,1.793,0,0,1-.221-2.7c2.292-2.811,4.664-5.557,6.962-8.364a27.64,27.64,0,0,0,3.524-4.671,12.573,12.573,0,0,0-3.862-15.8,12.7,12.7,0,0,0-16.322,1.235c-2.563,2.562-4.9,5.352-7.333,8.043-.228.252-.422.534-.645.791-.865,1-1.945,1.181-2.769.479a1.754,1.754,0,0,1-.066-2.707c3.017-3.382,5.938-6.87,9.184-10.021,2.843-2.76,6.527-3.851,11.574-3.809" transform="translate(-25.834 -87.286)"  stroke="rgba(0,0,0,0)" stroke-width="1"/>
      <path id="Path_1428" data-name="Path 1428" d="M67.617,159.194c4.684.073,7.886,2.17,9.2,5.568a8.9,8.9,0,0,1-2.082,10.04,98.894,98.894,0,0,0-9.869,11.836,3.947,3.947,0,0,1-.983,1.075,1.63,1.63,0,0,1-2.176-.24,1.677,1.677,0,0,1-.177-2.365c1.571-2.129,3.1-4.3,4.784-6.333,1.93-2.327,3.993-4.545,6.038-6.773a5.494,5.494,0,0,0,0-7.588,5.289,5.289,0,0,0-7.631-.055c-3.465,3.79-6.732,7.761-10.076,11.661-.27.315-.478.681-.738,1.005a1.81,1.81,0,0,1-2.58.55,1.786,1.786,0,0,1-.333-2.689c1.924-2.526,3.847-5.056,5.884-7.491,1.623-1.941,3.353-3.8,5.145-5.592a8.32,8.32,0,0,1,5.6-2.608" transform="translate(-31.207 -103.924)"  stroke="rgba(0,0,0,0)" stroke-width="1"/>
      <path id="Path_1429" data-name="Path 1429" d="M64.524,87.576c9.691.389,18.742,5.024,24.9,14.807a2.784,2.784,0,0,1,.314,2.083c-.465,1.394-2.239,1.42-3.159.142-.97-1.349-1.851-2.774-2.929-4.029A27.538,27.538,0,0,0,46.36,96.787c-.21.162-.414.332-.633.478A1.832,1.832,0,0,1,43.181,97a1.685,1.685,0,0,1,.367-2.579A64.716,64.716,0,0,1,50.7,90.106c3.79-1.825,7.893-2.527,13.82-2.53" transform="translate(-25.782 -54.022)"  stroke="rgba(0,0,0,0)" stroke-width="1"/>
      <path id="Path_1430" data-name="Path 1430" d="M0,15.922q0-5.107,0-10.214A5.444,5.444,0,0,1,5.631.035C12.592.026,19.554.006,26.515.073a2.833,2.833,0,0,1,1.992.935c.866,1.152-.151,2.634-1.747,2.647-3.292.027-6.583.009-9.875.009H6.329c-2.183,0-2.692.5-2.692,2.642q0,9.874,0,19.748c0,.3.013.606-.007.908a1.855,1.855,0,0,1-1.769,1.86A1.813,1.813,0,0,1,.017,26.93C-.013,23.866,0,20.8,0,17.737q0-.908,0-1.816" transform="translate(4 1.982)"  stroke="rgba(0,0,0,0)" stroke-width="1"/>
      <path id="Path_1431" data-name="Path 1431" d="M173.369,15.909q0,5.278,0,10.555c0,1.494-.711,2.373-1.861,2.34-1.111-.032-1.766-.877-1.767-2.318q-.006-10.045,0-20.089c0-2.261-.48-2.75-2.7-2.751q-9.875,0-19.751,0a6.231,6.231,0,0,1-1.132-.031,1.72,1.72,0,0,1-1.561-1.8A1.7,1.7,0,0,1,146.18.046a11.893,11.893,0,0,1,1.7-.031q9.7,0,19.41,0c3.907,0,6.078,2.191,6.078,6.134q0,4.88,0,9.761" transform="translate(-96.752 2)"  stroke="rgba(0,0,0,0)" stroke-width="1"/>
      <path id="Path_1432" data-name="Path 1432" d="M15.943,233.339c-3.443,0-6.886.008-10.329,0a5.441,5.441,0,0,1-5.6-5.582Q0,217.313.01,206.872c0-1.444.651-2.286,1.762-2.322,1.152-.038,1.866.841,1.867,2.332q.006,10.158,0,20.315c0,1.938.565,2.508,2.485,2.509q9.648,0,19.3,0h.794c1.714,0,2.608.641,2.584,1.844-.023,1.167-.894,1.785-2.529,1.787q-2.157,0-4.313,0H15.943" transform="translate(3.996 -130.527)"  stroke="rgba(0,0,0,0)" stroke-width="1"/>
      <path id="Path_1433" data-name="Path 1433" d="M173.349,217.369c0,3.439.008,6.878,0,10.317a5.455,5.455,0,0,1-5.641,5.652q-10.375.011-20.751,0a3.574,3.574,0,0,1-1.222-.148,1.661,1.661,0,0,1-1.152-1.868,1.726,1.726,0,0,1,1.543-1.579,6.9,6.9,0,0,1,1.132-.03q9.978,0,19.957,0c1.931,0,2.5-.568,2.5-2.489q0-9.92,0-19.841c0-.3-.011-.605,0-.907a1.848,1.848,0,0,1,1.817-1.92,1.82,1.82,0,0,1,1.8,1.934c.023,3.628.008,7.256.01,10.884" transform="translate(-96.733 -130.529)"  stroke="rgba(0,0,0,0)" stroke-width="1"/>
      <path id="Path_1434" data-name="Path 1434" d="M62.924,111.563a23.723,23.723,0,0,1,22.244,15.079,2,2,0,0,1-.358,2.483c-1,.882-2.4.419-2.956-1.012a19.927,19.927,0,0,0-5.247-7.705,20.127,20.127,0,0,0-27.476.4c-1,.973-1.967,1.991-2.964,2.973a1.87,1.87,0,0,1-2.8.225,1.832,1.832,0,0,1,.162-2.716c3.15-3.471,6.54-6.611,11.071-8.237a24.218,24.218,0,0,1,8.321-1.491" transform="translate(-25.851 -70.736)"  stroke="rgba(0,0,0,0)" stroke-width="1"/>
      <path id="Path_1435" data-name="Path 1435" d="M66.087,63.069c10.8.189,19.369,3.436,26.655,9.971a3.594,3.594,0,0,1,.982,1.213,1.465,1.465,0,0,1-.59,1.983,2.786,2.786,0,0,1-2.07.059,13.012,13.012,0,0,1-2.095-1.711q-17.243-13.2-37.068-4.32c-.172.077-.338.169-.51.247a1.845,1.845,0,0,1-2.635-.713,1.824,1.824,0,0,1,1.013-2.524,35.034,35.034,0,0,1,10.478-3.531c2.27-.37,4.574-.532,5.841-.673" transform="translate(-29.832 -36.946)"  stroke="rgba(0,0,0,0)" stroke-width="1"/>
      <path id="Path_1436" data-name="Path 1436" d="M110.294,45.412c-.042,1.446-1.314,2.136-2.733,1.622-2.375-.862-4.724-1.835-7.156-2.5a40.418,40.418,0,0,0-16.425-.865,1.813,1.813,0,0,1-2.29-1.458c-.158-1.079.468-1.844,1.723-2.1a3.9,3.9,0,0,1,.671-.11c3.434-.079,6.882-.377,10.3-.172a41.262,41.262,0,0,1,14.506,3.8,1.981,1.981,0,0,1,1.4,1.774" transform="translate(-52.904 -20.706)"  stroke="rgba(0,0,0,0)" stroke-width="1"/>
      <path id="Path_1437" data-name="Path 1437" d="M67.789,200.817c-.62-.468-1.351-.743-1.533-1.226a2.509,2.509,0,0,1,.123-1.981,53.825,53.825,0,0,1,3.877-5.308c2.481-2.949,5.077-5.8,7.642-8.681a1.734,1.734,0,0,1,2.349-.409,1.632,1.632,0,0,1,.8,1.947,2.752,2.752,0,0,1-.7,1.129,105.918,105.918,0,0,0-10.912,13.179,8.522,8.522,0,0,1-1.636,1.349" transform="translate(-42.066 -120.459)"  stroke="rgba(0,0,0,0)" stroke-width="1"/>
      <path id="Path_1438" data-name="Path 1438" d="M150.273,220.206c-.524-.457-1.234-.8-1.428-1.324a2.462,2.462,0,0,1,.258-1.861,9.676,9.676,0,0,1,1.742-1.927,19.621,19.621,0,0,0,4.829-7.447c.04-.106.071-.216.116-.319a1.816,1.816,0,1,1,3.38,1.294,24.142,24.142,0,0,1-6.006,9.361,18.27,18.27,0,0,1-1.374,1.351,11.886,11.886,0,0,1-1.518.871" transform="translate(-99.652 -136.54)"  stroke="rgba(0,0,0,0)" stroke-width="1"/>
      <path id="Path_1439" data-name="Path 1439" d="M179.151,184.384a1.813,1.813,0,0,1-1.762,1.838,1.881,1.881,0,0,1-1.838-1.79,1.755,1.755,0,0,1,1.787-1.788,1.71,1.71,0,0,1,1.813,1.741" transform="translate(-118.322 -120.264)"  stroke="rgba(0,0,0,0)" stroke-width="1"/>
    </g>
  </g>
</svg>
