<svg xmlns="http://www.w3.org/2000/svg" xmlns:xlink="http://www.w3.org/1999/xlink" width="252.455" height="250.946" viewBox="0 0 252.455 250.946">
  <defs>
    <linearGradient id="linear-gradient" x1="0.5" x2="0.5" y2="1" gradientUnits="objectBoundingBox">
      <stop offset="0" stop-color="#00e5ff"/>
      <stop offset="1" stop-color="#b7fdff"/>
    </linearGradient>
    <filter id="Rectangle_648" x="0" y="0" width="252.455" height="250.946" filterUnits="userSpaceOnUse">
      <feOffset input="SourceAlpha"/>
      <feGaussianBlur stdDeviation="49.5" result="blur"/>
      <feFlood flood-color="#80a5ac" flood-opacity="0.129" result="color"/>
      <feComposite operator="out" in="SourceGraphic" in2="blur"/>
      <feComposite operator="in" in="color"/>
      <feComposite operator="in" in2="SourceGraphic"/>
    </filter>
  </defs>
  <g id="Group_1528" data-name="Group 1528" transform="translate(-431.968 -4799.768)">
    <g id="Group_1458" data-name="Group 1458" transform="translate(432.968 4800.768)" opacity="0.5">
      <g data-type="innerShadowGroup">
        <rect id="Rectangle_648-2" data-name="Rectangle 648" width="250.455" height="248.946" rx="124.473" transform="translate(0 0)" fill="url(#linear-gradient)"/>
        <g transform="matrix(1, 0, 0, 1, -1, -1)" filter="url(#Rectangle_648)">
          <rect id="Rectangle_648-3" data-name="Rectangle 648" width="250.455" height="248.946" rx="124.473" transform="translate(1 1)" fill="#fff"/>
        </g>
        <rect id="Rectangle_648-4" data-name="Rectangle 648" width="250.455" height="248.946" rx="124.473" transform="translate(0 0)" fill="none" stroke="#75c9db" stroke-width="2"/>
      </g>
    </g>
    <g id="Group_1521" data-name="Group 1521" transform="translate(479.515 4847.875)">
      <g id="Group_1515" data-name="Group 1515" transform="translate(0 0)">
        <g id="Group_1490" data-name="Group 1490">
          <g id="Group_1489" data-name="Group 1489">
            <path id="Path_1306" data-name="Path 1306" d="M431.025,188.593A77.366,77.366,0,1,1,508.4,111.227,77.455,77.455,0,0,1,431.025,188.593Zm0-149.988a72.622,72.622,0,1,0,72.627,72.622A72.707,72.707,0,0,0,431.025,38.6Z" transform="translate(-353.654 -33.861)" fill="#75c9db"/>
          </g>
        </g>
        <g id="Group_1492" data-name="Group 1492" transform="translate(36.208 36.201)">
          <g id="Group_1491" data-name="Group 1491">
            <path id="Path_1308" data-name="Path 1308" d="M410.083,131.454a41.165,41.165,0,1,1,41.165-41.165A41.21,41.21,0,0,1,410.083,131.454Zm0-77.587A36.421,36.421,0,1,0,446.5,90.289,36.463,36.463,0,0,0,410.083,53.868Z" transform="translate(-368.92 -49.124)" fill="#75c9db"/>
          </g>
        </g>
        <g id="Group_1494" data-name="Group 1494" transform="translate(116.475 37.873)">
          <g id="Group_1493" data-name="Group 1493">
            <path id="Path_1310" data-name="Path 1310" d="M413.615,71.529A10.85,10.85,0,1,1,424.459,60.68,10.862,10.862,0,0,1,413.615,71.529Zm0-16.956a6.106,6.106,0,1,0,6.1,6.107A6.116,6.116,0,0,0,413.615,54.573Z" transform="translate(-402.762 -49.829)" fill="#75c9db"/>
          </g>
        </g>
        <g id="Group_1496" data-name="Group 1496" transform="translate(95.378 16.441)">
          <g id="Group_1495" data-name="Group 1495">
            <path id="Path_1312" data-name="Path 1312" d="M404.734,62.5a10.892,10.892,0,0,1-9.409-5.427,10.861,10.861,0,1,1,9.409,5.427Zm-.014-16.958a6.118,6.118,0,0,0-5.9,4.53,6.055,6.055,0,0,0,.612,4.63,6.267,6.267,0,0,0,8.342,2.239,6.109,6.109,0,0,0-3.057-11.4Z" transform="translate(-393.867 -40.793)" fill="#75c9db"/>
          </g>
        </g>
        <g id="Group_1498" data-name="Group 1498" transform="translate(66.401 8.434)">
          <g id="Group_1497" data-name="Group 1497">
            <path id="Path_1314" data-name="Path 1314" d="M392.5,59.117a10.85,10.85,0,1,1,9.4-5.422A10.864,10.864,0,0,1,392.5,59.117Zm.017-16.956a6.107,6.107,0,0,0-3.067,11.392,6.274,6.274,0,0,0,8.344-2.23,6.106,6.106,0,0,0-5.277-9.162Z" transform="translate(-381.65 -37.417)" fill="#75c9db"/>
          </g>
        </g>
        <g id="Group_1500" data-name="Group 1500" transform="translate(37.301 15.984)">
          <g id="Group_1499" data-name="Group 1499">
            <path id="Path_1316" data-name="Path 1316" d="M380.23,62.3h0a10.852,10.852,0,1,1,10.849-10.856A10.87,10.87,0,0,1,380.23,62.3Zm0-16.961a6.109,6.109,0,1,0,6.1,6.105A6.115,6.115,0,0,0,380.234,45.344Z" transform="translate(-369.381 -40.6)" fill="#75c9db"/>
          </g>
        </g>
        <g id="Group_1502" data-name="Group 1502" transform="translate(15.868 37.076)">
          <g id="Group_1501" data-name="Group 1501">
            <path id="Path_1318" data-name="Path 1318" d="M371.211,71.2a10.9,10.9,0,0,1-9.409-5.429,10.849,10.849,0,1,1,9.409,5.429Zm-.024-16.958a6.1,6.1,0,0,0-5.277,9.155,6.258,6.258,0,0,0,8.339,2.241,6.1,6.1,0,0,0,2.237-8.337A6.14,6.14,0,0,0,371.188,54.237Z" transform="translate(-360.344 -49.493)" fill="#75c9db"/>
          </g>
        </g>
        <g id="Group_1504" data-name="Group 1504" transform="translate(7.858 66.057)">
          <g id="Group_1503" data-name="Group 1503">
            <path id="Path_1320" data-name="Path 1320" d="M367.815,83.414a10.853,10.853,0,1,1,9.4-5.427A10.846,10.846,0,0,1,367.815,83.414Zm.014-16.958a6.136,6.136,0,0,0-5.3,3.06,6.1,6.1,0,0,0,2.234,8.332,6.25,6.25,0,0,0,8.337-2.232,6.11,6.11,0,0,0-5.275-9.16Z" transform="translate(-356.967 -61.712)" fill="#75c9db"/>
          </g>
        </g>
        <g id="Group_1506" data-name="Group 1506" transform="translate(15.412 95.164)">
          <g id="Group_1505" data-name="Group 1505">
            <path id="Path_1322" data-name="Path 1322" d="M371.005,95.681A10.849,10.849,0,1,1,381.852,84.83,10.864,10.864,0,0,1,371.005,95.681Zm0-16.954a6.105,6.105,0,1,0,6.1,6.1A6.118,6.118,0,0,0,371.005,78.728Z" transform="translate(-360.152 -73.984)" fill="#75c9db"/>
          </g>
        </g>
        <g id="Group_1508" data-name="Group 1508" transform="translate(36.509 116.589)">
          <g id="Group_1507" data-name="Group 1507">
            <path id="Path_1324" data-name="Path 1324" d="M379.9,104.719a10.851,10.851,0,1,1,9.39-16.268,10.853,10.853,0,0,1-9.39,16.268Zm-.019-16.958a6.108,6.108,0,0,0-5.275,9.16,6.258,6.258,0,0,0,8.337,2.234,6.1,6.1,0,0,0,2.239-8.332A6.13,6.13,0,0,0,379.881,87.761Z" transform="translate(-369.047 -83.017)" fill="#75c9db"/>
          </g>
        </g>
        <g id="Group_1510" data-name="Group 1510" transform="translate(65.491 124.603)">
          <g id="Group_1509" data-name="Group 1509">
            <path id="Path_1326" data-name="Path 1326" d="M392.105,108.093a10.85,10.85,0,1,1,9.4-5.424A10.9,10.9,0,0,1,392.105,108.093Zm.019-16.954a6.1,6.1,0,0,0-3.062,11.392A6.255,6.255,0,0,0,397.4,100.3a6.1,6.1,0,0,0-5.275-9.158Z" transform="translate(-381.266 -86.396)" fill="#75c9db"/>
          </g>
        </g>
        <g id="Group_1512" data-name="Group 1512" transform="translate(94.59 117.049)">
          <g id="Group_1511" data-name="Group 1511">
            <path id="Path_1328" data-name="Path 1328" d="M404.388,104.913a10.851,10.851,0,1,1,10.846-10.851A10.866,10.866,0,0,1,404.388,104.913Zm0-16.958a6.107,6.107,0,1,0,6.1,6.107A6.117,6.117,0,0,0,404.388,87.955Z" transform="translate(-393.535 -83.211)" fill="#75c9db"/>
          </g>
        </g>
        <g id="Group_1514" data-name="Group 1514" transform="translate(114.235 94.12)">
          <g id="Group_1513" data-name="Group 1513">
            <path id="Path_1330" data-name="Path 1330" d="M429.434,103.092a2.367,2.367,0,0,1-1.122-.285L407.433,91.584c-3.121-1.938-7.874-7.075-4.395-13.192,2.4-4.217,5.754-4.848,7.538-4.848a8.881,8.881,0,0,1,6.461,2.815,7.527,7.527,0,0,1,1.112,7.976l8.427,4.34L433.8,76.034a5.133,5.133,0,0,1,4.438-2.258,10.727,10.727,0,0,1,5.609,1.947,2.371,2.371,0,0,1,.783,3.178L431.495,101.9A2.371,2.371,0,0,1,429.434,103.092Zm-18.858-24.8c-1.359,0-2.474.8-3.415,2.45-2.116,3.724,2.455,6.622,2.649,6.741L428.52,97.537l10.751-18.82c-1.041-.342-1.361-.175-1.478-.116L429.569,93a2.37,2.37,0,0,1-3.147.93l-12.623-6.5a2.372,2.372,0,0,1-.759-3.6c.194-.244,1.935-2.583.389-4.388A4.253,4.253,0,0,0,410.575,78.288Z" transform="translate(-401.818 -73.544)" fill="#75c9db"/>
          </g>
        </g>
      </g>
      <g id="Group_1520" data-name="Group 1520" transform="translate(47.519 67.357)">
        <g id="Group_1516" data-name="Group 1516">
          <path id="Path_1331" data-name="Path 1331" d="M385.892,67.82a9.21,9.21,0,0,1-.555,3.1,19.446,19.446,0,0,1-1.414,3.064,28.523,28.523,0,0,1-1.9,2.9q-1.035,1.4-2.028,2.569l-1.589,1.233v.149l2.163-.42h5.766v3.3H373.689V81.7q.726-.751,1.627-1.76t1.817-2.132c.61-.752,1.207-1.527,1.786-2.329a25.314,25.314,0,0,0,1.563-2.419,14.73,14.73,0,0,0,1.1-2.358,6.531,6.531,0,0,0,.406-2.163,2.939,2.939,0,0,0-.707-2.028,2.863,2.863,0,0,0-2.239-.8,5.242,5.242,0,0,0-1.969.406,5.58,5.58,0,0,0-1.7,1.036l-1.565-2.763a9.851,9.851,0,0,1,2.659-1.549,9.515,9.515,0,0,1,3.5-.586,7.4,7.4,0,0,1,2.372.363,5.227,5.227,0,0,1,1.862,1.051,4.743,4.743,0,0,1,1.233,1.727A6.055,6.055,0,0,1,385.892,67.82Z" transform="translate(-373.689 -62.26)" fill="#75c9db"/>
        </g>
        <g id="Group_1517" data-name="Group 1517" transform="translate(15.538 0.27)">
          <path id="Path_1332" data-name="Path 1332" d="M396.283,77.7h-3.3v5.861h-3.636V77.7h-9.1v-2.22l9.525-13.1h3.214v12.2h3.3Zm-6.94-7.718.268-2.526h-.119l-1.02,2.163-3.126,4.056-1.5,1.143,1.921-.242h3.577Z" transform="translate(-380.24 -62.374)" fill="#75c9db"/>
        </g>
        <g id="Group_1518" data-name="Group 1518" transform="translate(31.279 0.062)">
          <path id="Path_1333" data-name="Path 1333" d="M397.6,62.286l2.943,1.321L389.823,87.885,386.877,86.5Z" transform="translate(-386.877 -62.286)" fill="#75c9db"/>
        </g>
        <g id="Group_1519" data-name="Group 1519" transform="translate(46.061 0.422)">
          <path id="Path_1334" data-name="Path 1334" d="M394.43,83.469l6.883-16.195,1.321-1.473-1.8.3h-7.723V62.438h13.55v1.141l-8.413,19.89Z" transform="translate(-393.109 -62.438)" fill="#75c9db"/>
        </g>
      </g>
    </g>
  </g>
</svg>
