<svg xmlns="http://www.w3.org/2000/svg" width="151.371" height="143.272" viewBox="0 0 151.371 143.272" id="beforeSale">
  <g id="Group_1488" data-name="Group 1488" transform="translate(0 0)" style="isolation: isolate">
    <g id="Group_1475" data-name="Group 1475" transform="translate(68.663 52.829)">
      <g id="Group_1461" data-name="Group 1461">
        <g id="Group_1460" data-name="Group 1460">
          <g id="Group_1459" data-name="Group 1459">
            <path id="Path_1292" data-name="Path 1292" d="M134.573,421c5.44-5.205,8.706-11.827,8.706-19.044,0-16.756-17.559-30.34-39.213-30.34S64.842,385.2,64.842,401.953s17.559,30.341,39.224,30.341a49.11,49.11,0,0,0,15.626-2.514l20.387,8.922Z" transform="translate(-62.706 -369.477)" fill="#2a5287"/>
            <path id="Path_1293" data-name="Path 1293" d="M141.215,441.973a2.138,2.138,0,0,1-.857-.177L120.717,433.2a51.325,51.325,0,0,1-15.515,2.364c-22.805,0-41.36-14.567-41.36-32.476S82.4,370.613,105.2,370.613s41.349,14.571,41.349,32.476a28.307,28.307,0,0,1-8.42,19.646l5.124,16.47a2.139,2.139,0,0,1-.615,2.228A2.163,2.163,0,0,1,141.215,441.973ZM120.828,428.78a2.167,2.167,0,0,1,.856.179l16.1,7.048-4.116-13.241a2.135,2.135,0,0,1,.562-2.176c5.265-5.037,8.048-11.09,8.048-17.5,0-15.551-16.632-28.2-37.077-28.2s-37.088,12.653-37.088,28.2,16.637,28.2,37.088,28.2a46.839,46.839,0,0,0,14.947-2.4A2.116,2.116,0,0,1,120.828,428.78Z" transform="translate(-63.842 -370.613)" fill="#f5f5f5"/>
          </g>
        </g>
      </g>
      <g id="Group_1474" data-name="Group 1474" transform="translate(23.254 29.784)">
        <g id="Group_1465" data-name="Group 1465" transform="translate(0)">
          <g id="Group_1464" data-name="Group 1464">
            <g id="Group_1463" data-name="Group 1463">
              <g id="Group_1462" data-name="Group 1462">
                <path id="Path_1294" data-name="Path 1294" d="M79.013,385.908A3.014,3.014,0,1,1,76,382.893,3.014,3.014,0,0,1,79.013,385.908Z" transform="translate(-71.826 -381.734)" fill="#f5f5f5"/>
                <path id="Path_1295" data-name="Path 1295" d="M76.156,390.241a4.174,4.174,0,1,1,4.175-4.175A4.178,4.178,0,0,1,76.156,390.241Zm0-6.03a1.856,1.856,0,1,0,1.857,1.855A1.857,1.857,0,0,0,76.156,384.211Z" transform="translate(-71.985 -381.893)" fill="#f5f5f5"/>
              </g>
            </g>
          </g>
        </g>
        <g id="Group_1469" data-name="Group 1469" transform="translate(13.924)">
          <g id="Group_1468" data-name="Group 1468">
            <g id="Group_1467" data-name="Group 1467">
              <g id="Group_1466" data-name="Group 1466">
                <path id="Path_1296" data-name="Path 1296" d="M86.632,385.908a3.015,3.015,0,1,1-3.012-3.015A3.014,3.014,0,0,1,86.632,385.908Z" transform="translate(-79.443 -381.734)" fill="#f5f5f5"/>
                <path id="Path_1297" data-name="Path 1297" d="M83.779,390.241a4.174,4.174,0,1,1,4.171-4.175A4.18,4.18,0,0,1,83.779,390.241Zm0-6.03a1.856,1.856,0,1,0,1.853,1.855A1.86,1.86,0,0,0,83.779,384.211Z" transform="translate(-79.602 -381.893)" fill="#f5f5f5"/>
              </g>
            </g>
          </g>
        </g>
        <g id="Group_1473" data-name="Group 1473" transform="translate(27.851)">
          <g id="Group_1472" data-name="Group 1472">
            <g id="Group_1471" data-name="Group 1471">
              <g id="Group_1470" data-name="Group 1470">
                <path id="Path_1298" data-name="Path 1298" d="M94.254,385.908a3.016,3.016,0,1,1-3.015-3.015A3.016,3.016,0,0,1,94.254,385.908Z" transform="translate(-87.062 -381.734)" fill="#f5f5f5"/>
                <path id="Path_1299" data-name="Path 1299" d="M91.4,390.241a4.174,4.174,0,1,1,4.174-4.175A4.18,4.18,0,0,1,91.4,390.241Zm0-6.03a1.856,1.856,0,1,0,1.856,1.855A1.86,1.86,0,0,0,91.4,384.211Z" transform="translate(-87.221 -381.893)" fill="#f5f5f5"/>
              </g>
            </g>
          </g>
        </g>
      </g>
    </g>
    <g id="Group_1481" data-name="Group 1481" transform="translate(0 33.745)">
      <g id="Group_1478" data-name="Group 1478">
        <g id="Group_1477" data-name="Group 1477">
          <g id="Group_1476" data-name="Group 1476">
            <path id="Path_1300" data-name="Path 1300" d="M89.009,471.2a30.522,30.522,0,0,1-18.243-6.448c-8.845-6.6-22.1-30.78-22.662-31.8-.555-.91-14.862-24.475-16.16-35.439-1.059-8.943,1.282-17.213,6.587-23.29a29.289,29.289,0,0,1,2.14-2.2c5.991-5.5,15.218-9.778,15.609-9.957a3.363,3.363,0,0,1,1.638-.4,3.613,3.613,0,0,1,3.125,1.8l15.5,26.842a3.61,3.61,0,0,1-1.343,4.934l-.256.156q-1.9,1.182-6.675,3.849a19.841,19.841,0,0,1-8.422,2.77,190.423,190.423,0,0,0,9.981,18.382A191.369,191.369,0,0,0,80.788,438.3a19.709,19.709,0,0,1,6.634-5.882c4.056-2.407,5.842-3.366,6.525-3.716a2.61,2.61,0,0,1,.425-.3,3.713,3.713,0,0,1,4.923,1.335l15.5,26.831a3.634,3.634,0,0,1-1.316,4.932c-.2.15-8.524,6-16.278,8.435A27.317,27.317,0,0,1,89.009,471.2ZM57.65,366.151c-2.119,1.029-9.372,4.693-14.084,9.022a24.143,24.143,0,0,0-1.813,1.86c-5.773,6.608-6.213,14.513-5.566,19.979,1.192,10.045,15.472,33.57,15.618,33.807.184.329,13.418,24.463,21.519,30.516,7.021,5.244,15.069,6.886,22.6,4.526,6.241-1.956,13.191-6.544,14.866-7.685l-14.84-25.7c-.449.226-2.083,1.085-6.348,3.618-5.57,3.294-6.006,6.194-6.01,6.22a2.209,2.209,0,0,1-1.2,1.7,2.127,2.127,0,0,1-2.042-.064c-3.392-2.085-11.73-16.9-14.206-21.4-2.61-4.315-11.273-18.943-11.382-22.925a2.136,2.136,0,0,1,3.027-2h0a5.057,5.057,0,0,0,1.356.154h0a14.734,14.734,0,0,0,7.053-2.249c3.018-1.689,5.148-2.911,6.333-3.642Z" transform="translate(-31.695 -361.678)" fill="#f5f5f5"/>
          </g>
        </g>
      </g>
      <g id="Group_1479" data-name="Group 1479" transform="translate(56.094 69.616)">
        <path id="Path_1301" data-name="Path 1301" d="M77.566,427.945a2.131,2.131,0,0,1-1.837-1.042L58.258,397.5a2.135,2.135,0,1,1,3.672-2.181L79.4,424.72a2.135,2.135,0,0,1-1.835,3.225Z" transform="translate(-57.958 -394.271)" fill="#f5f5f5"/>
      </g>
      <g id="Group_1480" data-name="Group 1480" transform="translate(16.897 3.637)">
        <path id="Path_1302" data-name="Path 1302" d="M59.2,397.039a2.134,2.134,0,0,1-1.839-1.044L39.907,366.611a2.135,2.135,0,1,1,3.669-2.183l17.459,29.386a2.136,2.136,0,0,1-1.833,3.225Z" transform="translate(-39.606 -363.381)" fill="#f5f5f5"/>
      </g>
    </g>
    <g id="Group_1487" data-name="Group 1487" transform="translate(44.217 0)">
      <g id="Group_1484" data-name="Group 1484">
        <g id="Group_1483" data-name="Group 1483">
          <g id="Group_1482" data-name="Group 1482">
            <path id="Path_1303" data-name="Path 1303" d="M62.137,404.736a33.31,33.31,0,0,1-8.74-22.309c0-19.633,17.625-35.548,39.369-35.548s39.375,15.915,39.375,35.548-17.625,35.546-39.375,35.546a42.949,42.949,0,0,1-15.69-2.95L56.609,425.478Z" transform="translate(-51.261 -344.743)" fill="#284e85"/>
            <path id="Path_1304" data-name="Path 1304" d="M57.745,428.75a2.133,2.133,0,0,1-2.063-2.687l5.235-19.644a35.563,35.563,0,0,1-8.52-22.856c0-20.78,18.619-37.684,41.5-37.684s41.511,16.9,41.511,37.684S116.79,421.244,93.9,421.244a45.021,45.021,0,0,1-15.564-2.753l-19.62,10.024A2.1,2.1,0,0,1,57.745,428.75Zm36.157-78.6c-20.532,0-37.233,14.99-37.233,33.412a30.983,30.983,0,0,0,8.2,20.887,2.134,2.134,0,0,1,.472,1.974L61.043,422.53l16.2-8.272a2.138,2.138,0,0,1,1.749-.085,40.748,40.748,0,0,0,14.913,2.8c20.535,0,37.239-14.988,37.239-33.41S114.436,350.151,93.9,350.151Z" transform="translate(-52.397 -345.879)" fill="#f5f5f5"/>
          </g>
        </g>
      </g>
      <g id="Group_1486" data-name="Group 1486" transform="translate(30.362 16.496)">
        <g id="Group_1485" data-name="Group 1485">
          <path id="Path_1305" data-name="Path 1305" d="M73.526,386.345a3.667,3.667,0,0,1-.06-.673V385a12.359,12.359,0,0,1,.765-4.526,17.031,17.031,0,0,1,1.9-3.584,27.159,27.159,0,0,1,2.448-3.029q1.317-1.406,2.45-2.845a15.88,15.88,0,0,0,1.9-3.063,8.561,8.561,0,0,0,.765-3.7,6.546,6.546,0,0,0-1.621-4.592q-1.624-1.772-5.417-1.775a13.938,13.938,0,0,0-4.468.765,18.6,18.6,0,0,0-3.917,1.8l-1.651-3.8a23.223,23.223,0,0,1,4.9-2.232,21.058,21.058,0,0,1,6.365-.825,13.585,13.585,0,0,1,4.744.763,9.669,9.669,0,0,1,3.426,2.11,8.527,8.527,0,0,1,2.05,3.185,11.31,11.31,0,0,1,.675,3.917,12.82,12.82,0,0,1-.827,4.806,16.68,16.68,0,0,1-2.082,3.733,30.615,30.615,0,0,1-2.691,3.148,35.19,35.19,0,0,0-2.693,3.091,16.589,16.589,0,0,0-2.083,3.522,11.153,11.153,0,0,0-.824,4.468ZM72.3,394.361a3.521,3.521,0,0,1,.946-2.6,3.444,3.444,0,0,1,2.542-.948,3.634,3.634,0,0,1,2.631.948,3.909,3.909,0,0,1,0,5.173,3.574,3.574,0,0,1-2.631.98,3.39,3.39,0,0,1-2.542-.98A3.537,3.537,0,0,1,72.3,394.361Z" transform="translate(-66.612 -353.602)" fill="#f5f5f5"/>
        </g>
      </g>
    </g>
  </g>
</svg>
