<svg xmlns="http://www.w3.org/2000/svg" width="126.744" height="153.278" viewBox="0 0 126.744 153.278" id="duringSale">
  <g id="Group_1510" data-name="Group 1510" transform="translate(0 0)" style="mix-blend-mode: darken;isolation: isolate">
    <g id="Group_1490" data-name="Group 1490" transform="translate(0 92.095)">
      <g id="Group_1489" data-name="Group 1489">
        <path id="Path_1306" data-name="Path 1306" d="M268.3,531.642c-1.507-9.915-2.763-13.666-16.518-15.262-5.2-.6-19.376-2.054-24.646-5.067s-4.432-18.077-4.432-18.077H193.911s.842,15.064-4.432,18.077-19.443,4.469-24.646,5.067c-13.755,1.6-15.012,5.348-16.518,15.262a155.172,155.172,0,0,0-1.254,18.577H269.552A155.172,155.172,0,0,0,268.3,531.642Z" transform="translate(-144.956 -491.142)" fill="#fff"/>
        <path id="Path_1307" data-name="Path 1307" d="M269.71,552.477H147.215a2.1,2.1,0,0,1-2.1-2.1v-.006a156.035,156.035,0,0,1,1.28-18.884c1.674-11.01,3.689-15.329,18.35-17.031l.982-.108c5.466-.619,18.268-2.07,22.874-4.693,2.855-1.63,3.694-10.417,3.373-16.134a2.1,2.1,0,0,1,1.98-2.216q.058,0,.117,0h28.79a2.105,2.105,0,0,1,2.1,2.1c0,.038,0,.075,0,.112-.316,5.722.523,14.508,3.37,16.138,4.6,2.62,17.4,4.072,22.87,4.691l.982.108c14.661,1.7,16.676,6.024,18.35,17.033a154.308,154.308,0,0,1,1.28,18.884,2.1,2.1,0,0,1-2.092,2.111h-.01Zm-120.358-4.2H267.577a141.544,141.544,0,0,0-1.2-16.161c-1.365-8.972-1.821-12-14.682-13.49l-.973-.108c-6.212-.7-19.133-2.168-24.477-5.219-5.068-2.895-5.606-12.932-5.557-17.8H196.243c.049,4.864-.494,14.9-5.562,17.8-5.348,3.05-18.268,4.517-24.482,5.219l-.973.108c-12.856,1.492-13.316,4.517-14.68,13.49A142.061,142.061,0,0,0,149.351,548.275Z" transform="translate(-145.114 -491.299)" />
      </g>
    </g>
    <g id="Group_1492" data-name="Group 1492" transform="translate(23.738 6.366)">
      <g id="Group_1491" data-name="Group 1491">
        <path id="Path_1308" data-name="Path 1308" d="M238.941,462.05H238.3c.271-2.2.546-4.368.813-6.421,1.387-10.631,4.509-41.7-32.583-41.7s-33.973,31.066-32.588,41.7c.267,2.054.54,4.216.817,6.421h-.641c-5.646-4.175-6.118,6.73-3.767,10.459a22.716,22.716,0,0,1,3.168,6.815c.865,2.507,2.311,2.836,3.513,2.565.151,1.485.283,2.78.374,3.809.521,5.729,14.3,17.214,17.42,20.8,2.925,3.37,7.8,2.054,9.369,1.988s2.334-.116,2.334-.116.75.04,2.329.116c1.563.069,6.444,1.383,9.369-1.988,3.124-3.591,16.9-15.073,17.415-20.8.094-1.029.227-2.324.378-3.811,1.206.273,2.647-.056,3.513-2.563a22.586,22.586,0,0,1,3.168-6.815C245.059,468.78,244.58,457.877,238.941,462.05Z" transform="translate(-166.917 -411.834)" fill="#fff"/>
        <path id="Path_1309" data-name="Path 1309" d="M212.623,511.062a23.129,23.129,0,0,1-2.919-.225c-.316-.042-.582-.078-.784-.086l-2.24-.108-2.238.108c-.2.009-.47.044-.788.086a23.043,23.043,0,0,1-2.912.225,9.244,9.244,0,0,1-7.351-3.021c-.723-.83-2.182-2.231-3.87-3.854-7.44-7.149-13.632-13.448-14.06-18.138-.049-.582-.108-1.249-.187-1.986-1.227-.343-2.7-1.322-3.591-3.891l-.248-.719a19.054,19.054,0,0,0-2.712-5.66c-1.957-3.106-2.222-9.142-.54-12.188a4.285,4.285,0,0,1,4.234-2.414c-.134-1.064-.271-2.109-.405-3.128-.731-5.61-2.954-22.678,6.828-33.817,5.976-6.81,15.344-10.255,27.843-10.255s21.868,3.451,27.848,10.259c9.778,11.141,7.552,28.2,6.82,33.812q-.2,1.529-.4,3.135a4.272,4.272,0,0,1,4.235,2.409c1.679,3.05,1.405,9.087-.55,12.186a19.03,19.03,0,0,0-2.7,5.648l-.254.733c-.886,2.572-2.364,3.551-3.591,3.892-.074.739-.138,1.405-.194,1.988-.423,4.687-6.614,10.988-14.052,18.136-1.687,1.621-3.143,3.027-3.865,3.854A9.245,9.245,0,0,1,212.623,511.062Zm-5.938-4.626h.116l2.313.108c.283.013.67.058,1.124.116a18.554,18.554,0,0,0,2.385.193,5.127,5.127,0,0,0,4.177-1.574c.846-.973,2.294-2.366,4.128-4.126,4.353-4.188,12.463-11.98,12.778-15.491.1-1.038.231-2.338.383-3.834a2.1,2.1,0,0,1,2.3-1.88,2.071,2.071,0,0,1,.256.042.978.978,0,0,0,.216.025c.4,0,.771-1.021.842-1.225l.25-.726a22.883,22.883,0,0,1,3.135-6.528c1.412-2.235,1.189-7.481.216-8.189a4.168,4.168,0,0,0-.956.54,2.083,2.083,0,0,1-1.25.412h-.641a2.1,2.1,0,0,1-2.1-2.1,2,2,0,0,1,.016-.255c.271-2.206.546-4.377.813-6.432.672-5.145,2.714-20.788-5.811-30.5-5.141-5.858-13.447-8.828-24.687-8.828s-19.545,2.978-24.693,8.837c-8.524,9.709-6.486,25.357-5.816,30.5.267,2.054.54,4.226.817,6.432a2.1,2.1,0,0,1-1.82,2.344,2.154,2.154,0,0,1-.264.016h-.641a2.1,2.1,0,0,1-1.252-.412,2.175,2.175,0,0,0-1.029-.525c-.9.649-1.129,5.925.292,8.173a22.888,22.888,0,0,1,3.135,6.539l.245.712c.073.205.448,1.233.855,1.233a.922.922,0,0,0,.216-.029,2.08,2.08,0,0,1,1.687.345,2.11,2.11,0,0,1,.865,1.492c.151,1.494.283,2.8.374,3.832.324,3.507,8.432,11.3,12.787,15.487,1.83,1.763,3.277,3.153,4.126,4.128a5.133,5.133,0,0,0,4.179,1.574,18.443,18.443,0,0,0,2.378-.193c.456-.056.839-.108,1.131-.116l2.309-.108a.479.479,0,0,1,.117-.01Z" transform="translate(-167.074 -411.991)" />
      </g>
    </g>
    <g id="Group_1494" data-name="Group 1494" transform="translate(25.286 0)">
      <g id="Group_1493" data-name="Group 1493">
        <path id="Path_1310" data-name="Path 1310" d="M231.458,414.405c-7.854-3.459-11.655-1.54-11.655-1.54v.009c-2.109-2.258-7.534-6.063-19.468-4.432-16.569,2.262-18.2,5.967-24.349,4.517a40.76,40.76,0,0,0-3.952,10.732,68.709,68.709,0,0,0,2.291,37.426,99.735,99.735,0,0,0,2.863,9.825s-1.563-20.332,1.559-28.364c3.143-8.042,14.1-9.787,17.751-6.27s9.919,3.1,9.919,3.1,6.27.41,9.915-3.1c3.08-2.966,11.341-2.173,15.745,2.975l1.447,2.118a12.479,12.479,0,0,1,.559,1.178c3.126,8.033,1.563,28.364,1.563,28.364a101.733,101.733,0,0,0,4.675-19.6h0C244.659,425.721,238.589,417.55,231.458,414.405Z" transform="translate(-168.348 -405.944)" fill="#fff"/>
        <path id="Path_1311" data-name="Path 1311" d="M177.341,473.2a2.106,2.106,0,0,1-1.975-1.383,101.133,101.133,0,0,1-2.928-10.053,70.787,70.787,0,0,1-2.307-38.344,42.894,42.894,0,0,1,4.185-11.35,2.091,2.091,0,0,1,2.307-1c2.565.6,4.216.108,7.465-.926a86.274,86.274,0,0,1,16.119-3.627,42.657,42.657,0,0,1,5.762-.416c7.763,0,12.228,2.538,14.548,4.557a12.349,12.349,0,0,1,2.636-.265,23.476,23.476,0,0,1,9.308,2.246c10.625,4.679,13.829,17.139,10.092,39.21a102.841,102.841,0,0,1-4.774,19.966,2.1,2.1,0,0,1-4.07-.878c.017-.2,1.49-19.947-1.429-27.441a8.611,8.611,0,0,0-.405-.857l-1.309-1.919a12.089,12.089,0,0,0-8.77-3.878,5.789,5.789,0,0,0-3.854,1.133c-3.471,3.345-8.683,3.707-10.764,3.707-.276,0-.485-.006-.607-.011s-.332.011-.612.011c-2.075,0-7.289-.361-10.763-3.707a5.822,5.822,0,0,0-3.878-1.137c-3.783,0-8.671,2.084-10.459,6.66-2.685,6.9-1.647,24.172-1.45,27.034a2.1,2.1,0,0,1-2.024,2.667A.123.123,0,0,1,177.341,473.2Zm-.046-57.743a39.586,39.586,0,0,0-3.053,8.822,66.338,66.338,0,0,0,.685,31.141c.185-5.034.731-10.146,2.015-13.447,2.509-6.417,9.209-9.337,14.377-9.337a9.707,9.707,0,0,1,6.791,2.31c2.441,2.349,6.626,2.532,7.85,2.532.279,0,.452-.009.479-.011.086-.007.181,0,.267,0,.025,0,.2.011.472.011,1.227,0,5.412-.183,7.85-2.53a9.667,9.667,0,0,1,6.767-2.309,16.2,16.2,0,0,1,12.033,5.431c.048.057.092.117.134.178l1.452,2.12a2.279,2.279,0,0,1,.129.216,14.048,14.048,0,0,1,.649,1.378,40.519,40.519,0,0,1,1.92,11.308c.1-.672.2-1.349.278-2.03,4.437-26.2-2.222-32.375-7.621-34.753a19.243,19.243,0,0,0-7.616-1.891,6.571,6.571,0,0,0-2.26.317,2.111,2.111,0,0,1-2.469-.445c-1.45-1.554-5-4.164-12.455-4.164a38.693,38.693,0,0,0-5.2.376,82.75,82.75,0,0,0-15.418,3.471c-2.991.951-5.284,1.638-8.059,1.306Z" transform="translate(-168.506 -406.101)" />
      </g>
    </g>
    <g id="Group_1495" data-name="Group 1495" transform="translate(68.347 65.758)">
      <path id="Path_1312" data-name="Path 1312" d="M210.395,494.915a2.1,2.1,0,0,1,0-4.2c10.9,0,18.787-2.654,23.442-7.881a19.022,19.022,0,0,0,4.513-13.594,2.1,2.1,0,0,1,4.168-.51,22.934,22.934,0,0,1-5.495,16.838C231.546,491.769,222.583,494.915,210.395,494.915Z" transform="translate(-208.341 -466.935)" />
    </g>
    <g id="Group_1501" data-name="Group 1501" transform="translate(17.874 8.386)">
      <g id="Group_1496" data-name="Group 1496" transform="translate(71.773 36.713)">
        <path id="Path_1313" data-name="Path 1313" d="M244.963,463.825c0-7.736-3.2-14-7.156-14.045v-.007h-2.576v.865c-2.91,1.971-5.24,7.12-5.24,13.188s2.331,11.211,5.24,13.182v.865h2.577v-.007C241.763,477.827,244.963,471.553,244.963,463.825Z" transform="translate(-227.89 -447.664)" fill="#fff"/>
        <path id="Path_1314" data-name="Path 1314" d="M237.964,480.132h-2.576a2.1,2.1,0,0,1-2.093-1.946c-3.177-2.811-5.248-8.323-5.248-14.207s2.071-11.4,5.248-14.211a2.1,2.1,0,0,1,2.093-1.946h2.576a1.986,1.986,0,0,1,.227.013c5.163.227,9.03,7.107,9.03,16.14s-3.868,15.911-9.03,16.138A1.132,1.132,0,0,1,237.964,480.132Zm-.874-4.2h.715l.138-.007c2.122-.018,5.08-4.573,5.08-11.94s-2.954-11.921-5.08-11.945a1,1,0,0,1-.138-.006h-.715a2.061,2.061,0,0,1-.525.5c-2.141,1.454-4.315,5.849-4.315,11.446s2.175,9.992,4.315,11.442a2.108,2.108,0,0,1,.526.506Z" transform="translate(-228.047 -447.822)" />
      </g>
      <g id="Group_1497" data-name="Group 1497" transform="translate(71.773 36.361)">
        <path id="Path_1315" data-name="Path 1315" d="M237.991,474.935c0,1.838-1.189,3.32-2.666,3.32h-2.669c-1.472,0-2.666-1.485-2.666-3.32V452.761c0-1.832,1.189-3.32,2.666-3.32h2.666c1.477,0,2.666,1.487,2.666,3.32Z" transform="translate(-227.89 -447.34)" fill="#fff"/>
        <path id="Path_1316" data-name="Path 1316" d="M235.483,480.517h-2.669c-2.627,0-4.767-2.431-4.767-5.421V452.918c0-2.988,2.141-5.421,4.767-5.421h2.669c2.63,0,4.767,2.433,4.767,5.421V475.1C240.25,478.086,238.113,480.517,235.483,480.517ZM232.814,451.7c-.138,0-.565.432-.565,1.218v22.178c0,.788.427,1.218.565,1.218h2.669c.143,0,.565-.432.565-1.218V452.918c0-.786-.423-1.218-.565-1.218Z" transform="translate(-228.047 -447.497)" />
      </g>
      <g id="Group_1498" data-name="Group 1498" transform="translate(0 36.721)">
        <path id="Path_1317" data-name="Path 1317" d="M163.593,463.825c0-7.736,3.2-14,7.158-14.045v-.007h2.576v.865c2.919,1.971,5.24,7.12,5.24,13.188s-2.326,11.211-5.24,13.182v.865h-2.576v-.007C166.795,477.827,163.593,471.553,163.593,463.825Z" transform="translate(-161.492 -447.673)" fill="#fff"/>
        <path id="Path_1318" data-name="Path 1318" d="M173.484,480.131h-2.576a1.558,1.558,0,0,1-.227-.011c-5.163-.227-9.033-7.106-9.033-16.138s3.87-15.915,9.037-16.14a1.912,1.912,0,0,1,.223-.013h2.576a2.1,2.1,0,0,1,2.1,1.946c3.173,2.81,5.244,8.323,5.244,14.211s-2.072,11.4-5.244,14.207A2.1,2.1,0,0,1,173.484,480.131Zm-2.416-4.2h.719a2.157,2.157,0,0,1,.521-.5c2.145-1.449,4.315-5.847,4.315-11.442s-2.171-9.992-4.315-11.446a2.136,2.136,0,0,1-.521-.5h-.719c-.046,0-.091.007-.141.007-2.115.023-5.08,4.578-5.08,11.945s2.961,11.921,5.08,11.94Z" transform="translate(-161.649 -447.83)" />
      </g>
      <g id="Group_1499" data-name="Group 1499" transform="translate(6.969 36.361)">
        <path id="Path_1319" data-name="Path 1319" d="M170.044,474.935c0,1.838,1.189,3.32,2.667,3.32h2.668c1.472,0,2.667-1.485,2.667-3.32V452.761c0-1.832-1.189-3.32-2.667-3.32h-2.668c-1.473,0-2.667,1.487-2.667,3.32Z" transform="translate(-167.938 -447.34)" fill="#fff"/>
        <path id="Path_1320" data-name="Path 1320" d="M175.531,480.517h-2.668c-2.627,0-4.767-2.431-4.767-5.421V452.918c0-2.988,2.141-5.421,4.767-5.421h2.668c2.631,0,4.767,2.433,4.767,5.421V475.1C180.3,478.086,178.166,480.517,175.531,480.517ZM172.867,451.7c-.138,0-.565.432-.565,1.218v22.178c0,.788.427,1.218.565,1.218h2.663c.143,0,.565-.432.565-1.218V452.918c0-.786-.423-1.218-.565-1.218Z" transform="translate(-168.096 -447.497)" />
      </g>
      <g id="Group_1500" data-name="Group 1500" transform="translate(7.128)">
        <path id="Path_1321" data-name="Path 1321" d="M242.839,455.9a2.1,2.1,0,0,1-2.1-2.1h0c0-19.7-15.318-35.736-34.146-35.736s-34.146,16.033-34.146,35.736a2.1,2.1,0,0,1-4.2,0c0-22.023,17.2-39.938,38.348-39.938s38.348,17.916,38.348,39.938a2.1,2.1,0,0,1-2.1,2.1Z" transform="translate(-168.243 -413.859)" />
      </g>
    </g>
    <g id="Group_1502" data-name="Group 1502" transform="translate(58.851 86.605)">
      <rect id="Rectangle_690" data-name="Rectangle 690" width="15.619" height="5.86" rx="1.373" transform="translate(2.143 2.101)" fill="#fff"/>
      <path id="Path_1322" data-name="Path 1322" d="M214.437,496.282h-9.852a5.031,5.031,0,0,1,0-10.062h9.852a5.031,5.031,0,0,1,0,10.062Zm-9.852-5.86a.785.785,0,0,0-.784.784.81.81,0,0,0,.744.872l.04,0h9.852a.783.783,0,0,0,.779-.784.807.807,0,0,0-.735-.872l-.044,0Z" transform="translate(-199.557 -486.22)" />
    </g>
    <g id="Group_1503" data-name="Group 1503" transform="translate(0 104.913)">
      <path id="Path_1323" data-name="Path 1323" d="M208,511.669,192.761,505.1h-.006c-.67,2.347-1.695,4.349-3.28,5.257-5.274,3.008-19.443,4.469-24.646,5.068-13.755,1.6-15.012,5.348-16.518,15.262a155.114,155.114,0,0,0-1.253,18.573H269.552a155.158,155.158,0,0,0-1.254-18.577c-1.507-9.915-2.763-13.665-16.518-15.262-5.2-.6-19.376-2.054-24.646-5.068-1.585-.908-2.605-2.91-3.275-5.252h-.009Z" transform="translate(-144.957 -503)" fill="#fff"/>
      <path id="Path_1324" data-name="Path 1324" d="M269.756,551.517a.346.346,0,0,0-.046,0H147.215a2.1,2.1,0,0,1-2.1-2.1v-.01a156.037,156.037,0,0,1,1.28-18.884c1.674-11.01,3.689-15.329,18.35-17.03l.982-.108c5.466-.619,18.268-2.07,22.874-4.693.891-.508,1.706-1.933,2.3-4.007a2.161,2.161,0,0,1,2.715-1.4c.049.015.1.032.144.051l14.419,6.221,15.025-6.234a2.108,2.108,0,0,1,2.752,1.146,2.008,2.008,0,0,1,.078.224c.59,2.071,1.405,3.494,2.3,4,4.591,2.62,17.395,4.072,22.865,4.691l.982.108c14.661,1.7,16.676,6.024,18.35,17.033a151.417,151.417,0,0,1,1.276,18.455,1.935,1.935,0,0,1,.051.439A2.106,2.106,0,0,1,269.756,551.517Zm-120.4-4.207H267.577a141.544,141.544,0,0,0-1.2-16.161c-1.365-8.972-1.821-12-14.682-13.49l-.973-.108c-6.212-.7-19.133-2.168-24.477-5.219a8.556,8.556,0,0,1-3.484-4.292l-13.8,5.729a2.127,2.127,0,0,1-1.637-.013l-13.182-5.686a8.543,8.543,0,0,1-3.467,4.261c-5.352,3.053-18.268,4.519-24.486,5.221l-.973.108c-12.856,1.492-13.316,4.517-14.681,13.49A141.787,141.787,0,0,0,149.351,547.31Z" transform="translate(-145.114 -503.157)" />
    </g>
    <g id="Group_1504" data-name="Group 1504" transform="translate(53.187 118.567)">
      <path id="Path_1325" data-name="Path 1325" d="M205.067,518.771l-.743-1.042-.747,1.042-7.317,28.168,4.181,1.3h7.76l4.181-1.3Z" transform="translate(-194.16 -515.631)" fill="#fff"/>
      <path id="Path_1326" data-name="Path 1326" d="M208.36,550.494H200.6a2.153,2.153,0,0,1-.619-.094l-4.181-1.3a2.1,2.1,0,0,1-1.412-2.536L201.7,518.4a2.085,2.085,0,0,1,.324-.693l.742-1.042a2.108,2.108,0,0,1,1.712-.878h0a2.094,2.094,0,0,1,1.71.88l.744,1.042a2.075,2.075,0,0,1,.324.691l7.322,28.167a2.1,2.1,0,0,1-1.412,2.536l-4.183,1.3A2.129,2.129,0,0,1,208.36,550.494Zm-7.44-4.2h7.122l1.962-.612-5.524-21.26-5.524,21.26Z" transform="translate(-194.317 -515.788)" />
    </g>
    <g id="Group_1505" data-name="Group 1505" transform="translate(0 113.094)">
      <path id="Path_1327" data-name="Path 1327" d="M179.905,512.669h0c-5.691,1.116-11.969,1.779-15.075,2.137-13.755,1.6-15.012,5.348-16.518,15.262a155.171,155.171,0,0,0-1.254,18.577h57.366Z" transform="translate(-144.957 -510.568)" fill="#fff"/>
      <path id="Path_1328" data-name="Path 1328" d="M204.582,550.9H147.215a2.109,2.109,0,0,1-2.1-2.111,156.035,156.035,0,0,1,1.28-18.884c1.674-11.01,3.689-15.329,18.35-17.031l.946-.108c3.324-.374,8.888-1.006,13.971-2a2.092,2.092,0,0,1,2.137.878l24.519,35.976a2.1,2.1,0,0,1-1.736,3.286Zm-55.229-4.2h51.259L179.1,515.144c-4.845.882-9.848,1.45-12.942,1.8l-.931.108c-12.856,1.492-13.316,4.517-14.68,13.49a142,142,0,0,0-1.2,16.158Z" transform="translate(-145.114 -510.725)" />
    </g>
    <g id="Group_1506" data-name="Group 1506" transform="translate(65.13 113.092)">
      <path id="Path_1329" data-name="Path 1329" d="M264.674,548.646a155.163,155.163,0,0,0-1.254-18.577c-1.507-9.915-2.763-13.665-16.518-15.262-3.1-.357-9.383-1.021-15.075-2.137h0L207.31,548.646Z" transform="translate(-205.209 -510.565)" fill="#fff"/>
      <path id="Path_1330" data-name="Path 1330" d="M264.832,550.9H207.465a2.106,2.106,0,0,1-1.737-3.286l24.519-35.976a2.1,2.1,0,0,1,2.144-.878c5.081,1,10.64,1.628,13.964,2l.95.108c14.661,1.7,16.676,6.024,18.35,17.033a154.321,154.321,0,0,1,1.28,18.884,2.1,2.1,0,0,1-2.092,2.111h-.012Zm-53.392-4.2H262.7a141.538,141.538,0,0,0-1.2-16.161c-1.365-8.972-1.821-12-14.682-13.49l-.939-.108c-3.095-.351-8.093-.92-12.929-1.8Z" transform="translate(-205.366 -510.723)" />
    </g>
    <g id="Group_1507" data-name="Group 1507" transform="translate(56.006 111.481)">
      <path id="Path_1331" data-name="Path 1331" d="M198.868,516.24l4.941,5.245,5.757-5.245-5.757-5.063Z" transform="translate(-196.768 -509.076)" fill="#fff"/>
      <path id="Path_1332" data-name="Path 1332" d="M203.965,523.742a2.083,2.083,0,0,1-1.525-.66l-4.942-5.244a2.1,2.1,0,0,1,.025-2.908l4.942-5.063a2.1,2.1,0,0,1,2.892-.108l5.759,5.063a2.1,2.1,0,0,1,.188,2.967,2.013,2.013,0,0,1-.165.168l-5.757,5.246A2.1,2.1,0,0,1,203.965,523.742Zm-2.026-7.32,2.141,2.275,2.5-2.27-2.5-2.2Z" transform="translate(-196.925 -509.233)" />
    </g>
    <g id="Group_1508" data-name="Group 1508" transform="translate(40.822 104.904)">
      <path id="Path_1333" data-name="Path 1333" d="M204.946,511.669l-10.062,10.308-10.062-10.308,4.887-6.574Z" transform="translate(-182.721 -502.991)" fill="#fff"/>
      <path id="Path_1334" data-name="Path 1334" d="M195.04,524.235a2.1,2.1,0,0,1-1.5-.635l-10.062-10.308a2.1,2.1,0,0,1-.183-2.721L188.18,504a2.1,2.1,0,0,1,2.52-.675l15.242,6.574a2.1,2.1,0,0,1,.672,3.4L196.552,523.6A2.112,2.112,0,0,1,195.04,524.235Zm-7.3-12.6,7.3,7.488,6.427-6.583-10.909-4.7Z" transform="translate(-182.878 -503.149)" />
    </g>
    <g id="Group_1509" data-name="Group 1509" transform="translate(60.946 104.904)">
      <path id="Path_1335" data-name="Path 1335" d="M203.438,511.669,213.5,521.978l10.053-10.308-4.883-6.574Z" transform="translate(-201.338 -502.991)" fill="#fff"/>
      <path id="Path_1336" data-name="Path 1336" d="M213.66,524.234a2.092,2.092,0,0,1-1.5-.635l-10.066-10.308a2.1,2.1,0,0,1,.672-3.4l15.242-6.574a2.1,2.1,0,0,1,2.515.677l4.883,6.574a2.1,2.1,0,0,1-.181,2.721L215.164,523.6A2.091,2.091,0,0,1,213.66,524.234Zm-6.425-11.691,6.425,6.583,7.305-7.488-2.823-3.8Z" transform="translate(-201.496 -503.149)" />
    </g>
  </g>
</svg>
