<svg xmlns="http://www.w3.org/2000/svg" width="126.744" height="153.274" viewBox="0 0 126.744 153.274" id="duringSale">
  <g id="Group_1510" data-name="Group 1510" transform="translate(0 0)" style="isolation: isolate">
    <g id="Group_1492" data-name="Group 1492" transform="translate(23.738 6.366)">
      <g id="Group_1491" data-name="Group 1491">
        <path id="Path_1309" data-name="Path 1309" d="M212.623,511.062a23.129,23.129,0,0,1-2.919-.225c-.316-.042-.582-.078-.784-.086l-2.24-.108-2.238.108c-.2.009-.47.044-.788.086a23.043,23.043,0,0,1-2.912.225,9.244,9.244,0,0,1-7.351-3.021c-.723-.83-2.182-2.231-3.87-3.854-7.44-7.149-13.632-13.448-14.06-18.138-.049-.582-.108-1.249-.187-1.986-1.227-.343-2.7-1.322-3.591-3.891l-.248-.719a19.054,19.054,0,0,0-2.712-5.66c-1.957-3.106-2.222-9.142-.54-12.188a4.285,4.285,0,0,1,4.234-2.414c-.134-1.064-.271-2.109-.405-3.128-.731-5.61-2.954-22.678,6.828-33.817,5.976-6.81,15.344-10.255,27.843-10.255s21.868,3.451,27.848,10.259c9.778,11.141,7.552,28.2,6.82,33.812q-.2,1.529-.4,3.135a4.272,4.272,0,0,1,4.235,2.409c1.679,3.05,1.405,9.087-.55,12.186a19.03,19.03,0,0,0-2.7,5.648l-.254.733c-.886,2.572-2.364,3.551-3.591,3.892-.074.739-.138,1.405-.194,1.988-.423,4.687-6.614,10.988-14.052,18.136-1.687,1.621-3.143,3.027-3.865,3.854A9.245,9.245,0,0,1,212.623,511.062Zm-5.938-4.626h.116l2.313.108c.283.013.67.058,1.124.116a18.554,18.554,0,0,0,2.385.193,5.127,5.127,0,0,0,4.177-1.574c.846-.973,2.294-2.366,4.128-4.126,4.353-4.188,12.463-11.98,12.778-15.491.1-1.038.231-2.338.383-3.834a2.1,2.1,0,0,1,2.3-1.88,2.071,2.071,0,0,1,.256.042.978.978,0,0,0,.216.025c.4,0,.771-1.021.842-1.225l.25-.726a22.883,22.883,0,0,1,3.135-6.528c1.412-2.235,1.189-7.481.216-8.189a4.168,4.168,0,0,0-.956.54,2.083,2.083,0,0,1-1.25.412h-.641a2.1,2.1,0,0,1-2.1-2.1,2,2,0,0,1,.016-.255c.271-2.206.546-4.377.813-6.432.672-5.145,2.714-20.788-5.811-30.5-5.141-5.858-13.447-8.828-24.687-8.828s-19.545,2.978-24.693,8.837c-8.524,9.709-6.486,25.357-5.816,30.5.267,2.054.54,4.226.817,6.432a2.1,2.1,0,0,1-1.82,2.344,2.154,2.154,0,0,1-.264.016h-.641a2.1,2.1,0,0,1-1.252-.412,2.175,2.175,0,0,0-1.029-.525c-.9.649-1.129,5.925.292,8.173a22.888,22.888,0,0,1,3.135,6.539l.245.712c.073.205.448,1.233.855,1.233a.922.922,0,0,0,.216-.029,2.08,2.08,0,0,1,1.687.345,2.11,2.11,0,0,1,.865,1.492c.151,1.494.283,2.8.374,3.832.324,3.507,8.432,11.3,12.787,15.487,1.83,1.763,3.277,3.153,4.126,4.128a5.133,5.133,0,0,0,4.179,1.574,18.443,18.443,0,0,0,2.378-.193c.456-.056.839-.108,1.131-.116l2.309-.108a.479.479,0,0,1,.117-.01Z" transform="translate(-167.074 -411.991)" fill="#f5f5f5"/>
      </g>
    </g>
    <g id="Group_1494" data-name="Group 1494" transform="translate(25.286 0)">
      <g id="Group_1493" data-name="Group 1493">
        <path id="Path_1311" data-name="Path 1311" d="M177.341,473.2a2.106,2.106,0,0,1-1.975-1.383,101.133,101.133,0,0,1-2.928-10.053,70.787,70.787,0,0,1-2.307-38.344,42.894,42.894,0,0,1,4.185-11.35,2.091,2.091,0,0,1,2.307-1c2.565.6,4.216.108,7.465-.926a86.274,86.274,0,0,1,16.119-3.627,42.657,42.657,0,0,1,5.762-.416c7.763,0,12.228,2.538,14.548,4.557a12.349,12.349,0,0,1,2.636-.265,23.476,23.476,0,0,1,9.308,2.246c10.625,4.679,13.829,17.139,10.092,39.21a102.841,102.841,0,0,1-4.774,19.966,2.1,2.1,0,0,1-4.07-.878c.017-.2,1.49-19.947-1.429-27.441a8.611,8.611,0,0,0-.405-.857l-1.309-1.919a12.089,12.089,0,0,0-8.77-3.878,5.789,5.789,0,0,0-3.854,1.133c-3.471,3.345-8.683,3.707-10.764,3.707-.276,0-.485-.006-.607-.011s-.332.011-.612.011c-2.075,0-7.289-.361-10.763-3.707a5.822,5.822,0,0,0-3.878-1.137c-3.783,0-8.671,2.084-10.459,6.66-2.685,6.9-1.647,24.172-1.45,27.034a2.1,2.1,0,0,1-2.024,2.667A.123.123,0,0,1,177.341,473.2Zm-.046-57.743a39.586,39.586,0,0,0-3.053,8.822,66.338,66.338,0,0,0,.685,31.141c.185-5.034.731-10.146,2.015-13.447,2.509-6.417,9.209-9.337,14.377-9.337a9.707,9.707,0,0,1,6.791,2.31c2.441,2.349,6.626,2.532,7.85,2.532.279,0,.452-.009.479-.011.086-.007.181,0,.267,0,.025,0,.2.011.472.011,1.227,0,5.412-.183,7.85-2.53a9.667,9.667,0,0,1,6.767-2.309,16.2,16.2,0,0,1,12.033,5.431c.048.057.092.117.134.178l1.452,2.12a2.279,2.279,0,0,1,.129.216,14.048,14.048,0,0,1,.649,1.378,40.519,40.519,0,0,1,1.92,11.308c.1-.672.2-1.349.278-2.03,4.437-26.2-2.222-32.375-7.621-34.753a19.243,19.243,0,0,0-7.616-1.891,6.571,6.571,0,0,0-2.26.317,2.111,2.111,0,0,1-2.469-.445c-1.45-1.554-5-4.164-12.455-4.164a38.693,38.693,0,0,0-5.2.376,82.75,82.75,0,0,0-15.418,3.471c-2.991.951-5.284,1.638-8.059,1.306Z" transform="translate(-168.506 -406.101)" fill="#f5f5f5"/>
      </g>
    </g>
    <g id="Group_1495" data-name="Group 1495" transform="translate(68.347 65.758)">
      <path id="Path_1312" data-name="Path 1312" d="M210.395,494.915a2.1,2.1,0,0,1,0-4.2c10.9,0,18.787-2.654,23.442-7.881a19.022,19.022,0,0,0,4.513-13.594,2.1,2.1,0,0,1,4.168-.51,22.934,22.934,0,0,1-5.495,16.838C231.546,491.769,222.583,494.915,210.395,494.915Z" transform="translate(-208.341 -466.935)" fill="#f5f5f5"/>
    </g>
    <g id="Group_1501" data-name="Group 1501" transform="translate(17.874 8.386)">
      <g id="Group_1496" data-name="Group 1496" transform="translate(71.773 36.713)">
        <path id="Path_1313" data-name="Path 1313" d="M237.807,449.78v-.007h-2.576v.865c-2.91,1.971-5.24,7.12-5.24,13.188s2.331,11.211,5.24,13.182v.865h2.577v-.007C241.763,477.827,241.764,449.822,237.807,449.78Z" transform="translate(-227.89 -447.664)" fill="#f5f5f5"/>
        <path id="Path_1313-2" data-name="Path 1313" d="M237.807,449.78v-.007h-2.576v.865c-2.91,1.971-5.24,7.12-5.24,13.188s2.331,11.211,5.24,13.182v.865h2.577v-.007C241.763,477.827,241.764,449.822,237.807,449.78Z" transform="translate(-223.89 -447.664)" fill="#f5f5f5"/>
        <path id="Path_1313-3" data-name="Path 1313" d="M237.807,449.78v-.007h-2.576v.865c-2.91,1.971-5.24,7.12-5.24,13.188s2.331,11.211,5.24,13.182v.865h2.577v-.007C241.763,477.827,241.764,449.822,237.807,449.78Z" transform="translate(-293.535 -447.664)" fill="#f5f5f5"/>
        <path id="Path_1313-4" data-name="Path 1313" d="M237.807,449.78v-.007h-2.576v.865c-2.91,1.971-5.24,7.12-5.24,13.188s2.331,11.211,5.24,13.182v.865h2.577v-.007C241.763,477.827,241.764,449.822,237.807,449.78Z" transform="translate(-298.535 -447.664)" fill="#f5f5f5"/>
        <path id="Path_1314" data-name="Path 1314" d="M237.964,480.132h-2.576a2.1,2.1,0,0,1-2.093-1.946c-3.177-2.811-5.248-8.323-5.248-14.207s2.071-11.4,5.248-14.211a2.1,2.1,0,0,1,2.093-1.946h2.576a1.986,1.986,0,0,1,.227.013c5.163.227,9.03,7.107,9.03,16.14s-3.868,15.911-9.03,16.138A1.132,1.132,0,0,1,237.964,480.132Zm-.874-4.2h.715l.138-.007c2.122-.018,5.08-4.573,5.08-11.94s-2.954-11.921-5.08-11.945a1,1,0,0,1-.138-.006h-.715a2.061,2.061,0,0,1-.525.5c-2.141,1.454-4.315,5.849-4.315,11.446s2.175,9.992,4.315,11.442a2.108,2.108,0,0,1,.526.506Z" transform="translate(-228.047 -447.822)" fill="#f5f5f5"/>
      </g>
      <g id="Group_1497" data-name="Group 1497" transform="translate(71.773 36.361)">
        <path id="Path_1316" data-name="Path 1316" d="M235.483,480.517h-2.669c-2.627,0-4.767-2.431-4.767-5.421V452.918c0-2.988,2.141-5.421,4.767-5.421h2.669c2.63,0,4.767,2.433,4.767,5.421V475.1C240.25,478.086,238.113,480.517,235.483,480.517ZM232.814,451.7c-.138,0-.565.432-.565,1.218v22.178c0,.788.427,1.218.565,1.218h2.669c.143,0,.565-.432.565-1.218V452.918c0-.786-.423-1.218-.565-1.218Z" transform="translate(-228.047 -447.497)" fill="#f5f5f5"/>
      </g>
      <g id="Group_1497-2" data-name="Group 1497" transform="translate(6.128 36.361)">
        <path id="Path_1316-2" data-name="Path 1316" d="M235.483,480.517h-2.669c-2.627,0-4.767-2.431-4.767-5.421V452.918c0-2.988,2.141-5.421,4.767-5.421h2.669c2.63,0,4.767,2.433,4.767,5.421V475.1C240.25,478.086,238.113,480.517,235.483,480.517ZM232.814,451.7c-.138,0-.565.432-.565,1.218v22.178c0,.788.427,1.218.565,1.218h2.669c.143,0,.565-.432.565-1.218V452.918c0-.786-.423-1.218-.565-1.218Z" transform="translate(-228.047 -447.497)" fill="#f5f5f5"/>
      </g>
      <g id="Group_1498" data-name="Group 1498" transform="translate(0 36.721)">
        <path id="Path_1318" data-name="Path 1318" d="M173.484,480.131h-2.576a1.558,1.558,0,0,1-.227-.011c-5.163-.227-9.033-7.106-9.033-16.138s3.87-15.915,9.037-16.14a1.912,1.912,0,0,1,.223-.013h2.576a2.1,2.1,0,0,1,2.1,1.946c3.173,2.81,5.244,8.323,5.244,14.211s-2.072,11.4-5.244,14.207A2.1,2.1,0,0,1,173.484,480.131Zm-2.416-4.2h.719a2.157,2.157,0,0,1,.521-.5c2.145-1.449,4.315-5.847,4.315-11.442s-2.171-9.992-4.315-11.446a2.136,2.136,0,0,1-.521-.5h-.719c-.046,0-.091.007-.141.007-2.115.023-5.08,4.578-5.08,11.945s2.961,11.921,5.08,11.94Z" transform="translate(-161.649 -447.83)" fill="#f5f5f5"/>
      </g>
    </g>
    <g id="Group_1502" data-name="Group 1502" transform="translate(51.616 86.605)">
      <path id="Path_1322" data-name="Path 1322" d="M214.437,496.282h-9.852a5.031,5.031,0,0,1,0-10.062h9.852a5.031,5.031,0,0,1,0,10.062Zm-9.852-5.86a.785.785,0,0,0-.784.784.81.81,0,0,0,.744.872l.04,0h9.852a.783.783,0,0,0,.779-.784.807.807,0,0,0-.735-.872l-.044,0Z" transform="translate(-199.557 -486.22)" fill="#f5f5f5"/>
    </g>
    <g id="Group_1503" data-name="Group 1503" transform="translate(0 104.913)">
      <path id="Path_1324" data-name="Path 1324" d="M269.756,551.517a.346.346,0,0,0-.046,0H147.215a2.1,2.1,0,0,1-2.1-2.1v-.01a156.037,156.037,0,0,1,1.28-18.884c1.674-11.01,3.689-15.329,18.35-17.03l.982-.108c5.466-.619,18.268-2.07,22.874-4.693.891-.508,1.706-1.933,2.3-4.007a2.161,2.161,0,0,1,2.715-1.4c.049.015.1.032.144.051l14.419,6.221,15.025-6.234a2.108,2.108,0,0,1,2.752,1.146,2.008,2.008,0,0,1,.078.224c.59,2.071,1.405,3.494,2.3,4,4.591,2.62,17.395,4.072,22.865,4.691l.982.108c14.661,1.7,16.676,6.024,18.35,17.033a151.417,151.417,0,0,1,1.276,18.455,1.935,1.935,0,0,1,.051.439A2.106,2.106,0,0,1,269.756,551.517Zm-120.4-4.207H267.577a141.544,141.544,0,0,0-1.2-16.161c-1.365-8.972-1.821-12-14.682-13.49l-.973-.108c-6.212-.7-19.133-2.168-24.477-5.219a8.556,8.556,0,0,1-3.484-4.292l-13.8,5.729a2.127,2.127,0,0,1-1.637-.013l-13.182-5.686a8.543,8.543,0,0,1-3.467,4.261c-5.352,3.053-18.268,4.519-24.486,5.221l-.973.108c-12.856,1.492-13.316,4.517-14.681,13.49A141.787,141.787,0,0,0,149.351,547.31Z" transform="translate(-145.114 -503.157)" fill="#f5f5f5"/>
    </g>
    <g id="Group_1504" data-name="Group 1504" transform="translate(53.187 121.828)">
      <path id="Path_1326" data-name="Path 1326" d="M208.36,547.233H200.6a2.359,2.359,0,0,1-.619-.085l-4.181-1.175a1.88,1.88,0,0,1-1.412-2.3l7.318-25.519a1.815,1.815,0,0,1,.324-.628l.742-.944a2.183,2.183,0,0,1,1.712-.8h0a2.168,2.168,0,0,1,1.71.8l.744.944a1.806,1.806,0,0,1,.324.626l7.322,25.519a1.887,1.887,0,0,1-1.412,2.3l-4.183,1.175A2.335,2.335,0,0,1,208.36,547.233Zm-7.44-3.807h7.122l1.962-.554-5.524-19.262-5.524,19.262Z" transform="translate(-194.317 -515.788)" fill="#f5f5f5"/>
    </g>
    <g id="Group_1505" data-name="Group 1505" transform="translate(0 113.094)">
      <path id="Path_1328" data-name="Path 1328" d="M204.582,550.9H147.215a2.109,2.109,0,0,1-2.1-2.111,156.035,156.035,0,0,1,1.28-18.884c1.674-11.01,3.689-15.329,18.35-17.031l.946-.108c3.324-.374,8.888-1.006,13.971-2a2.092,2.092,0,0,1,2.137.878l24.519,35.976a2.1,2.1,0,0,1-1.736,3.286Zm-55.229-4.2h51.259L179.1,515.144c-4.845.882-9.848,1.45-12.942,1.8l-.931.108c-12.856,1.492-13.316,4.517-14.68,13.49a142,142,0,0,0-1.2,16.158Z" transform="translate(-145.114 -510.725)" fill="#f5f5f5"/>
    </g>
    <g id="Group_1506" data-name="Group 1506" transform="translate(65.13 113.092)">
      <path id="Path_1330" data-name="Path 1330" d="M264.832,550.9H207.465a2.106,2.106,0,0,1-1.737-3.286l24.519-35.976a2.1,2.1,0,0,1,2.144-.878c5.081,1,10.64,1.628,13.964,2l.95.108c14.661,1.7,16.676,6.024,18.35,17.033a154.321,154.321,0,0,1,1.28,18.884,2.1,2.1,0,0,1-2.092,2.111h-.012Zm-53.392-4.2H262.7a141.538,141.538,0,0,0-1.2-16.161c-1.365-8.972-1.821-12-14.682-13.49l-.939-.108c-3.095-.351-8.093-.92-12.929-1.8Z" transform="translate(-205.366 -510.723)" fill="#f5f5f5"/>
    </g>
    <g id="Group_1507" data-name="Group 1507" transform="translate(56.006 111.481)">
      <path id="Path_1332" data-name="Path 1332" d="M203.965,523.742a2.083,2.083,0,0,1-1.525-.66l-4.942-5.244a2.1,2.1,0,0,1,.025-2.908l4.942-5.063a2.1,2.1,0,0,1,2.892-.108l5.759,5.063a2.1,2.1,0,0,1,.188,2.967,2.013,2.013,0,0,1-.165.168l-5.757,5.246A2.1,2.1,0,0,1,203.965,523.742Zm-2.026-7.32,2.141,2.275,2.5-2.27-2.5-2.2Z" transform="translate(-196.925 -509.233)" fill="#f5f5f5"/>
    </g>
    <g id="Group_1508" data-name="Group 1508" transform="translate(40.822 104.904)">
      <path id="Path_1334" data-name="Path 1334" d="M195.04,524.235a2.1,2.1,0,0,1-1.5-.635l-10.062-10.308a2.1,2.1,0,0,1-.183-2.721L188.18,504a2.1,2.1,0,0,1,2.52-.675l15.242,6.574a2.1,2.1,0,0,1,.672,3.4L196.552,523.6A2.112,2.112,0,0,1,195.04,524.235Zm-7.3-12.6,7.3,7.488,6.427-6.583-10.909-4.7Z" transform="translate(-182.878 -503.149)" fill="#f5f5f5"/>
    </g>
    <g id="Group_1509" data-name="Group 1509" transform="translate(60.946 104.904)">
      <path id="Path_1336" data-name="Path 1336" d="M213.66,524.234a2.092,2.092,0,0,1-1.5-.635l-10.066-10.308a2.1,2.1,0,0,1,.672-3.4l15.242-6.574a2.1,2.1,0,0,1,2.515.677l4.883,6.574a2.1,2.1,0,0,1-.181,2.721L215.164,523.6A2.091,2.091,0,0,1,213.66,524.234Zm-6.425-11.691,6.425,6.583,7.305-7.488-2.823-3.8Z" transform="translate(-201.496 -503.149)" fill="#f5f5f5"/>
    </g>
  </g>
</svg>
